<svg width="16" height="17" fill="none" xmlns="http://www.w3.org/2000/svg"><path d="M13.657 2.49C10.53-.83 5.47-.83 2.344 2.49-.17 5.16-.646 9.13.84 12.291l-.824 3.85c-.107.5.315.949.786.835l3.625-.875C9.698 18.895 16 14.85 16 8.498c0-2.27-.832-4.403-2.343-6.008zm-3.988 8.123H4.663c-.363 0-.657-.312-.657-.698 0-.385.294-.698.657-.698h5.006c.363 0 .657.313.657.698 0 .386-.294.698-.657.698zm1.669-2.835H4.663c-.363 0-.657-.313-.657-.698 0-.386.294-.698.657-.698h6.675c.363 0 .657.312.657.698 0 .385-.294.698-.657.698z" fill="#00CEA9"/></svg>