<svg width="866" height="866" fill="none" xmlns="http://www.w3.org/2000/svg"><circle cx="433" cy="433" r="433" fill="#00CEA9" fill-opacity=".1"/><path d="M260 169.901c0 8.8 7.2 15.9 15.9 15.9 8.8 0 15.9-7.2 15.9-15.9 0-8.8-7.2-15.9-15.9-15.9-8.8-.1-15.9 7.1-15.9 15.9zm27.8 0c0 6.6-5.3 11.9-11.9 11.9-6.6 0-11.9-5.3-11.9-11.9 0-6.6 5.3-11.9 11.9-11.9 6.6 0 11.9 5.3 11.9 11.9zm408.2 622c0 8.8 7.2 15.9 15.9 15.9 8.8 0 15.9-7.2 15.9-15.9 0-8.8-7.2-15.9-15.9-15.9-8.8-.1-15.9 7.1-15.9 15.9zm27.8 0c0 6.6-5.3 11.9-11.9 11.9-6.6 0-11.9-5.3-11.9-11.9 0-6.6 5.3-11.9 11.9-11.9 6.6 0 11.9 5.3 11.9 11.9z" fill="#8ADAC2"/></svg>