<svg width="317" height="756" fill="none" xmlns="http://www.w3.org/2000/svg"><path d="M32.53 259.935s7.195 31.305 28.244 31.305c18.064 0 42.787-40.796 42.787-40.796l-71.03 9.491z" fill="#F99746"/><path d="M274.172 722.552l-13.548 9.261s-64.984-69.27-80.675-135.708c-2.832-11.864-3.904-23.575-2.755-34.673 0 0-.919-2.985-2.603-8.343l-.229-.689c-.689-2.296-1.608-5.052-2.603-8.19-3.138-10.027-7.501-23.804-12.4-39.419-11.328-35.974-37.352-117.185-48.45-150.94l79.832-28.856s9.032 20.666 22.121 76.848a497.458 497.458 0 015.894 24.263 442.881 442.881 0 015.74 32.76c2.832 20.054 4.669 42.557 4.822 67.28.077 10.027-.229 20.513-.765 31.229-.459 7.884.765 18.37 2.909 30.387 10.026 54.727 42.71 134.79 42.71 134.79z" fill="#457C6A"/><path d="M316.652 755.923h-64.525s-2.449-10.256 1.837-17.298c3.751-6.2 2.297-9.721-.459-14.849 2.909 1.225 6.736 2.296 10.869 2.067 3.215-.153 6.583-1.608 9.568-3.368 2.755 3.138 14.696 16.609 18.37 19.288 4.209 3.062 23.039 1.99 24.34 14.16zm-92.156-296.98L174.362 552.4c-.689-2.296-1.608-5.052-2.603-8.19-3.138-10.027-7.501-23.804-12.4-39.419-11.328-35.974-37.352-117.185-48.45-150.94l79.832-28.856s9.032 20.666 22.121 76.848a497.458 497.458 0 015.894 24.263c2.066 10.104 4.056 21.049 5.74 32.837zm-114.889 276.85s-4.439 10.946-.229 20.207h35.132s.766-8.343-12.017-17.987c-9.721-7.348-22.886-2.22-22.886-2.22z" fill="#457C6A"/><path d="M147.802 22.273c0-1.76.918-20.59 29.545-22.273 0 0-14.084 1.99-16.303 8.266 0 0 9.414-7.883 17.298-5.587 7.884 2.296 12.782 15.844 12.935 20.36.153 4.516-3.827 19.135-8.725 20.436-1.837.536-4.057.46-5.971.154 1.378 1.99 2.679 4.286 3.981 6.812 12.017 23.192 1.684 50.517-8.114 48.22-6.276-1.453-10.027 9.339-10.027 9.339l-60.085-51.666c-.076 0 20.973-46.384 45.466-34.06z" fill="#505050"/><path d="M110.067 179.26c6.659 4.592 15.002 8.42 25.488 10.869 39.266 9.108 54.345-24.111 60.009-46.92-5.358-3.062-10.41-3.751-13.319-4.057a191.436 191.436 0 00-8.266-.689c-4.439-3.367-11.022-17.221-12.476-38.653l-1.837.459-31 8.496s1.455 9.874 2.144 19.136c.535 7.271.612 14.236-.766 15.92-2.449.536-3.903.842-3.903.842-.383.689-9.415 15.462-16.074 34.597z" fill="#FFB27D"/><path d="M128.666 108.689s1.454 9.874 2.143 19.135c17.528-1.76 25.718-18.446 28.856-27.631l-30.999 8.496z" fill="#ED985F"/><path d="M128.284 123.461s40.414-10.409 33.525-35.438c-6.889-25.03-6.276-43.246-32.301-37.735-26.1 5.587-28.473 16.533-28.243 25.412.229 8.878 16.38 49.828 27.019 47.761z" fill="#FFB27D"/><path d="M98.662 61.463c4.133-9.262 9.262-8.88 12.553-7.348 18.676-18.14 37.735-4.134 37.735-4.134 7.654 17.222 23.422 23.958 23.422 23.958s-6.124 6.506-24.188 6.812c-5.511.077-11.175-2.296-16.303-5.664 9.951 9.568 21.585 15.308 21.585 15.308-22.733-3.75-38.577-29.621-40.184-32.377-1.837 2.909-5.358 9.032-5.588 14.084-.23 6.965 2.449 20.283-1.531 20.896.077 0-13.7-17.681-7.5-31.535z" fill="#565656"/><path d="M116.725 142.52s67.816-16.456 97.361 7.884l-14.772 205.59-132.723-32.07s3.75-13.012 29.162-47.609c25.488-34.597 14.39-85.344 20.972-133.795z" fill="#FFB27D"/><path d="M156.221 333.109s-.076.688-.229 1.99a41.899 41.899 0 00-.23 2.066c-.536 5.358-1.684 15.538-3.062 28.856-3.674 34.903-9.338 90.855-13.241 135.096-3.062 34.597-4.976 61.922-3.904 66.285 3.138 13.242 0 171.223 0 171.223-11.252 5.435-28.397 0-28.397 0s-30.004-142.367-25.87-162.191c4.209-19.824-2.833-36.664-2.833-36.664-23.345-108.612-20.743-168.85-16.15-197.63 1.378-8.419 2.908-14.083 3.98-17.604.919-2.985 1.607-4.363 1.607-4.363 51.589-13.777 88.329 12.936 88.329 12.936z" fill="#457C6A"/><path d="M223.195 209.035c-3.292 24.723-16.38 55.033-21.049 71.336 0 0 7.807 56.565.383 72.102-.842 1.761-1.914 2.986-3.215 3.598-27.632 12.017-135.402.383-139.994-34.444-1.684-12.629 41.026-57.023 43.552-62.458 1.071-2.219 2.143-9.491-2.909-24.416-7.118 21.891-46.231 15.614-46.231 15.614 4.592-7.884 16.074-62.305 28.856-86.874 9.644-18.447 35.286-21.126 35.286-21.126s10.715 16.916 36.51 14.543c25.871-2.373 30.54-18.217 30.54-18.217s22.886 3.062 30.004 8.726c1.225.995 12.553 29.239 8.267 61.616z" fill="#F99746"/><path d="M202.146 280.371s7.808 56.564.383 72.102c-20.13-10.103-36.051-37.505-32.377-67.968 2.679-22.504 6.736-27.708 18.829-40.567 8.879-9.492 29.316-10.027 27.708-5.511-4.822 13.394-12.093 33.295-14.543 41.944z" fill="#ED7D2B"/><path d="M117.95 213.474l46.231 74.092H85.573l-44.011-72.485 76.388-1.607z" fill="#2EB097"/><path d="M161.808 283.816l.766-2.603-43.705-70.112-.919 2.373 43.858 70.342z" fill="#EFDECE"/><path d="M118.869 211.101l-74.092 2.144-3.215 1.837 76.388-1.608.919-2.373z" fill="#FCECDB"/><path d="M41.562 215.082L0 192.578l48.45 76.006 37.123 18.982-44.01-72.484z" fill="#457C6A"/><path d="M261.389 266.977c-4.439 2.066-15.844 15.461-19.977 16.839-18.294 6.123-96.366-10.18-96.366-10.18l2.449-13.701s76.542 2.066 84.961-.23c1.608-.459 9.874-13.394 13.012-15.231l15.921 22.503z" fill="#FFB27D"/><path d="M147.495 260.011s-9.261-7.501-15.461-5.817c-6.277 1.684-15.385 9.568-18.829 11.481-3.445 1.837-12.706 8.573-7.961 12.63 4.669 4.056 19.289.536 25.106-2.526s14.772-2.067 14.772-2.067l2.373-13.701z" fill="#FFB27D"/><path d="M133.794 253.888s-11.251-1.301-14.313-1.301c-3.062.076-2.22.765-.536 3.138 1.684 2.373 7.501 3.291 7.807 4.133.307.842 7.042-5.97 7.042-5.97z" fill="#FFB27D"/><path d="M184.924 138.617s33.295 3.98 42.404 18.216c11.558 18.064 38.959 89.937 38.041 108 0 0-19.977 33.985-88.559 28.55 0 0-7.118-25.182 7.272-33.525 0 0 35.209-6.276 39.266-9.797l-28.703-52.201-9.721-59.243z" fill="#F99746"/><path d="M52.201 242.177c-.995-4.21-10.18-1.607-13.242.842-.765.613-1.53 1.608-2.372 2.756a71.517 71.517 0 00-.23-1.914c-.153-1.99-2.45-5.511-3.062-2.832-.535 2.679-1.53 13.701-1.53 13.701-.077 8.955 5.663 12.629 9.337 9.721 3.674-2.909 12.094-18.141 11.099-22.274z" fill="#FFB27D"/></svg>