<svg width="268" height="95" fill="none" xmlns="http://www.w3.org/2000/svg"><path d="M164.615 76.168c-.45-.949-1.08-1.581-1.89-2.003-.81-.422-1.89-.633-3.06-.633h-7.11c-.18 0-.27 0-.45.106-.09.105-.27.21-.27.316-.09.106-.09.317-.09.527v13.601c0 .211 0 .317.09.528.09.105.18.316.36.421.09.106.27.106.45.106h1.8c.18 0 .27 0 .45-.106.09-.105.27-.21.27-.421.09-.106.09-.317.09-.528v-2.425h4.5c1.17 0 2.16-.21 3.06-.632.81-.422 1.44-1.055 1.89-2.004.45-.948.63-2.003.63-3.479 0-1.37-.27-2.53-.72-3.374zm-3.06 4.956c-.18.422-.36.738-.63.949-.27.21-.63.316-.99.421-.36.106-.81.106-1.26.106h-3.42v-6.01h3.42c.45 0 .9 0 1.26.105.36.106.72.211.99.422s.54.527.63.95c.18.42.27.948.27 1.58-.09.528-.09 1.055-.27 1.477zm-24.121-7.592c-.18 0-.36 0-.45.106-.09.105-.27.21-.27.316-.09.106-.09.317-.09.527v1.055c0 .21 0 .421.09.527.09.105.18.316.27.316.09.106.27.106.45.106h4.14v11.597c0 .211 0 .317.09.528.09.105.18.316.36.316.09.105.27.105.45.105h1.8c.18 0 .27 0 .45-.105.09-.106.27-.211.36-.316.09-.106.09-.317.09-.528V76.485h4.14c.18 0 .36 0 .45-.106.09-.105.27-.21.27-.316.09-.106.09-.317.09-.527V74.48c0-.21 0-.421-.09-.527-.09-.105-.18-.316-.27-.316-.09-.106-.27-.106-.45-.106h-11.88zm-5.94 14.656c0 .211 0 .317.09.527.09.106.18.317.36.317.09.105.27.105.45.105h1.71c.18 0 .36 0 .45-.105.09-.106.27-.211.36-.422.09-.105.09-.316.09-.527V74.482c0-.211 0-.422-.09-.528-.09-.105-.18-.316-.36-.421-.18-.106-.27-.106-.45-.106h-1.71c-.18 0-.27 0-.45.106-.09.105-.27.21-.36.421-.09.106-.09.317-.09.528v4.955h-6.39v-4.955c0-.211 0-.422-.09-.528-.09-.105-.18-.316-.36-.421-.09-.106-.27-.106-.45-.106h-1.71c-.18 0-.36 0-.45.106-.18.105-.27.21-.36.421-.09.106-.09.317-.09.528v13.6c0 .212 0 .317.09.528.09.105.18.316.36.422.09.105.27.105.45.105h1.71c.18 0 .27 0 .45-.105.09-.106.27-.211.36-.317.09-.105.09-.316.09-.527V82.6h6.39v5.588zm-12.51-14.656h-10.8c-.18 0-.27 0-.45.106-.09.105-.27.21-.36.316-.09.106-.09.317-.09.527v13.601c0 .211 0 .422.09.528.09.21.18.316.27.421.09.106.27.106.45.106h10.71c.18 0 .36 0 .45-.106.09-.105.27-.21.27-.421.09-.106.09-.317.09-.528v-1.054c0-.21 0-.316-.09-.527-.09-.106-.18-.316-.27-.316-.09-.106-.27-.106-.45-.106h-8.1v-3.268h7.02c.18 0 .27 0 .45-.106.09-.105.27-.21.36-.421.09-.106.09-.317.09-.528v-1.054c0-.21 0-.316-.09-.527-.09-.106-.18-.316-.36-.422-.09-.105-.27-.105-.45-.105h-7.02v-3.163h8.1c.18 0 .27 0 .45-.106.09-.105.27-.21.36-.316.09-.106.09-.317.09-.527V74.48c0-.21 0-.421-.09-.527-.09-.105-.18-.316-.36-.316 0-.106-.09-.106-.27-.106zm-13.861 15.604c.18 0 .27 0 .45-.105.09-.106.27-.211.36-.422.09-.106.09-.317.09-.527v-1.055c0-.21 0-.421-.09-.527-.09-.105-.18-.316-.36-.316-.09-.106-.27-.106-.45-.106h-.99V74.481c0-.211 0-.422-.09-.528-.09-.105-.18-.316-.36-.316-.09-.105-.27-.105-.45-.105h-1.8c-.18 0-.27 0-.45.105-.09.105-.27.21-.36.316-.09.106-.09.317-.09.528v11.597h-6.3V74.481c0-.211 0-.422-.09-.528-.09-.105-.18-.316-.36-.316-.09-.105-.27-.105-.45-.105h-1.8c-.18 0-.27 0-.45.105-.09.105-.27.21-.36.316-.09.106-.09.317-.09.528v13.6c0 .211 0 .317.09.528.09.105.18.316.36.422.09.105.27.105.45.105h13.59zm161.375-21.823c.18 0 .27 0 .45-.106.09-.105.27-.21.36-.421.09-.106.09-.317.09-.528v-13.6c0-.212 0-.317-.09-.528-.09-.105-.18-.316-.27-.422-.09-.105-.27-.105-.45-.105h-2.88c-.18 0-.27 0-.45.105-.18.106-.36.211-.45.422-.18.105-.27.316-.36.527l-5.31 10.966V52.657c0-.21 0-.316-.09-.527-.09-.105-.18-.316-.36-.316-.09-.106-.27-.106-.45-.106h-1.62c-.18 0-.36 0-.45.106-.09.105-.27.21-.27.316-.09.105-.09.316-.09.527v13.601c0 .211 0 .317.09.528.09.105.18.316.27.421.09.106.27.106.45.106h3.06c.18 0 .36 0 .54-.106.18-.105.36-.21.45-.421.18-.106.27-.317.36-.528l4.86-10.121v10.121c0 .211 0 .317.09.528.09.105.18.316.36.421.09.106.27.106.45.106h1.71zm-5.94-19.295c-.36 0-.54-.106-.81-.211a1.194 1.194 0 01-.45-.527 1.45 1.45 0 00-.27-.422c-.09-.106-.27-.106-.36-.106h-.72c-.18 0-.27 0-.36.106-.09.105-.18.21-.18.422 0 .632.18 1.265.36 1.687.27.527.63.843 1.08 1.16.45.21.99.421 1.62.421.63 0 1.17-.105 1.62-.421.45-.211.81-.633 1.08-1.16.27-.527.36-1.055.36-1.687 0-.211 0-.317-.18-.422-.09-.106-.18-.106-.36-.106h-.72c-.18 0-.27 0-.36.106-.09.105-.18.21-.27.422-.09.21-.27.421-.45.527-.09.105-.36.21-.63.21zm-10.351 19.295c.18 0 .27 0 .45-.106.09-.105.27-.21.36-.421.09-.106.09-.317.09-.528v-13.6c0-.212 0-.317-.09-.528-.09-.105-.18-.316-.27-.422-.09-.105-.27-.105-.45-.105h-2.79c-.18 0-.27 0-.45.105-.18.106-.36.211-.45.422-.18.105-.27.316-.36.527l-5.31 10.966V52.657c0-.21 0-.316-.09-.527-.09-.105-.18-.316-.36-.316-.09-.106-.27-.106-.45-.106h-1.62c-.18 0-.36 0-.45.106-.09.105-.27.21-.27.316-.09.105-.09.316-.09.527v13.601c0 .211 0 .317.09.528.09.105.18.316.27.421.09.106.27.106.45.106h3.06c.18 0 .36 0 .54-.106.18-.105.36-.21.45-.421.18-.106.27-.317.36-.528l4.86-10.121v10.121c0 .211 0 .317.09.528.09.105.18.316.36.421.09.106.27.106.45.106h1.62zm-25.29 0c.18 0 .27 0 .45-.106.09-.105.27-.21.36-.316.09-.106.09-.316.09-.527v-5.272h1.98c.36 0 .72.105 1.08.316.27.211.54.422.81.738.27.317.45.738.72 1.16l1.62 3.058c.09.21.27.421.36.527.18.105.36.316.54.316.18.106.36.106.54.106h2.16c.18 0 .27 0 .36-.106.09-.105.09-.21.09-.316 0-.106-.09-.316-.18-.527l-2.34-4.323a3.25 3.25 0 00-.45-.738 2.317 2.317 0 00-.63-.738c-.18-.211-.45-.422-.63-.633-.27-.21-.45-.316-.72-.316a2.79 2.79 0 001.08-.527c.27-.211.54-.527.72-.844l.54-.949 2.07-4.322c.18-.317.18-.528.18-.738-.09-.211-.18-.317-.45-.317h-2.16c-.27 0-.45.106-.72.211-.27.21-.45.422-.63.844l-1.35 2.74c-.27.528-.54.95-.81 1.266-.27.316-.54.527-.81.738-.27.106-.63.211-.99.211h-1.98v-5.272c0-.21 0-.421-.09-.527-.09-.105-.18-.316-.36-.422-.09-.105-.27-.105-.45-.105h-1.8c-.18 0-.27 0-.45.105-.09.106-.27.211-.36.422-.09.21-.09.316-.09.527v13.601c0 .211 0 .422.09.528.09.21.18.316.36.421.09.106.27.106.45.106h1.8zm-18.991-7.803c0 1.793.27 3.269.81 4.429.54 1.16 1.26 2.003 2.34 2.636.99.527 2.34.843 3.78.843h2.251c.54 0 1.08-.105 1.53-.21a3.64 3.64 0 001.44-.633c.45-.211.9-.528 1.26-.95.36-.421.63-.843.81-1.37.18-.527.27-1.054.27-1.687 0-.21 0-.422-.09-.633-.09-.105-.18-.316-.27-.316-.09-.105-.18-.105-.36-.21h-1.35c-.18 0-.36 0-.54.105-.18.105-.27.21-.45.421s-.27.422-.36.738c-.18.528-.54.95-.9 1.266-.36.316-.81.422-1.44.422h-1.891c-.72 0-1.26-.106-1.71-.211-.45-.211-.81-.422-1.08-.844a3.44 3.44 0 01-.54-1.476c-.09-.633-.18-1.37-.18-2.32 0-.948.09-1.686.18-2.32.09-.632.27-1.159.54-1.475.27-.422.63-.633 1.08-.844.45-.21.99-.21 1.71-.21h1.62c.541 0 1.081.21 1.441.421.36.316.63.738.9 1.265.09.317.27.528.36.739.18.21.27.316.45.421.18.106.36.106.54.106h1.35c.09 0 .18-.106.36-.211.09-.106.18-.211.27-.422.09-.105.09-.316.09-.633 0-.632-.09-1.16-.27-1.687-.18-.527-.45-.948-.81-1.37-.36-.422-.72-.738-1.26-.95-.45-.21-.9-.42-1.44-.632-.54-.105-.99-.21-1.53-.21h-2.071c-1.53 0-2.79.316-3.78.843-.99.527-1.8 1.476-2.34 2.636-.45 1.265-.72 2.741-.72 4.534zm-5.49 6.854c0 .21 0 .316.09.527.09.105.18.316.36.316.09.106.27.106.45.106h1.71c.18 0 .36 0 .45-.106.09-.105.27-.21.36-.421.09-.106.09-.317.09-.528v-13.6c0-.212 0-.422-.09-.528-.09-.105-.18-.316-.36-.422-.18-.105-.27-.105-.45-.105h-1.71c-.18 0-.27 0-.45.105-.09.106-.27.211-.36.422-.09.105-.09.316-.09.527v4.956h-6.39v-4.956c0-.21 0-.421-.09-.527-.09-.105-.18-.316-.36-.422-.09-.105-.27-.105-.45-.105h-1.71c-.18 0-.36 0-.45.105a.776.776 0 00-.36.422c-.09.105-.09.316-.09.527v13.601c0 .211 0 .317.09.528.09.105.18.316.36.421.09.106.27.106.45.106h1.71c.18 0 .27 0 .45-.106.09-.105.27-.21.36-.316.09-.106.09-.316.09-.527v-5.588h6.39v5.588zm-13.41.949c.18 0 .27 0 .45-.106.09-.105.27-.21.36-.421.09-.106.09-.317.09-.528v-13.6c0-.212 0-.317-.09-.528-.09-.105-.18-.316-.27-.422-.09-.105-.27-.105-.45-.105h-2.79c-.18 0-.27 0-.45.105-.18.106-.36.211-.45.422-.18.105-.27.316-.36.527l-5.31 10.966V52.657c0-.21 0-.316-.09-.527-.09-.105-.18-.316-.36-.316-.09-.106-.27-.106-.45-.106h-1.62c-.18 0-.36 0-.45.106-.09.105-.27.21-.27.316-.09.105-.09.316-.09.527v13.601c0 .211 0 .317.09.528.09.105.18.316.27.421.09.106.27.106.45.106h3.06c.18 0 .36 0 .54-.106.18-.105.36-.21.45-.421.18-.106.27-.317.36-.528l4.86-10.121v10.121c0 .211 0 .317.09.528.09.105.18.316.36.421.09.106.27.106.45.106h1.62zm-14.941 0c.18 0 .27 0 .45-.106.09-.105.27-.21.36-.421.09-.106.09-.317.09-.528v-1.054c0-.21 0-.422-.09-.527-.09-.106-.18-.317-.36-.317-.09-.105-.27-.105-.45-.105h-1.08V52.657c0-.21 0-.421-.09-.527-.09-.105-.18-.316-.36-.316-.09-.106-.27-.106-.45-.106h-1.8c-.18 0-.27 0-.45.106-.09.105-.27.21-.36.316-.09.105-.09.316-.09.527v11.598h-6.3V52.657c0-.21 0-.421-.09-.527-.09-.105-.18-.316-.36-.316-.09-.106-.27-.106-.45-.106h-1.8c-.18 0-.27 0-.45.106-.09.105-.27.21-.36.316-.09.105-.09.316-.09.527v13.601c0 .211 0 .317.09.528.09.105.18.316.36.421.09.106.27.106.45.106h13.68zm-17.91 0c.18 0 .27 0 .45-.106.09-.105.27-.21.36-.421.09-.106.09-.317.09-.528v-13.6c0-.212 0-.317-.09-.528-.09-.105-.18-.316-.27-.422-.09-.105-.27-.105-.45-.105h-2.79c-.18 0-.27 0-.45.105-.18.106-.36.211-.45.422-.18.105-.27.316-.36.527l-5.31 10.966V52.657c0-.21 0-.316-.09-.527-.09-.105-.18-.316-.36-.316-.09-.106-.27-.106-.45-.106h-1.62c-.18 0-.36 0-.45.106-.09.105-.27.21-.27.316-.09.105-.09.316-.09.527v13.601c0 .211 0 .317.09.528.09.105.18.316.27.421.09.106.27.106.45.106h3.06c.18 0 .36 0 .54-.106.18-.105.36-.21.45-.421.18-.106.27-.317.36-.528l4.86-10.121v10.121c0 .211 0 .317.09.528.09.105.18.316.36.421.09.106.27.106.45.106h1.62zM138.694 52.13c-.09-.105-.18-.316-.36-.316-.09-.106-.27-.106-.45-.106h-5.04c-.72 0-1.35.106-1.98.211-.63.106-1.26.317-1.8.633s-.99.738-1.44 1.265a6.072 6.072 0 00-.9 2.109l-1.71 8.33h-.72c-.18 0-.27 0-.45.105-.09.105-.27.21-.36.316-.09.105-.09.316-.09.527v1.054c0 .211 0 .317.09.528.09.105.18.316.36.421.09.106.27.106.45.106h13.59c.18 0 .27 0 .45-.106.09-.105.27-.21.36-.316.09-.106.09-.316.09-.527V52.657c0-.21-.09-.316-.09-.527zm-3.42 12.125h-6.57l1.53-7.38c.09-.422.27-.844.45-1.16.18-.317.45-.527.72-.738.27-.211.63-.316 1.08-.316h2.79v9.594zm-13.05-12.652h-10.801c-.18 0-.27 0-.45.105-.09.106-.27.211-.36.317-.09.105-.09.316-.09.527v13.706c0 .211 0 .422.09.528.09.21.18.316.27.421.09.106.27.106.45.106h10.711c.18 0 .36 0 .45-.106.09-.105.27-.21.27-.421.09-.106.09-.317.09-.528v-1.054c0-.21 0-.316-.09-.527-.09-.106-.18-.317-.27-.317-.09-.105-.27-.105-.45-.105h-8.1v-3.268h7.02c.18 0 .27 0 .45-.106.09-.105.27-.21.36-.422.09-.105.09-.316.09-.527v-1.054c0-.211 0-.316-.09-.527-.09-.106-.18-.317-.36-.422-.09-.105-.27-.105-.45-.105h-7.02V54.66h8.1c.18 0 .27 0 .45-.106.09-.105.27-.21.36-.316.09-.106.09-.316.09-.527v-1.055c0-.21 0-.421-.09-.527-.09-.105-.18-.316-.36-.316 0-.106-.18-.211-.27-.211zm-22.231 15.71c.18 0 .36 0 .45-.106.18-.105.27-.21.45-.316.09-.106.18-.316.27-.527l3.33-10.755v10.65c0 .21 0 .421.09.526.09.211.18.317.27.422.09.106.27.106.45.106h1.71c.18 0 .36 0 .45-.106.09-.105.27-.21.27-.421.09-.106.09-.317.09-.528v-13.6c0-.212 0-.422-.09-.528-.09-.21-.18-.316-.27-.422-.09-.105-.27-.105-.45-.105h-3.78c-.18 0-.36 0-.45.105a.776.776 0 00-.36.422c-.09.105-.18.316-.27.527l-2.79 9.384-2.79-9.384c-.09-.21-.18-.316-.27-.527l-.36-.422c-.18-.105-.27-.105-.45-.105h-3.78c-.18 0-.27 0-.45.105-.09.106-.27.211-.27.422-.09.105-.09.316-.09.527v13.601c0 .211 0 .422.09.528.09.21.18.316.27.421.09.106.27.106.45.106h1.71c.18 0 .36 0 .45-.106.09-.105.27-.21.27-.421.09-.106.09-.317.09-.528V55.61l3.33 10.755c.09.21.18.316.27.527.09.105.27.316.45.316.18.106.27.106.45.106h1.26z" fill="#8FD6C2"/><path d="M265.957 43.484c.18 0 .27 0 .45-.105.09-.106.27-.211.36-.422.09-.106.09-.316.09-.527V28.828c0-.21 0-.316-.09-.527-.09-.105-.18-.316-.27-.421-.09-.106-.27-.106-.45-.106h-2.79c-.18 0-.27 0-.45.106-.18.105-.27.21-.45.421-.18.106-.27.317-.36.527l-5.31 10.86v-10.86c0-.21 0-.316-.09-.527-.09-.105-.18-.316-.36-.316-.09-.105-.27-.105-.45-.105h-1.62c-.18 0-.27 0-.45.105-.09.105-.27.21-.27.316-.09.106-.09.317-.09.527V42.43c0 .21 0 .316.09.527.09.105.18.316.27.422.09.105.27.105.45.105h3.06c.18 0 .36 0 .54-.105.18-.106.36-.211.45-.422.18-.106.27-.316.36-.527l4.86-10.122V42.43c0 .21 0 .316.09.527.09.105.18.316.36.422.09.105.27.105.45.105h1.62zm-5.85-19.295c-.36 0-.54-.105-.81-.21a1.195 1.195 0 01-.45-.528c-.09-.21-.18-.316-.27-.421-.09-.106-.27-.106-.36-.106h-.72c-.18 0-.27 0-.36.106-.09.105-.18.21-.18.421 0 .633.18 1.266.36 1.687.27.527.63.844 1.08 1.16.45.211.99.422 1.62.422.63 0 1.17-.106 1.62-.422.45-.21.81-.632 1.08-1.16.27-.527.36-1.054.36-1.687 0-.21 0-.316-.18-.421-.09-.106-.18-.106-.36-.106h-.63c-.18 0-.27 0-.36.106-.09.105-.18.21-.27.421-.09.211-.27.422-.45.527-.18.106-.45.211-.72.211zm-11.071 19.295c.18 0 .27 0 .45-.105.09-.106.27-.211.36-.422.09-.106.09-.316.09-.527V28.828c0-.21 0-.316-.09-.527-.09-.105-.18-.316-.27-.421-.09-.106-.27-.106-.45-.106h-2.79c-.18 0-.27 0-.45.106-.18.105-.27.21-.45.421-.18.106-.27.317-.36.527l-5.31 10.966V28.829c0-.211 0-.317-.09-.528-.09-.105-.18-.316-.36-.316-.09-.105-.27-.105-.45-.105h-1.62c-.18 0-.27 0-.45.105-.09.105-.27.21-.27.316-.09.106-.09.317-.09.527V42.43c0 .21 0 .316.09.527.09.105.18.316.27.422.09.105.27.105.45.105h3.06c.18 0 .36 0 .54-.105.18-.106.36-.211.45-.422.18-.106.27-.316.36-.527l4.86-10.122V42.43c0 .21 0 .316.09.527.09.105.18.316.36.422.09.105.27.105.45.105h1.62zm-25.92 0c.18 0 .27 0 .45-.105.09-.106.27-.211.36-.317.09-.105.09-.316.09-.527v-5.272h1.98c.36 0 .72.106 1.08.317.27.21.54.421.81.738.27.316.45.738.72 1.16l1.62 3.057c.09.21.27.316.36.527.18.106.36.317.54.317.18.105.36.105.54.105h2.16c.18 0 .27 0 .36-.105.09-.106.09-.211.09-.317 0-.105-.09-.316-.18-.527l-2.34-4.323c-.09-.21-.27-.527-.45-.738a2.317 2.317 0 00-.63-.738c-.18-.21-.45-.422-.63-.633-.27-.21-.45-.316-.72-.316a2.79 2.79 0 001.08-.527c.27-.21.54-.527.72-.843l.54-.95 1.98-4.322c.18-.317.18-.527.18-.738-.09-.211-.18-.317-.45-.317h-2.16c-.27 0-.45.106-.72.211-.27.211-.45.422-.63.844l-1.44 3.058c-.27.527-.54.948-.81 1.265-.27.316-.54.527-.81.738-.27.105-.63.21-.99.21h-1.98v-5.271c0-.211 0-.422-.09-.527-.09-.106-.18-.317-.36-.422-.09-.106-.27-.106-.45-.106h-1.71c-.18 0-.27 0-.45.106-.09.105-.27.21-.36.422-.09.21-.09.316-.09.527v13.6c0 .212 0 .423.09.528.09.211.18.316.36.422.09.105.27.105.45.105h1.89v-.316zm-19.711-7.802c0 1.792.27 3.268.81 4.428.54 1.16 1.26 2.003 2.34 2.636.99.527 2.34.843 3.78.843h2.25c.54 0 1.08-.105 1.53-.21a3.65 3.65 0 001.441-.633c.45-.21.9-.527 1.17-.949.36-.422.63-.843.81-1.37.18-.528.27-1.055.27-1.688 0-.21 0-.421-.09-.632-.09-.106-.18-.316-.27-.316-.09-.106-.18-.106-.27-.211h-1.35c-.18 0-.361 0-.541.105-.18.105-.27.21-.45.422-.18.21-.27.422-.36.738-.18.527-.54.949-.9 1.265-.36.316-.81.422-1.44.422h-1.89c-.72 0-1.26-.106-1.71-.211-.45-.21-.81-.422-1.08-.843a3.442 3.442 0 01-.54-1.477c-.09-.632-.18-1.37-.18-2.32 0-.948.09-1.686.18-2.319.09-.632.27-1.16.54-1.476.27-.422.63-.633 1.08-.843.45-.211.99-.211 1.71-.211h1.62c.54 0 1.08.21 1.44.421.36.317.63.739.9 1.266.09.316.27.527.36.738.18.21.27.316.45.422.18.105.36.105.541.105h1.35c.09 0 .18-.105.27-.21l.27-.317c.09-.106.09-.316.09-.633 0-.632-.09-1.16-.27-1.687-.18-.527-.45-.949-.81-1.37-.36-.422-.72-.739-1.171-.95-.45-.21-.9-.421-1.44-.632-.54-.105-.99-.21-1.53-.21h-2.07c-1.53 0-2.79.316-3.78.843-.99.527-1.8 1.476-2.34 2.636-.45 1.16-.72 2.635-.72 4.428zm-2.52-7.908h-10.71c-.18 0-.27 0-.45.106-.09.105-.27.21-.36.316-.09.105-.09.316-.09.527v13.601c0 .211 0 .422.09.527.09.211.18.317.27.422.09.105.27.105.45.105h10.71c.18 0 .27 0 .45-.105.09-.105.27-.21.27-.422.09-.105.09-.316.09-.527V41.27c0-.211 0-.317-.09-.527-.09-.106-.18-.317-.27-.317-.09-.105-.27-.105-.45-.105h-8.1v-3.268h7.02c.18 0 .27 0 .45-.106.09-.105.27-.21.36-.422.09-.105.09-.316.09-.527v-1.054c0-.211 0-.317-.09-.527-.09-.106-.18-.317-.36-.422-.09-.106-.27-.106-.45-.106h-7.02v-3.163h8.1c.18 0 .27 0 .45-.105.09-.105.27-.21.36-.316.09-.106.09-.317.09-.527v-1.055c0-.21 0-.422-.09-.527-.09-.106-.18-.316-.36-.316 0 0-.18-.106-.36-.106zm-27.811 4.745c0 .949.18 1.898.45 2.636.27.738.72 1.37 1.17 1.792.54.422 1.08.843 1.8 1.054.72.211 1.44.317 2.341.317h3.6v4.217c0 .21 0 .316.09.527.09.106.18.317.36.317.09.105.27.105.45.105h1.71c.18 0 .36 0 .45-.105.09-.106.27-.211.36-.422.09-.106.09-.316.09-.527V28.828c0-.21 0-.421-.09-.527-.09-.105-.18-.316-.36-.316-.18-.105-.27-.105-.45-.105h-1.71c-.18 0-.27 0-.45.105-.09.105-.27.21-.36.316-.09.106-.09.317-.09.527v6.327h-3.6c-.72 0-1.261-.211-1.711-.633-.36-.422-.54-1.054-.54-2.003v-3.69c0-.211 0-.422-.09-.528-.09-.105-.18-.316-.36-.316-.09-.105-.27-.105-.45-.105h-1.71c-.18 0-.36 0-.45.105-.18.105-.27.21-.36.422-.09.105-.09.316-.09.527v3.585zm-3.69 10.965c.18 0 .27 0 .45-.105.09-.106.27-.211.36-.422.09-.106.09-.316.09-.527V28.828c0-.21 0-.316-.09-.527-.09-.105-.18-.316-.27-.421-.09-.106-.27-.106-.45-.106h-2.79c-.18 0-.27 0-.45.106-.18.105-.27.21-.45.421-.18.106-.27.317-.36.527l-5.31 10.966V28.829c0-.211 0-.317-.09-.528-.09-.105-.18-.316-.36-.316-.09-.105-.27-.105-.45-.105h-1.71c-.18 0-.27 0-.45.105-.09.105-.27.21-.27.316-.09.106-.09.317-.09.527V42.43c0 .21 0 .316.09.527.09.105.18.316.27.422.09.105.27.105.45.105h3.06c.18 0 .36 0 .54-.105.18-.106.36-.211.45-.422.18-.106.27-.316.36-.527l4.86-10.122V42.43c0 .21 0 .316.09.527.09.105.18.316.36.422.09.105.27.105.45.105h1.71zm-19.62-.949c0 .21 0 .316.09.527.09.106.18.317.36.317.09.105.27.105.45.105h1.71c.18 0 .36 0 .45-.105.09-.106.27-.211.36-.422.09-.106.09-.316.09-.527V28.828c0-.21 0-.421-.09-.527-.09-.105-.18-.316-.36-.316-.18-.105-.27-.105-.45-.105h-1.71c-.18 0-.27 0-.45.105-.09.105-.27.21-.36.316-.09.106-.09.317-.09.527v4.956h-6.39v-4.956c0-.21 0-.421-.09-.527-.09-.105-.18-.316-.36-.316-.09-.105-.27-.105-.45-.105h-1.711c-.18 0-.36 0-.45.105-.18.105-.27.21-.36.316-.09.106-.09.317-.09.527V42.43c0 .21 0 .316.09.527.09.105.18.316.36.422.09.105.27.105.45.105h1.711c.18 0 .27 0 .45-.105.09-.106.27-.211.36-.317.09-.105.09-.316.09-.527v-5.588h6.39v5.588zm-14.131.949c.18 0 .27 0 .45-.105.09-.106.27-.211.36-.422.09-.106.09-.316.09-.527V28.828c0-.21 0-.316-.09-.527-.09-.105-.18-.316-.27-.421-.09-.106-.27-.106-.45-.106h-2.79c-.18 0-.27 0-.45.106-.18.105-.27.21-.45.421-.18.106-.27.317-.36.527l-5.31 10.966V28.829c0-.211 0-.317-.09-.528-.09-.105-.18-.316-.36-.316-.09-.105-.27-.105-.45-.105h-1.62c-.18 0-.27 0-.45.105-.09.105-.27.21-.27.316-.09.106-.09.317-.09.527V42.43c0 .21 0 .316.09.527.09.105.18.316.27.422.09.105.27.105.45.105h3.06c.18 0 .36 0 .54-.105.18-.106.36-.211.45-.422.18-.106.27-.316.36-.527l4.86-10.122V42.43c0 .21 0 .316.09.527.09.105.18.316.36.422.09.105.27.105.45.105h1.62zm-16.11-1.054V28.828c0-.21 0-.316-.09-.527-.09-.105-.18-.316-.27-.421-.09-.106-.27-.106-.36-.106h-4.68c-.72 0-1.35 0-1.98.211-.63.105-1.26.316-1.8.633-.54.316-1.08.738-1.44 1.265-.45.527-.72 1.265-.9 2.109l-2.34 10.543v.422c0 .105.09.21.27.316.09.105.27.105.36.105h1.89c.18 0 .36 0 .45-.105.18-.105.27-.21.36-.316.09-.106.18-.316.27-.527l2.16-9.384c.09-.422.27-.843.54-1.16.27-.316.54-.633.81-.738.36-.21.72-.316 1.08-.316h2.25V42.43c0 .21 0 .421.09.527.09.105.18.316.36.316.09.105.27.105.45.105h1.8c.18 0 .27 0 .45-.105.09-.105.27-.21.27-.316v-.527zm-26.1 1.054c.18 0 .27 0 .45-.105.09-.106.27-.211.36-.317.09-.105.09-.316.09-.527v-5.272h1.98c.36 0 .72.106 1.08.317.27.21.54.421.81.738.27.316.45.738.72 1.16l1.619 3.057c.09.21.27.316.36.527.18.106.36.317.54.317.18.105.36.105.54.105h2.161c.18 0 .27 0 .36-.105.09-.106.09-.211.09-.317 0-.105-.09-.316-.18-.527l-2.341-4.323c-.09-.21-.27-.527-.45-.738a2.317 2.317 0 00-.63-.738c-.18-.21-.45-.422-.63-.633-.27-.21-.45-.316-.72-.316.45-.105.81-.316 1.08-.527.27-.21.54-.527.72-.843l.54-.95 1.981-4.322c.18-.317.18-.527.18-.738-.09-.211-.18-.317-.45-.317h-1.981c-.27 0-.45.106-.72.211-.27.211-.45.422-.63.844l-1.44 3.058c-.27.527-.54.948-.81 1.265-.27.316-.54.527-.81.738-.27.105-.63.21-.99.21h-1.98v-5.271c0-.211 0-.422-.09-.527-.09-.106-.18-.317-.36-.422-.09-.106-.27-.106-.45-.106h-1.8c-.18 0-.27 0-.45.106-.09.105-.27.21-.36.422-.09.21-.09.316-.09.527v13.6c0 .212 0 .423.09.528.09.211.18.316.36.422.09.105.27.105.45.105h1.8v-.316zm92.522-21.931c.18 0 .27 0 .45-.105.09-.105.27-.21.36-.422.09-.105.09-.316.09-.527V7.004c0-.211 0-.317-.09-.528-.09-.105-.18-.316-.27-.421-.09-.106-.27-.106-.45-.106h-2.79c-.18 0-.27 0-.45.106-.18.105-.36.21-.45.421-.18.106-.27.317-.36.528l-5.31 10.965V6.899c0-.212 0-.317-.09-.528-.09-.106-.18-.316-.36-.316-.09-.106-.27-.106-.45-.106h-1.62c-.18 0-.36 0-.45.106-.09.105-.27.21-.27.316-.09.105-.09.316-.09.527V20.5c0 .211 0 .317.09.527.09.106.18.317.27.422.09.105.27.105.45.105h3.06c.18 0 .36 0 .54-.105.18-.105.36-.21.45-.422.18-.105.27-.316.36-.527l4.86-10.122V20.5c0 .211 0 .317.09.527.09.106.18.317.36.422.09.105.27.105.45.105h1.62zm-5.94-19.294c-.36 0-.54-.105-.81-.21a1.195 1.195 0 01-.45-.528c-.09-.211-.18-.316-.27-.422 0-.21-.18-.21-.36-.21h-.72c-.18 0-.27 0-.36.105-.09.105-.18.21-.18.421 0 .633.18 1.266.36 1.687.27.528.63.844 1.08 1.16.45.211.99.422 1.62.422.63 0 1.17-.105 1.62-.422.45-.21.81-.632 1.08-1.16.27-.527.36-1.054.36-1.687 0-.21 0-.316-.18-.421.09-.106 0-.106-.18-.106h-.72c-.18 0-.27 0-.36.106-.09.105-.18.21-.27.421a1.2 1.2 0 01-.45.528c-.18.21-.45.316-.81.316zm-13.05 18.346c0 .21 0 .316.09.527.09.105.18.316.36.316.09.105.27.105.45.105h1.8c.18 0 .36 0 .45-.105.09-.105.27-.21.36-.422.09-.105.09-.316.09-.527V6.9c0-.212 0-.423-.09-.528-.09-.106-.18-.316-.36-.422-.18-.105-.27-.105-.45-.105h-1.8c-.18 0-.27 0-.45.105-.09.106-.27.211-.36.422-.09.105-.09.316-.09.527v13.707zm-10.801-9.384V6.898c0-.21 0-.422-.09-.527-.09-.106-.18-.316-.36-.422-.09-.105-.27-.105-.45-.105h-1.8c-.18 0-.36 0-.45.105-.09.106-.27.211-.27.422-.09.105-.09.316-.09.527V20.5c0 .211 0 .317.09.527.09.106.18.317.27.422.09.105.27.105.45.105h6.48c.72 0 1.35-.105 1.98-.316a4.34 4.34 0 001.62-.949c.45-.421.81-.949 1.08-1.581.27-.633.36-1.37.36-2.214 0-.844-.18-1.582-.36-2.214a4.615 4.615 0 00-1.08-1.582 4.355 4.355 0 00-1.62-.949 6.063 6.063 0 00-1.98-.316h-3.78v-.211zm3.87 3.163c.54 0 .9.21 1.17.527.27.316.36.844.36 1.582 0 .632-.09 1.16-.36 1.581-.27.316-.63.527-1.17.527h-3.87V14.49h3.87v-.105zm-14.31.527c.36 0 .63.106.81.211.18.105.36.422.54.633.09.316.18.632.18.948 0 .317-.09.739-.18.95-.09.316-.27.527-.54.632-.18.105-.54.21-.81.21h-5.31V14.7h5.31v.211zm-.27-6.01c.36 0 .72.106.9.422.27.316.36.633.36 1.16 0 .527-.09.949-.36 1.16-.27.316-.54.421-.9.421h-5.04V8.901h5.04zm-8.55 11.704c0 .21 0 .316.09.527.09.105.18.316.27.421.09.106.27.106.45.106h8.01c.54 0 .99-.105 1.53-.21.45-.106.9-.317 1.35-.528.45-.211.81-.527 1.08-.949.27-.422.54-.844.72-1.265.18-.527.27-1.055.27-1.687 0-.527-.09-.95-.18-1.37-.09-.423-.36-.844-.63-1.266a2.957 2.957 0 00-.99-.949c.27-.316.54-.633.72-.949.18-.316.36-.633.36-.949.09-.316.09-.632.09-1.054 0-.633-.09-1.265-.27-1.687a3.885 3.885 0 00-.72-1.265c-.36-.317-.72-.633-1.08-.844-.45-.21-.81-.422-1.35-.527-.45-.105-.9-.105-1.44-.105h-7.56c-.18 0-.36 0-.45.105-.09.105-.27.21-.27.422-.09.105-.09.316-.09.527v13.496h.09zM122.403 5.949c-.18 0-.27 0-.45.106-.09.105-.27.21-.27.316-.09.105-.09.316-.09.527V20.5c0 .211 0 .317.09.527.09.106.18.317.36.422.09.105.27.105.45.105h1.8c.18 0 .27 0 .45-.105.09-.105.27-.21.27-.422.09-.105.09-.316.09-.527v-2.425h4.501c1.17 0 2.16-.21 3.06-.632.81-.422 1.44-1.055 1.89-2.004.45-.949.63-2.003.63-3.479 0-1.37-.27-2.53-.63-3.48-.45-.948-1.08-1.58-1.89-2.003-.81-.421-1.89-.632-3.06-.632h-7.201v.105zm6.031 3.058c.45 0 .9 0 1.26.105.36.106.72.211.99.422.27.21.54.527.63.949.18.422.27.949.27 1.581 0 .633-.09 1.16-.27 1.582-.18.422-.36.738-.63.949-.27.21-.63.316-.99.422-.36.105-.81.105-1.26.105h-3.331V9.007h3.331zm-9.451-3.058h-10.8c-.18 0-.27 0-.45.106-.09.105-.27.21-.36.316-.09.105-.09.316-.09.527V20.5c0 .211 0 .422.09.527.09.211.18.317.27.422.09.105.27.105.45.105h10.71c.18 0 .36 0 .45-.105.09-.105.27-.21.27-.422.09-.105.09-.316.09-.527v-1.054c0-.211 0-.317-.09-.527-.09-.106-.18-.317-.27-.317-.09-.105-.27-.105-.45-.105h-8.1v-3.269h7.02c.18 0 .27 0 .45-.105.09-.105.27-.21.36-.422.09-.105.09-.316.09-.527V13.12c0-.211 0-.317-.09-.527-.09-.106-.18-.317-.36-.422-.09-.106-.27-.106-.45-.106h-7.02V8.901h8.1c.18 0 .27 0 .45-.105.09-.106.27-.211.36-.316.09-.106.09-.317.09-.528V6.898c0-.21 0-.422-.09-.527-.09-.106-.18-.316-.36-.316 0-.106-.09-.106-.27-.106zm-15.21 15.605c.18 0 .36 0 .45-.106.09-.105.27-.21.36-.422.09-.105.09-.316.09-.527V6.9c0-.212 0-.423-.09-.528-.09-.106-.18-.316-.36-.316-.09-.106-.27-.106-.45-.106h-12.15c-.18 0-.27 0-.45.106-.09.105-.27.21-.27.316-.09.105-.09.316-.09.527V20.5c0 .211 0 .317.09.527.09.106.18.317.27.422.09.105.27.105.45.105h1.8c.18 0 .27 0 .45-.105.09-.105.27-.21.36-.422.09-.105.09-.316.09-.527V8.901h6.84V20.5c0 .211 0 .317.09.527.09.106.18.317.36.422.09.105.27.105.45.105h1.71z" fill="#477A6A"/><path fill-rule="evenodd" clip-rule="evenodd" d="M38.431 61.513C29.971 47.913 16.291 39.161.9 39.161c-.63 3.058-.9 6.22-.9 9.384 0 3.163.27 6.326.81 9.383H.9c14.13 0 26.1 11.282 29.52 26.57 1.17-8.33 3.96-16.237 8.011-22.985z" fill="#BCE3D7"/><path fill-rule="evenodd" clip-rule="evenodd" d="M31.411 93.882c0-18.135 7.47-34.161 19.08-44.072 5.85 4.745 12.601 8.013 19.801 9.384-13.14 4.006-22.77 18.03-22.77 34.688-2.61.632-5.22.949-8.01.949s-5.49-.317-8.1-.95z" fill="#8FD6C2"/><path fill-rule="evenodd" clip-rule="evenodd" d="M40.411 35.683c8.46 13.496 22.14 22.247 37.621 22.247.54-3.058.81-6.22.81-9.384 0-3.163-.27-6.326-.81-9.384h-.09c-14.13 0-26.1-11.281-29.52-26.57-1.17 8.436-3.87 16.238-8.01 23.091z" fill="#69AF96"/><path fill-rule="evenodd" clip-rule="evenodd" d="M47.522 3.314c0 18.134-7.47 34.16-19.081 44.071-5.76-4.744-12.51-8.013-19.71-9.383C21.78 33.995 31.5 19.972 31.5 3.314c2.61-.633 5.22-.95 8.01-.95 2.7 0 5.4.317 8.01.95z" fill="#477A6A"/></svg>