<svg width="28" height="28" fill="none" xmlns="http://www.w3.org/2000/svg"><path d="M23.898 4.099C18.43-1.367 9.566-1.366 4.099 4.102c-5.466 5.468-5.465 14.332.003 19.799 5.468 5.466 14.332 5.465 19.799-.003a14 14 0 00-.003-19.799zm-2.695 15.403l-.002.002v-.005l-.71.705a3.733 3.733 0 01-3.523 1.008 12.405 12.405 0 01-3.603-1.615 16.645 16.645 0 01-2.842-2.291A16.774 16.774 0 018.4 14.73a13.065 13.065 0 01-1.596-3.23 3.733 3.733 0 01.933-3.812l.831-.83a.593.593 0 01.838-.003l.002.002 2.623 2.623c.232.23.232.606.002.838l-.002.002-1.54 1.54a1.255 1.255 0 00-.131 1.633 18.001 18.001 0 001.843 2.151c.747.75 1.56 1.433 2.427 2.04.501.35 1.18.29 1.615-.14l1.488-1.512a.593.593 0 01.838-.002l.002.002 2.628 2.632c.232.23.232.606.002.838z" fill="#00CEA9"/></svg>