<svg width="135" height="47" fill="none" xmlns="http://www.w3.org/2000/svg"><path d="M82.644 37.418a2.08 2.08 0 00-.949-.995c-.406-.21-.949-.315-1.536-.315h-3.57c-.09 0-.135 0-.226.053-.045.052-.135.104-.135.157-.045.052-.045.157-.045.262v6.76c0 .105 0 .157.045.262.045.053.09.157.18.21.046.052.136.052.227.052h.903c.09 0 .136 0 .226-.052.045-.053.136-.105.136-.21.045-.052.045-.157.045-.262v-1.205h2.259c.587 0 1.085-.105 1.536-.315a2.08 2.08 0 00.95-.995c.225-.472.316-.996.316-1.73 0-.681-.136-1.258-.362-1.677zm-1.536 2.463c-.09.21-.181.367-.317.472-.135.105-.316.157-.497.21-.18.052-.406.052-.632.052h-1.717v-2.987h1.717c.226 0 .452 0 .632.052.181.053.362.105.497.21a.829.829 0 01.317.472c.09.21.135.471.135.786-.045.262-.045.524-.135.733zm-12.109-3.773c-.09 0-.181 0-.227.053-.045.052-.135.104-.135.157-.045.052-.045.157-.045.262v.524c0 .105 0 .21.045.262.045.052.09.157.135.157.046.052.136.052.227.052h2.078v5.765c0 .105 0 .157.045.262.045.053.09.157.18.157.046.053.136.053.227.053h.904c.09 0 .135 0 .225-.053.046-.052.136-.104.181-.157.045-.052.045-.157.045-.262v-5.765h2.079c.09 0 .18 0 .226-.052.045-.052.135-.105.135-.157.046-.053.046-.157.046-.262v-.524c0-.105 0-.21-.046-.262-.045-.053-.09-.157-.135-.157-.045-.053-.136-.053-.226-.053h-5.964zm-2.983 7.284c0 .105 0 .157.045.262.046.052.09.157.181.157.045.053.136.053.226.053h.858c.09 0 .181 0 .227-.053.045-.052.135-.105.18-.21.045-.052.045-.157.045-.261v-6.76c0-.106 0-.21-.045-.263-.045-.052-.09-.157-.18-.21-.09-.052-.136-.052-.227-.052h-.858a.36.36 0 00-.226.053c-.045.052-.135.104-.18.21-.046.052-.046.156-.046.261v2.463h-3.208V36.58c0-.105 0-.21-.045-.262-.045-.052-.09-.157-.18-.21-.046-.052-.136-.052-.227-.052h-.858c-.09 0-.181 0-.226.053a.386.386 0 00-.18.21c-.046.052-.046.156-.046.261v6.76c0 .105 0 .158.045.263.045.052.09.157.18.21.046.052.136.052.227.052h.858c.09 0 .136 0 .226-.053.045-.052.136-.105.18-.157.046-.053.046-.157.046-.262v-2.778h3.208v2.778zm-6.28-7.284h-5.422a.36.36 0 00-.226.053c-.045.052-.135.104-.18.157-.046.052-.046.157-.046.262v6.76c0 .105 0 .21.045.262.046.105.09.157.136.21.045.052.136.052.226.052h5.377c.09 0 .18 0 .226-.052.045-.053.135-.105.135-.21.046-.052.046-.157.046-.262v-.524c0-.105 0-.157-.046-.262-.045-.052-.09-.157-.135-.157-.045-.053-.136-.053-.226-.053h-4.067V40.72h3.525c.09 0 .135 0 .226-.053.045-.052.135-.104.18-.21.046-.052.046-.156.046-.261v-.524c0-.105 0-.157-.046-.262-.045-.053-.09-.157-.18-.21-.046-.052-.136-.052-.226-.052h-3.525v-1.573h4.067c.09 0 .136 0 .226-.052.045-.052.135-.105.18-.157.046-.053.046-.157.046-.262v-.524c0-.105 0-.21-.045-.262-.046-.053-.09-.157-.181-.157 0-.053-.045-.053-.136-.053zm-6.959 7.756c.09 0 .135 0 .226-.053.045-.052.135-.105.18-.21.045-.052.045-.157.045-.261v-.524c0-.105 0-.21-.045-.262-.045-.053-.09-.158-.18-.158-.046-.052-.136-.052-.226-.052h-.497v-5.765c0-.105 0-.21-.046-.262-.045-.052-.09-.157-.18-.157-.046-.052-.136-.052-.226-.052h-.904c-.09 0-.136 0-.226.052-.045.053-.135.105-.18.157-.046.053-.046.157-.046.262v5.765H47.31v-5.765c0-.105 0-.21-.045-.262-.045-.052-.09-.157-.18-.157-.046-.052-.136-.052-.227-.052h-.903c-.09 0-.136 0-.226.052-.045.053-.136.105-.18.157-.046.053-.046.157-.046.262v6.76c0 .105 0 .158.045.263.045.052.09.157.18.21.046.052.136.052.227.052h6.823zm81.015-10.848c.09 0 .135 0 .226-.052.045-.053.135-.105.181-.21.045-.052.045-.157.045-.262v-6.76c0-.105 0-.158-.045-.262-.046-.053-.091-.158-.136-.21-.045-.053-.136-.053-.226-.053h-1.446c-.09 0-.135 0-.226.053-.09.052-.18.105-.226.21-.09.052-.135.157-.18.262l-2.666 5.45v-5.45c0-.105 0-.158-.045-.262-.046-.053-.091-.158-.181-.158-.045-.052-.136-.052-.226-.052h-.813c-.091 0-.181 0-.226.052-.046.053-.136.105-.136.157-.045.053-.045.158-.045.262v6.76c0 .106 0 .158.045.263.045.052.09.157.136.21.045.052.135.052.226.052h1.536c.09 0 .181 0 .271-.052.09-.053.181-.105.226-.21.09-.052.135-.157.181-.262l2.44-5.031v5.03c0 .106 0 .158.045.263.045.052.09.157.181.21.045.052.135.052.225.052h.859zm-2.982-9.591c-.181 0-.271-.052-.407-.104a.603.603 0 01-.226-.262.717.717 0 00-.135-.21c-.045-.052-.136-.052-.181-.052h-.361c-.091 0-.136 0-.181.052-.045.052-.09.105-.09.21 0 .314.09.628.18.838.136.262.317.42.542.577.226.104.498.21.814.21.316 0 .587-.053.813-.21.226-.105.407-.315.542-.577.136-.262.181-.524.181-.838 0-.105 0-.158-.09-.21-.045-.052-.091-.052-.181-.052h-.361c-.091 0-.136 0-.181.052-.045.052-.091.105-.136.21a.59.59 0 01-.226.262c-.045.052-.18.104-.316.104zm-5.197 9.591c.09 0 .135 0 .226-.052.045-.053.135-.105.181-.21.045-.052.045-.157.045-.262v-6.76c0-.105 0-.158-.045-.262-.046-.053-.091-.158-.136-.21-.045-.053-.136-.053-.226-.053h-1.401c-.09 0-.135 0-.226.053-.09.052-.18.105-.225.21-.091.052-.136.157-.181.262l-2.666 5.45v-5.45c0-.105 0-.158-.045-.262-.045-.053-.091-.158-.181-.158-.045-.052-.136-.052-.226-.052h-.813c-.091 0-.181 0-.226.052-.045.053-.136.105-.136.157-.045.053-.045.158-.045.262v6.76c0 .106 0 .158.045.263.045.052.091.157.136.21.045.052.135.052.226.052h1.536c.09 0 .181 0 .271-.052.091-.053.181-.105.226-.21.09-.052.136-.157.181-.262l2.44-5.031v5.03c0 .106 0 .158.045.263.045.052.09.157.181.21.045.052.135.052.226.052h.813zm-12.696 0c.09 0 .136 0 .226-.052.045-.053.136-.105.181-.158.045-.052.045-.157.045-.262v-2.62h.994c.181 0 .361.052.542.157.136.105.271.21.407.367.135.157.226.367.361.576l.814 1.52c.045.105.135.21.18.262.091.053.181.158.271.158a.506.506 0 00.272.052h1.084c.09 0 .136 0 .181-.052.045-.053.045-.105.045-.158 0-.052-.045-.157-.09-.262l-1.175-2.148a1.62 1.62 0 00-.226-.367 1.17 1.17 0 00-.316-.367c-.091-.105-.226-.21-.317-.314-.135-.105-.226-.158-.361-.158a1.408 1.408 0 00.903-.681l.272-.472 1.039-2.148c.09-.157.09-.262.09-.367-.045-.105-.09-.157-.226-.157h-1.084c-.136 0-.226.052-.362.105a.94.94 0 00-.316.419l-.678 1.362a3.275 3.275 0 01-.406.63 2.572 2.572 0 01-.407.366 1.428 1.428 0 01-.497.105h-.994v-2.62c0-.105 0-.21-.045-.262-.045-.053-.091-.158-.181-.21-.045-.053-.136-.053-.226-.053h-.904c-.09 0-.135 0-.226.053-.045.052-.135.105-.18.21-.045.104-.045.157-.045.262v6.76c0 .105 0 .21.045.262.045.105.09.157.18.21.046.052.136.052.226.052h.904zm-9.535-3.878c0 .89.135 1.624.406 2.2.272.577.633.997 1.175 1.311.497.262 1.175.42 1.898.42h1.13c.271 0 .542-.053.768-.106.271-.052.497-.157.723-.314.226-.105.452-.262.632-.472.181-.21.317-.419.407-.68a2.49 2.49 0 00.136-.84c0-.104 0-.209-.046-.314-.045-.052-.09-.157-.135-.157-.045-.052-.091-.052-.181-.105h-.678c-.09 0-.18 0-.271.053a.817.817 0 00-.226.21.887.887 0 00-.18.366 1.522 1.522 0 01-.452.629c-.181.157-.407.21-.723.21h-.949c-.362 0-.633-.053-.859-.105-.226-.105-.406-.21-.542-.42a1.704 1.704 0 01-.271-.733 7.74 7.74 0 01-.09-1.153c0-.472.045-.839.09-1.153.045-.315.136-.577.271-.734.136-.21.316-.314.542-.419.226-.105.497-.105.859-.105h.813c.271 0 .542.105.723.21.181.157.316.367.452.629.045.157.136.262.181.367.09.104.135.157.226.21.09.052.18.052.271.052h.678c.045 0 .09-.053.18-.105.045-.053.091-.105.136-.21.045-.052.045-.157.045-.314 0-.315-.045-.577-.136-.839a2.016 2.016 0 00-.406-.681c-.181-.21-.362-.367-.633-.472-.226-.105-.452-.21-.723-.314-.271-.053-.497-.105-.768-.105h-1.039c-.768 0-1.401.157-1.898.42-.497.261-.904.733-1.175 1.31-.226.628-.361 1.362-.361 2.253zm-2.754 3.406c0 .105 0 .158.045.262.045.053.09.158.18.158.046.052.136.052.226.052h.859c.09 0 .181 0 .226-.052.045-.053.135-.105.181-.21.045-.052.045-.157.045-.262v-6.76c0-.105 0-.21-.045-.262-.046-.053-.091-.158-.181-.21-.091-.053-.136-.053-.226-.053h-.859c-.09 0-.135 0-.226.053-.045.052-.135.105-.18.21-.045.052-.045.157-.045.262v2.463h-3.209v-2.463c0-.105 0-.21-.045-.262-.045-.053-.09-.158-.18-.21-.046-.053-.136-.053-.226-.053h-.859c-.09 0-.18 0-.226.053a.386.386 0 00-.18.21c-.046.052-.046.157-.046.262v6.76c0 .105 0 .157.045.262.046.052.09.157.181.21.045.052.136.052.226.052h.859c.09 0 .135 0 .225-.052.046-.053.136-.105.181-.158.045-.052.045-.157.045-.262v-2.777h3.209v2.777zm-6.733.472c.09 0 .136 0 .226-.052.045-.053.136-.105.18-.21.046-.052.046-.157.046-.262v-6.76c0-.105 0-.158-.045-.262-.045-.053-.09-.158-.136-.21-.045-.053-.135-.053-.226-.053h-1.4c-.09 0-.136 0-.226.053-.09.052-.181.105-.226.21-.09.052-.136.157-.181.262l-2.666 5.45v-5.45c0-.105 0-.158-.045-.262-.045-.053-.09-.158-.18-.158-.046-.052-.136-.052-.227-.052h-.813c-.09 0-.18 0-.226.052-.045.053-.135.105-.135.157-.046.053-.046.158-.046.262v6.76c0 .106 0 .158.046.263.045.052.09.157.135.21.045.052.136.052.226.052h1.536c.09 0 .181 0 .271-.052.09-.053.181-.105.226-.21.09-.052.136-.157.181-.262l2.44-5.031v5.03c0 .106 0 .158.045.263.045.052.09.157.18.21.046.052.136.052.227.052h.813zm-7.502 0c.09 0 .136 0 .226-.052.045-.053.136-.105.18-.21.046-.053.046-.157.046-.262v-.524c0-.105 0-.21-.045-.262-.045-.053-.09-.157-.18-.157-.046-.053-.136-.053-.227-.053h-.542v-5.764c0-.105 0-.21-.045-.263-.046-.052-.09-.157-.181-.157-.045-.052-.136-.052-.226-.052h-.904c-.09 0-.135 0-.226.052-.045.053-.135.105-.18.157-.046.053-.046.158-.046.262v5.765h-3.162v-5.764c0-.105 0-.21-.046-.263-.045-.052-.09-.157-.18-.157-.046-.052-.136-.052-.226-.052h-.904c-.09 0-.136 0-.226.052-.045.053-.135.105-.18.157-.046.053-.046.158-.046.262v6.76c0 .106 0 .158.045.263.046.052.09.157.181.21.045.052.136.052.226.052h6.868zm-8.991 0c.09 0 .136 0 .226-.052.045-.053.135-.105.18-.21.046-.052.046-.157.046-.262v-6.76c0-.105 0-.158-.045-.262-.046-.053-.09-.158-.136-.21-.045-.053-.135-.053-.226-.053h-1.4c-.09 0-.136 0-.227.053-.09.052-.18.105-.225.21-.09.052-.136.157-.181.262l-2.666 5.45v-5.45c0-.105 0-.158-.045-.262-.045-.053-.09-.158-.18-.158-.046-.052-.136-.052-.227-.052h-.813c-.09 0-.18 0-.226.052-.045.053-.136.105-.136.157-.045.053-.045.158-.045.262v6.76c0 .106 0 .158.045.263.046.052.09.157.136.21.045.052.135.052.226.052h1.536c.09 0 .18 0 .271-.052.09-.053.18-.105.226-.21.09-.052.136-.157.18-.262l2.44-5.031v5.03c0 .106 0 .158.046.263.045.052.09.157.18.21.046.052.136.052.227.052h.813zM69.63 25.47c-.046-.053-.09-.158-.181-.158-.045-.052-.136-.052-.226-.052h-2.53c-.362 0-.678.052-.994.105a2.702 2.702 0 00-.904.314 2.833 2.833 0 00-.723.629 3.01 3.01 0 00-.452 1.048l-.858 4.14H62.4c-.09 0-.136 0-.226.053-.045.052-.135.104-.18.157-.046.052-.046.157-.046.262v.524c0 .105 0 .157.045.262.046.052.09.157.181.21.045.052.136.052.226.052h6.823c.09 0 .136 0 .226-.052.045-.053.135-.105.18-.158.046-.052.046-.157.046-.262v-6.812c0-.105-.045-.158-.045-.263zm-1.717 6.026h-3.299l.768-3.668c.045-.21.136-.42.226-.577.09-.157.226-.262.362-.367.135-.104.316-.157.542-.157h1.4v4.77zm-6.552-6.289H55.94a.36.36 0 00-.226.053c-.045.052-.135.105-.18.157-.046.052-.046.157-.046.262v6.813c0 .105 0 .21.045.262.046.105.09.157.136.21.045.052.136.052.226.052h5.377c.09 0 .18 0 .226-.052.045-.053.135-.105.135-.21.046-.052.046-.157.046-.262v-.524c0-.105 0-.157-.046-.262-.045-.053-.09-.157-.135-.157-.045-.053-.136-.053-.226-.053h-4.067v-1.624h3.525c.09 0 .135 0 .226-.053.045-.052.135-.105.18-.21.046-.052.046-.157.046-.262v-.524c0-.104 0-.157-.046-.262-.045-.052-.09-.157-.18-.21-.046-.052-.136-.052-.226-.052h-3.525v-1.572h4.067c.09 0 .136 0 .226-.052.045-.053.135-.105.18-.157.046-.053.046-.158.046-.262v-.524c0-.105 0-.21-.045-.262-.046-.053-.09-.158-.181-.158 0-.052-.09-.105-.136-.105zm-11.16 7.809c.09 0 .181 0 .226-.052.09-.053.136-.105.226-.158.045-.052.09-.157.136-.262L52.46 27.2v5.293c0 .105 0 .21.045.262.045.105.09.157.135.21.046.052.136.052.226.052h.859c.09 0 .18 0 .226-.052.045-.053.135-.105.135-.21.045-.052.045-.157.045-.262v-6.76c0-.105 0-.21-.045-.262a.717.717 0 00-.135-.21c-.045-.053-.136-.053-.226-.053h-1.898c-.09 0-.18 0-.226.053a.386.386 0 00-.18.21c-.046.052-.091.157-.136.262l-1.401 4.664-1.4-4.665c-.046-.104-.091-.157-.136-.262l-.181-.21c-.09-.052-.136-.052-.226-.052h-1.898c-.09 0-.135 0-.226.053-.045.052-.135.105-.135.21-.045.052-.045.157-.045.262v6.76c0 .105 0 .21.045.262.045.105.09.157.135.21.046.052.136.052.226.052h.859c.09 0 .18 0 .226-.052.045-.053.135-.105.135-.21.045-.052.045-.157.045-.262V27.2l1.672 5.345c.045.105.09.158.136.262.045.053.136.158.226.158a.36.36 0 00.226.052h.632z" fill="#8FD6C2"/><path d="M133.521 21.172c.09 0 .136 0 .226-.053.045-.052.136-.104.181-.21.045-.051.045-.156.045-.261v-6.76c0-.105 0-.158-.045-.262-.045-.053-.091-.158-.136-.21-.045-.053-.135-.053-.226-.053h-1.4c-.091 0-.136 0-.226.053-.091.052-.136.105-.226.21-.091.052-.136.157-.181.261l-2.666 5.398v-5.398c0-.104 0-.157-.045-.261-.045-.053-.09-.158-.181-.158-.045-.052-.135-.052-.226-.052h-.813c-.09 0-.136 0-.226.052-.045.053-.136.105-.136.158-.045.052-.045.157-.045.261v6.76c0 .106 0 .158.045.263.046.052.091.157.136.21.045.052.136.052.226.052h1.536c.091 0 .181 0 .271-.053.091-.052.181-.104.226-.21.091-.051.136-.156.181-.261l2.44-5.031v5.03c0 .106 0 .158.045.263.045.052.09.157.181.21.045.052.135.052.226.052h.813zm-2.937-9.59c-.181 0-.271-.053-.407-.105a.595.595 0 01-.225-.262c-.046-.105-.091-.157-.136-.21-.045-.052-.136-.052-.181-.052h-.361c-.091 0-.136 0-.181.052-.045.053-.09.105-.09.21 0 .314.09.629.18.838.136.262.317.42.543.577.226.105.497.21.813.21.316 0 .587-.053.813-.21.226-.105.407-.315.542-.577.136-.262.181-.524.181-.838 0-.105 0-.157-.09-.21-.045-.052-.091-.052-.181-.052h-.316c-.091 0-.136 0-.181.052-.045.053-.09.105-.135.21a.603.603 0 01-.226.262.763.763 0 01-.362.105zm-5.558 9.59c.091 0 .136 0 .226-.053.046-.052.136-.104.181-.21.045-.051.045-.156.045-.261v-6.76c0-.105 0-.158-.045-.262-.045-.053-.09-.158-.135-.21-.046-.053-.136-.053-.226-.053h-1.401c-.09 0-.136 0-.226.053a.825.825 0 00-.226.21c-.09.052-.136.157-.181.261l-2.666 5.45v-5.45c0-.104 0-.157-.045-.261-.045-.053-.09-.158-.181-.158-.045-.052-.135-.052-.225-.052h-.814c-.09 0-.135 0-.226.052-.045.053-.135.105-.135.158-.045.052-.045.157-.045.261v6.76c0 .106 0 .158.045.263.045.052.09.157.135.21.046.052.136.052.226.052h1.537c.09 0 .18 0 .271-.053.09-.052.18-.104.226-.21.09-.051.135-.156.18-.261l2.44-5.031v5.03c0 .106 0 .158.045.263.046.052.091.157.181.21.045.052.136.052.226.052h.813zm-13.013 0c.091 0 .136 0 .226-.053.045-.052.136-.104.181-.157.045-.052.045-.157.045-.262v-2.62h.994c.181 0 .362.052.542.157.136.105.271.21.407.367.136.157.226.367.362.576l.813 1.52c.045.105.135.158.181.262.09.053.18.157.271.157.09.053.18.053.271.053h1.084c.091 0 .136 0 .181-.053.045-.052.045-.104.045-.157 0-.052-.045-.157-.09-.262l-1.175-2.148a1.618 1.618 0 00-.226-.367 1.157 1.157 0 00-.316-.367c-.091-.105-.226-.21-.317-.315-.135-.104-.225-.157-.361-.157a1.4 1.4 0 00.542-.262 1.5 1.5 0 00.362-.419l.271-.472.994-2.148c.09-.158.09-.262.09-.367-.045-.105-.09-.157-.226-.157h-1.084c-.136 0-.226.052-.362.104a.94.94 0 00-.316.42l-.723 1.52a3.22 3.22 0 01-.407.628c-.135.158-.271.262-.406.367a1.428 1.428 0 01-.497.105h-.994v-2.62c0-.105 0-.21-.045-.262-.046-.053-.091-.157-.181-.21-.045-.052-.136-.052-.226-.052h-.859c-.09 0-.135 0-.226.052-.045.053-.135.105-.18.21-.045.104-.045.157-.045.262v6.76c0 .105 0 .21.045.262.045.105.09.157.18.21.046.052.136.052.226.052h.949v-.157zm-9.895-3.878c0 .89.135 1.625.407 2.201.271.576.632.996 1.174 1.31.497.262 1.175.42 1.898.42h1.13c.271 0 .542-.053.768-.106.271-.052.497-.157.723-.314.226-.105.452-.262.587-.471.181-.21.316-.42.407-.682a2.49 2.49 0 00.135-.838c0-.105 0-.21-.045-.315-.045-.052-.09-.157-.135-.157-.046-.052-.091-.052-.136-.105h-.678c-.09 0-.18 0-.271.053a.817.817 0 00-.226.21.886.886 0 00-.18.366 1.523 1.523 0 01-.452.629c-.181.157-.407.21-.723.21h-.949c-.362 0-.633-.053-.859-.105-.226-.105-.406-.21-.542-.42a1.704 1.704 0 01-.271-.733 7.74 7.74 0 01-.09-1.153c0-.472.045-.839.09-1.153.045-.314.136-.576.271-.734.136-.21.316-.314.542-.419.226-.105.497-.105.859-.105h.813c.271 0 .542.105.723.21.181.157.316.367.452.629.045.157.136.262.181.367.09.104.135.157.226.21.09.052.18.052.271.052h.678c.045 0 .09-.053.135-.105l.136-.157c.045-.053.045-.158.045-.315 0-.314-.045-.576-.136-.838a2.032 2.032 0 00-.406-.682c-.181-.21-.362-.367-.588-.471a11.52 11.52 0 00-.723-.315c-.271-.052-.497-.104-.768-.104h-1.039c-.768 0-1.401.157-1.898.419-.497.262-.904.733-1.175 1.31-.226.576-.361 1.31-.361 2.2zm-1.265-3.93h-5.377c-.09 0-.136 0-.226.052-.045.052-.136.105-.18.157-.046.053-.046.157-.046.262v6.76c0 .105 0 .21.045.263.045.104.09.157.136.21.045.051.135.051.226.051h5.377c.09 0 .135 0 .225-.052.046-.052.136-.105.136-.21.045-.052.045-.157.045-.261v-.525c0-.104 0-.157-.045-.262-.045-.052-.09-.157-.136-.157-.045-.052-.135-.052-.225-.052h-4.067v-1.625h3.524c.091 0 .136 0 .226-.052.045-.053.136-.105.181-.21.045-.052.045-.157.045-.262v-.524c0-.105 0-.157-.045-.262-.045-.052-.09-.157-.181-.21-.045-.052-.135-.052-.226-.052h-3.524v-1.572h4.067c.09 0 .135 0 .225-.053.046-.052.136-.104.181-.157.045-.052.045-.157.045-.262v-.524c0-.105 0-.21-.045-.262-.045-.052-.09-.157-.181-.157 0 0-.09-.053-.18-.053zm-13.962 2.358c0 .471.09.943.226 1.31.135.367.361.681.587.89.271.21.542.42.904.525.361.105.723.157 1.174.157h1.808V20.7c0 .105 0 .158.045.262.045.053.09.157.18.157.046.053.136.053.227.053h.858c.09 0 .181 0 .226-.053.045-.052.136-.104.18-.21.046-.051.046-.156.046-.261v-6.76c0-.105 0-.21-.045-.262-.045-.053-.09-.158-.18-.158-.091-.052-.136-.052-.227-.052h-.858a.36.36 0 00-.226.052c-.045.053-.136.105-.18.158-.046.052-.046.157-.046.261v3.145h-1.808c-.361 0-.632-.105-.858-.314-.18-.21-.271-.525-.271-.996v-1.835c0-.104 0-.21-.045-.261-.046-.053-.09-.158-.181-.158-.045-.052-.136-.052-.226-.052h-.858c-.09 0-.181 0-.226.052a.386.386 0 00-.181.21c-.045.052-.045.157-.045.262v1.782zm-1.853 5.45c.09 0 .136 0 .226-.053.045-.052.136-.104.18-.21.046-.051.046-.156.046-.261v-6.76c0-.105 0-.158-.045-.262-.045-.053-.09-.158-.136-.21-.045-.053-.135-.053-.226-.053h-1.4a.36.36 0 00-.226.053.818.818 0 00-.226.21c-.09.052-.136.157-.181.261l-2.666 5.45v-5.45c0-.104 0-.157-.045-.261-.045-.053-.09-.158-.18-.158-.046-.052-.136-.052-.227-.052h-.858c-.09 0-.136 0-.226.052-.045.053-.136.105-.136.158-.045.052-.045.157-.045.261v6.76c0 .106 0 .158.045.263.045.052.09.157.136.21.045.052.135.052.226.052h1.536c.09 0 .18 0 .271-.053.09-.052.18-.104.226-.21.09-.051.136-.156.18-.261l2.44-5.031v5.03c0 .106 0 .158.046.263.045.052.09.157.18.21.046.052.136.052.227.052h.858zm-9.85-.472c0 .105 0 .158.045.262.045.053.09.157.18.157.046.053.136.053.227.053h.858c.09 0 .181 0 .226-.053.045-.052.136-.104.18-.21.046-.051.046-.156.046-.261v-6.76c0-.105 0-.21-.045-.262-.045-.053-.09-.158-.18-.158-.091-.052-.136-.052-.227-.052h-.858a.36.36 0 00-.226.052c-.045.053-.136.105-.18.158-.046.052-.046.157-.046.261v2.464H71.98v-2.463c0-.105 0-.21-.045-.262-.046-.053-.09-.158-.181-.158-.045-.052-.136-.052-.226-.052h-.859c-.09 0-.18 0-.225.052a.649.649 0 00-.181.158c-.045.052-.045.157-.045.261v6.76c0 .106 0 .158.045.263.045.052.09.157.18.21.046.052.136.052.227.052h.858c.09 0 .135 0 .226-.053.045-.052.135-.104.18-.157.046-.052.046-.157.046-.262v-2.777h3.208V20.7zm-7.094.472c.09 0 .136 0 .226-.053.045-.052.135-.104.18-.21.046-.051.046-.156.046-.261v-6.76c0-.105 0-.158-.045-.262-.046-.053-.09-.158-.136-.21-.045-.053-.135-.053-.226-.053h-1.4a.36.36 0 00-.227.053.824.824 0 00-.225.21c-.09.052-.136.157-.181.261l-2.666 5.45v-5.45c0-.104 0-.157-.045-.261-.045-.053-.09-.158-.181-.158-.045-.052-.136-.052-.226-.052h-.813c-.09 0-.136 0-.226.052-.045.053-.136.105-.136.158-.045.052-.045.157-.045.261v6.76c0 .106 0 .158.045.263.045.052.09.157.136.21.045.052.135.052.226.052h1.536c.09 0 .18 0 .271-.053.09-.052.18-.104.226-.21.09-.051.136-.156.18-.261l2.44-5.031v5.03c0 .106 0 .158.046.263.045.052.09.157.18.21.046.052.136.052.227.052h.813zm-8.088-.524v-6.76c0-.105 0-.158-.045-.262-.045-.053-.09-.158-.136-.21-.045-.053-.135-.053-.18-.053h-2.35c-.362 0-.678 0-.994.105a2.702 2.702 0 00-.904.315c-.271.157-.542.367-.723.629-.226.262-.361.628-.452 1.048l-1.175 5.24v.21c0 .052.046.105.136.157.045.052.136.052.18.052h.95c.09 0 .18 0 .226-.052.09-.052.135-.105.18-.157.045-.052.09-.157.136-.262l1.084-4.664c.045-.21.136-.42.271-.577.136-.157.271-.314.407-.367a1.08 1.08 0 01.542-.157h1.13v5.765c0 .105 0 .21.045.262.045.052.09.157.18.157.046.052.136.052.227.052h.903c.09 0 .136 0 .226-.052.046-.052.136-.105.136-.157v-.262zm-13.104.524c.09 0 .136 0 .226-.053.045-.052.136-.104.181-.157.045-.052.045-.157.045-.262v-2.62h.994c.181 0 .362.052.543.157.135.105.27.21.406.367s.226.367.362.576l.813 1.52c.045.105.136.158.18.262.091.053.181.157.272.157.09.053.18.053.27.053h1.085c.09 0 .136 0 .181-.053.045-.052.045-.104.045-.157 0-.052-.045-.157-.09-.262l-1.175-2.148a1.61 1.61 0 00-.226-.367 1.155 1.155 0 00-.316-.367c-.09-.105-.226-.21-.316-.315-.136-.104-.226-.157-.362-.157a1.407 1.407 0 00.904-.681l.27-.472.995-2.148c.09-.158.09-.262.09-.367-.045-.105-.09-.157-.226-.157h-.994c-.135 0-.225.052-.361.104a.94.94 0 00-.316.42l-.723 1.52a3.268 3.268 0 01-.407.628 2.57 2.57 0 01-.407.367 1.427 1.427 0 01-.497.105h-.994v-2.62c0-.105 0-.21-.045-.262-.045-.053-.09-.157-.18-.21-.046-.052-.136-.052-.227-.052H46c-.09 0-.136 0-.226.052-.045.053-.136.105-.18.21-.046.104-.046.157-.046.262v6.76c0 .105 0 .21.045.262.045.105.09.157.18.21.046.052.136.052.227.052h.903v-.157zm46.45-10.901c.09 0 .135 0 .226-.052.045-.052.135-.105.18-.21.046-.052.046-.157.046-.262V3.04c0-.105 0-.158-.046-.263-.045-.052-.09-.157-.135-.21-.045-.052-.136-.052-.226-.052h-1.4a.36.36 0 00-.227.053c-.09.052-.18.105-.226.21-.09.052-.135.157-.18.262l-2.666 5.45V2.987c0-.105 0-.157-.045-.262-.046-.052-.09-.157-.181-.157-.045-.053-.136-.053-.226-.053h-.813c-.09 0-.181 0-.226.053-.045.052-.136.105-.136.157-.045.052-.045.157-.045.262v6.76c0 .105 0 .158.045.262.045.053.09.158.136.21.045.053.135.053.226.053h1.536c.09 0 .18 0 .271-.053.09-.052.18-.105.226-.21.09-.052.136-.157.18-.262l2.44-5.03v5.03c0 .105 0 .158.046.262.045.053.09.158.18.21.046.053.136.053.227.053h.813zM90.37.681c-.181 0-.272-.052-.407-.105a.595.595 0 01-.226-.262.746.746 0 00-.135-.21c0-.104-.09-.104-.181-.104h-.362c-.09 0-.135 0-.18.052-.046.053-.09.105-.09.21 0 .314.09.629.18.839.136.262.316.419.542.576.226.105.497.21.814.21.316 0 .587-.053.813-.21.226-.105.406-.314.542-.576.136-.263.18-.525.18-.839 0-.105 0-.157-.09-.21.046-.052 0-.052-.09-.052h-.362c-.09 0-.135 0-.18.052a.723.723 0 00-.136.21.595.595 0 01-.226.262c-.09.105-.226.157-.406.157zM83.818 9.8c0 .105 0 .157.045.262.045.052.09.157.18.157.046.053.136.053.227.053h.903c.09 0 .181 0 .226-.053.046-.052.136-.105.181-.21.045-.052.045-.157.045-.262v-6.76c0-.105 0-.21-.045-.262-.045-.052-.09-.157-.18-.21-.091-.052-.136-.052-.227-.052h-.903c-.09 0-.136 0-.226.052-.045.053-.136.105-.18.21-.046.052-.046.157-.046.262V9.8zm-5.422-4.664V2.987c0-.105 0-.21-.045-.262-.046-.052-.09-.157-.181-.21-.045-.052-.136-.052-.226-.052h-.904c-.09 0-.18 0-.226.052-.045.053-.135.105-.135.21-.045.052-.045.157-.045.262v6.76c0 .105 0 .158.045.262.045.053.09.158.135.21.046.053.136.053.226.053h3.253c.362 0 .678-.053.995-.158a2.19 2.19 0 00.813-.471c.226-.21.406-.472.542-.786.136-.315.18-.682.18-1.1 0-.42-.09-.787-.18-1.101a2.295 2.295 0 00-.542-.787 2.19 2.19 0 00-.813-.471 3.073 3.073 0 00-.995-.157h-1.897v-.105zm1.943 1.572a.73.73 0 01.587.262c.136.157.18.42.18.786 0 .314-.044.577-.18.786a.728.728 0 01-.587.262h-1.943V6.76h1.943v-.052zm-7.185.262c.181 0 .317.052.407.105.09.052.18.21.271.314.045.157.09.315.09.472 0 .157-.045.367-.09.472a.445.445 0 01-.271.314.957.957 0 01-.407.105H70.49V6.865h2.665v.105zm-.135-2.987c.18 0 .361.052.452.21.135.157.18.314.18.576 0 .262-.045.472-.18.576a.541.541 0 01-.452.21h-2.53V3.983h2.53zM68.726 9.8c0 .105 0 .157.046.262.045.052.09.157.135.21.045.052.136.052.226.052h4.021c.272 0 .497-.053.769-.105.225-.052.451-.157.677-.262a1.27 1.27 0 00.543-.472c.135-.21.27-.419.36-.628a2.48 2.48 0 00.136-.839c0-.262-.045-.472-.09-.681-.045-.21-.18-.42-.316-.63a1.478 1.478 0 00-.497-.47c.135-.158.27-.315.361-.472.09-.158.181-.315.181-.472.045-.157.045-.314.045-.524 0-.315-.045-.629-.135-.839a1.928 1.928 0 00-.362-.628 3.69 3.69 0 00-.542-.42c-.226-.105-.407-.21-.678-.262-.226-.052-.452-.052-.723-.052h-3.795c-.09 0-.181 0-.226.052-.045.053-.136.105-.136.21-.045.052-.045.157-.045.262V9.8h.045zm-7.274-7.285c-.09 0-.136 0-.226.053-.045.052-.136.105-.136.157-.045.052-.045.157-.045.262v6.76c0 .105 0 .158.045.262.045.053.09.158.18.21.046.053.136.053.227.053h.903c.09 0 .136 0 .226-.053.046-.052.136-.105.136-.21.045-.052.045-.157.045-.262V8.542h2.26c.587 0 1.084-.105 1.536-.314a2.08 2.08 0 00.949-.996c.225-.472.316-.996.316-1.73 0-.68-.136-1.257-.316-1.729a2.08 2.08 0 00-.95-.996c-.406-.21-.948-.314-1.536-.314h-3.614v.052zm3.027 1.52c.226 0 .452 0 .633.053.18.052.361.104.497.21a.829.829 0 01.316.47c.09.21.135.473.135.787 0 .314-.045.576-.135.786-.09.21-.18.367-.316.472-.136.105-.317.157-.497.21-.181.052-.407.052-.633.052h-1.672v-3.04h1.672zm-4.745-1.52h-5.422c-.09 0-.135 0-.225.053-.046.052-.136.105-.181.157-.045.052-.045.157-.045.262v6.76c0 .105 0 .21.045.262.045.105.09.158.135.21.046.053.136.053.226.053h5.377c.09 0 .18 0 .226-.053.045-.052.136-.105.136-.21.045-.052.045-.157.045-.262v-.524c0-.104 0-.157-.045-.262-.045-.052-.09-.157-.136-.157-.045-.052-.136-.052-.226-.052h-4.066V7.127h3.524c.09 0 .136 0 .226-.052.045-.053.135-.105.18-.21.046-.052.046-.157.046-.262V6.08c0-.105 0-.157-.045-.262-.046-.052-.09-.157-.181-.21-.045-.052-.136-.052-.226-.052h-3.524V3.983h4.066c.09 0 .136 0 .226-.053.045-.052.136-.104.18-.157.046-.052.046-.157.046-.262v-.524c0-.105 0-.21-.045-.262-.045-.052-.09-.157-.18-.157 0-.053-.046-.053-.137-.053zm-7.636 7.756c.09 0 .181 0 .226-.052.046-.052.136-.105.181-.21.045-.052.045-.157.045-.262v-6.76c0-.105 0-.21-.045-.262-.045-.052-.09-.157-.18-.157-.046-.053-.136-.053-.227-.053h-6.1c-.09 0-.135 0-.225.053-.046.052-.136.105-.136.157-.045.052-.045.157-.045.262v6.76c0 .105 0 .158.045.262.045.053.09.158.136.21.045.053.135.053.225.053h.904c.09 0 .136 0 .226-.053.045-.052.136-.105.18-.21.046-.052.046-.157.046-.262V3.983h3.434v5.764c0 .105 0 .158.045.262.045.053.09.158.18.21.046.053.137.053.227.053h.858z" fill="#477A6A"/><path fill-rule="evenodd" clip-rule="evenodd" d="M19.294 30.133c-4.248-6.76-11.116-11.11-18.842-11.11C.136 20.543 0 22.115 0 23.687c0 1.573.136 3.145.407 4.665h.045c7.094 0 13.103 5.607 14.82 13.206.588-4.14 1.989-8.07 4.022-11.425z" fill="#BCE3D7"/><path fill-rule="evenodd" clip-rule="evenodd" d="M15.77 46.222c0-9.014 3.75-16.98 9.58-21.906 2.937 2.359 6.325 3.983 9.94 4.665-6.597 1.99-11.431 8.96-11.431 17.241a17.01 17.01 0 01-4.022.472c-1.4 0-2.756-.158-4.066-.472z" fill="#8FD6C2"/><path fill-rule="evenodd" clip-rule="evenodd" d="M20.287 17.294c4.248 6.708 11.116 11.058 18.887 11.058.271-1.52.407-3.092.407-4.664 0-1.572-.136-3.144-.407-4.664h-.045c-7.094 0-13.103-5.608-14.82-13.206-.588 4.192-1.943 8.07-4.022 11.476z" fill="#69AF96"/><path fill-rule="evenodd" clip-rule="evenodd" d="M23.857 1.205c0 9.014-3.75 16.98-9.579 21.906-2.892-2.358-6.28-3.983-9.895-4.664 6.552-1.991 11.431-8.961 11.431-17.242a17.01 17.01 0 014.022-.471c1.356 0 2.711.157 4.021.471z" fill="#477A6A"/></svg>