<svg width="16" height="17" viewBox="0 0 16 17" fill="none" xmlns="http://www.w3.org/2000/svg">
<path d="M13.6569 2.49027C10.5305 -0.829841 5.47038 -0.830339 2.3436 2.49027C-0.170447 5.16009 -0.645515 9.12992 0.840796 12.2914L0.0167887 16.1406C-0.0903151 16.6409 0.331905 17.0895 0.803186 16.9757L4.42772 16.1006C9.69777 18.8949 16 14.8495 16 8.49752C16 6.22833 15.1679 4.09492 13.6569 2.49027ZM9.66899 10.6131H4.66268C4.29978 10.6131 4.0056 10.3006 4.0056 9.91525C4.0056 9.52986 4.29978 9.21745 4.66268 9.21745H9.66899C10.0319 9.21745 10.3261 9.52986 10.3261 9.91525C10.3261 10.3006 10.0319 10.6131 9.66899 10.6131ZM11.3378 7.77755H4.66268C4.29978 7.77755 4.0056 7.46513 4.0056 7.07975C4.0056 6.69436 4.29978 6.38195 4.66268 6.38195H11.3378C11.7007 6.38195 11.9949 6.69436 11.9949 7.07975C11.9949 7.46513 11.7006 7.77755 11.3378 7.77755Z" fill="#00CEA9"/>
</svg>
