<svg width="51" height="51" viewBox="0 0 51 51" fill="none" xmlns="http://www.w3.org/2000/svg">
<path d="M-1.11026e-06 25.3999C-4.98306e-07 39.3999 11.3999 50.7998 25.3999 50.7998C39.3999 50.7998 50.7999 39.3999 50.7999 25.3999C50.7999 11.3999 39.3999 -1.72222e-06 25.3999 -1.11026e-06C11.3999 -4.98306e-07 -1.72222e-06 11.3999 -1.11026e-06 25.3999ZM44.2999 25.3999C44.2999 35.7999 35.7999 44.2998 25.3999 44.2998C14.9999 44.2998 6.5 35.7999 6.5 25.3999C6.5 14.9999 14.9999 6.5 25.3999 6.5C35.7999 6.5 44.2999 14.8999 44.2999 25.3999Z" fill="#8ADAC2"/>
</svg>
