<svg width="866" height="866" viewBox="0 0 866 866" fill="none" xmlns="http://www.w3.org/2000/svg">
<circle cx="433" cy="433" r="433" fill="#00CEA9" fill-opacity="0.1"/>
<path d="M260 169.901C260 178.701 267.2 185.801 275.9 185.801C284.7 185.801 291.8 178.601 291.8 169.901C291.8 161.101 284.6 154.001 275.9 154.001C267.1 153.901 260 161.101 260 169.901ZM287.8 169.901C287.8 176.501 282.5 181.801 275.9 181.801C269.3 181.801 264 176.501 264 169.901C264 163.301 269.3 158.001 275.9 158.001C282.5 158.001 287.8 163.301 287.8 169.901Z" fill="#8ADAC2"/>
<path d="M696 791.901C696 800.701 703.2 807.801 711.9 807.801C720.7 807.801 727.8 800.601 727.8 791.901C727.8 783.101 720.6 776.001 711.9 776.001C703.1 775.901 696 783.101 696 791.901ZM723.8 791.901C723.8 798.501 718.5 803.801 711.9 803.801C705.3 803.801 700 798.501 700 791.901C700 785.301 705.3 780.001 711.9 780.001C718.5 780.001 723.8 785.301 723.8 791.901Z" fill="#8ADAC2"/>
</svg>
