<svg width="317" height="756" viewBox="0 0 317 756" fill="none" xmlns="http://www.w3.org/2000/svg">
<path d="M32.5303 259.935C32.5303 259.935 39.7252 291.24 60.7741 291.24C78.8379 291.24 103.561 250.444 103.561 250.444L32.5303 259.935Z" fill="#F99746"/>
<path d="M274.172 722.552L260.624 731.813C260.624 731.813 195.64 662.543 179.949 596.105C177.117 584.241 176.045 572.53 177.194 561.432C177.194 561.432 176.275 558.447 174.591 553.089C174.515 552.859 174.438 552.629 174.362 552.4C173.673 550.104 172.754 547.348 171.759 544.21C168.621 534.183 164.258 520.406 159.359 504.791C148.031 468.817 122.007 387.606 110.909 353.851L190.741 324.995C190.741 324.995 199.773 345.661 212.862 401.843C214.852 409.191 216.842 417.304 218.756 426.106C220.899 436.133 222.889 447.079 224.496 458.866C227.328 478.92 229.165 501.423 229.318 526.146C229.395 536.173 229.089 546.659 228.553 557.375C228.094 565.259 229.318 575.745 231.462 587.762C241.488 642.489 274.172 722.552 274.172 722.552Z" fill="#457C6A"/>
<path d="M316.652 755.923H252.127C252.127 755.923 249.678 745.667 253.964 738.625C257.715 732.425 256.261 728.904 253.505 723.776C256.414 725.001 260.241 726.072 264.374 725.843C267.589 725.69 270.957 724.235 273.942 722.475C276.697 725.613 288.638 739.084 292.312 741.763C296.521 744.825 315.351 743.753 316.652 755.923Z" fill="#457C6A"/>
<path d="M224.496 458.943L174.362 552.4C173.673 550.104 172.754 547.348 171.759 544.21C168.621 534.183 164.258 520.406 159.359 504.791C148.031 468.817 122.007 387.606 110.909 353.851L190.741 324.995C190.741 324.995 199.773 345.661 212.862 401.843C214.852 409.191 216.842 417.304 218.756 426.106C220.822 436.21 222.812 447.155 224.496 458.943Z" fill="#457C6A"/>
<path d="M109.607 735.793C109.607 735.793 105.168 746.739 109.378 756H144.51C144.51 756 145.276 747.657 132.493 738.013C122.772 730.665 109.607 735.793 109.607 735.793Z" fill="#457C6A"/>
<path d="M147.802 22.2735C147.802 20.5131 148.72 1.68391 177.347 0C177.347 0 163.263 1.99007 161.044 8.26647C161.044 8.26647 170.458 0.382707 178.342 2.67895C186.226 4.9752 191.124 18.523 191.277 23.039C191.43 27.5549 187.45 42.1743 182.552 43.4755C180.715 44.0113 178.495 43.9348 176.581 43.6286C177.959 45.6187 179.26 47.9149 180.562 50.4408C192.579 73.6329 182.246 100.958 172.448 98.6619C166.172 97.2076 162.421 108 162.421 108L102.336 56.3345C102.26 56.3345 123.309 9.95037 147.802 22.2735Z" fill="#505050"/>
<path d="M110.067 179.26C116.726 183.852 125.069 187.68 135.555 190.129C174.821 199.237 189.9 166.018 195.564 143.209C190.206 140.147 185.154 139.458 182.245 139.152C179.413 138.846 176.428 138.617 173.979 138.463C169.54 135.096 162.957 121.242 161.503 99.8099L159.666 100.269L128.666 108.765C128.666 108.765 130.121 118.639 130.81 127.901C131.345 135.172 131.422 142.137 130.044 143.821C127.595 144.357 126.141 144.663 126.141 144.663C125.758 145.352 116.726 160.125 110.067 179.26Z" fill="#FFB27D"/>
<path d="M128.666 108.689C128.666 108.689 130.12 118.563 130.809 127.824C148.337 126.064 156.527 109.378 159.665 100.193L128.666 108.689Z" fill="#ED985F"/>
<path d="M128.284 123.461C128.284 123.461 168.698 113.052 161.809 88.0227C154.92 62.9936 155.533 44.7767 129.508 50.2877C103.408 55.8752 101.035 66.8207 101.265 75.6995C101.494 84.5783 117.645 125.528 128.284 123.461Z" fill="#FFB27D"/>
<path d="M98.6621 61.4627C102.795 52.2012 107.924 52.5839 111.215 54.1147C129.891 35.9744 148.95 49.9815 148.95 49.9815C156.604 67.2033 172.372 73.939 172.372 73.939C172.372 73.939 166.248 80.445 148.184 80.7512C142.673 80.8277 137.009 78.4549 131.881 75.0871C141.832 84.6548 153.466 90.3954 153.466 90.3954C130.733 86.6448 114.889 60.7738 113.282 58.0183C111.445 60.9269 107.924 67.0502 107.694 72.1019C107.464 79.0672 110.143 92.3855 106.163 92.9978C106.24 92.9978 92.4623 75.3167 98.6621 61.4627Z" fill="#565656"/>
<path d="M116.725 142.52C116.725 142.52 184.541 126.064 214.086 150.404L199.314 355.994L66.5908 323.924C66.5908 323.924 70.3413 310.912 95.7531 276.315C121.241 241.718 110.143 190.971 116.725 142.52Z" fill="#FFB27D"/>
<path d="M156.221 333.109C156.221 333.109 156.145 333.797 155.992 335.099C155.915 335.634 155.839 336.323 155.762 337.165C155.226 342.523 154.078 352.703 152.7 366.021C149.026 400.924 143.362 456.876 139.459 501.117C136.397 535.714 134.483 563.039 135.555 567.402C138.693 580.644 135.555 738.625 135.555 738.625C124.303 744.06 107.158 738.625 107.158 738.625C107.158 738.625 77.1539 596.258 81.2872 576.434C85.4969 556.61 78.4552 539.77 78.4552 539.77C55.11 431.158 57.7124 370.92 62.3049 342.14C63.6827 333.721 65.2135 328.057 66.285 324.536C67.2035 321.551 67.8924 320.173 67.8924 320.173C119.481 306.396 156.221 333.109 156.221 333.109Z" fill="#457C6A"/>
<path d="M223.195 209.035C219.903 233.758 206.815 264.068 202.146 280.371C202.146 280.371 209.953 336.936 202.529 352.473C201.687 354.234 200.615 355.459 199.314 356.071C171.682 368.088 63.912 356.454 59.3195 321.627C57.6356 308.998 100.346 264.604 102.872 259.169C103.943 256.95 105.015 249.678 99.963 234.753C92.8446 256.644 53.7319 250.367 53.7319 250.367C58.3244 242.483 69.8057 188.062 82.5881 163.493C92.2323 145.046 117.874 142.367 117.874 142.367C117.874 142.367 128.589 159.283 154.384 156.91C180.255 154.537 184.924 138.693 184.924 138.693C184.924 138.693 207.81 141.755 214.928 147.419C216.153 148.414 227.481 176.658 223.195 209.035Z" fill="#F99746"/>
<path d="M202.146 280.371C202.146 280.371 209.954 336.935 202.529 352.473C182.399 342.37 166.478 314.968 170.152 284.505C172.831 262.001 176.888 256.797 188.981 243.938C197.86 234.446 218.297 233.911 216.689 238.427C211.867 251.821 204.596 271.722 202.146 280.371Z" fill="#ED7D2B"/>
<path d="M117.95 213.474L164.181 287.566H85.5734L41.562 215.081L117.95 213.474Z" fill="#2EB097"/>
<path d="M161.808 283.816L162.574 281.213L118.869 211.101L117.95 213.474L161.808 283.816Z" fill="#EFDECE"/>
<path d="M118.869 211.101L44.7767 213.245L41.562 215.082L117.95 213.474L118.869 211.101Z" fill="#FCECDB"/>
<path d="M41.5621 215.082L0 192.578L48.4508 268.584L85.5734 287.566L41.5621 215.082Z" fill="#457C6A"/>
<path d="M261.389 266.977C256.95 269.043 245.545 282.438 241.412 283.816C223.118 289.939 145.046 273.636 145.046 273.636L147.495 259.935C147.495 259.935 224.037 262.001 232.456 259.705C234.064 259.246 242.33 246.311 245.468 244.474L261.389 266.977Z" fill="#FFB27D"/>
<path d="M147.495 260.011C147.495 260.011 138.234 252.51 132.034 254.194C125.757 255.878 116.649 263.762 113.205 265.675C109.76 267.512 100.499 274.248 105.244 278.305C109.913 282.361 124.533 278.841 130.35 275.779C136.167 272.717 145.122 273.712 145.122 273.712L147.495 260.011Z" fill="#FFB27D"/>
<path d="M133.794 253.888C133.794 253.888 122.543 252.587 119.481 252.587C116.419 252.663 117.261 253.352 118.945 255.725C120.629 258.098 126.446 259.016 126.752 259.858C127.059 260.7 133.794 253.888 133.794 253.888Z" fill="#FFB27D"/>
<path d="M184.924 138.617C184.924 138.617 218.219 142.597 227.328 156.833C238.886 174.897 266.287 246.77 265.369 264.833C265.369 264.833 245.392 298.818 176.81 293.383C176.81 293.383 169.692 268.201 184.082 259.858C184.082 259.858 219.291 253.582 223.348 250.061L194.645 197.86L184.924 138.617Z" fill="#F99746"/>
<path d="M52.201 242.177C51.2059 237.967 42.021 240.57 38.9593 243.019C38.1939 243.632 37.4285 244.627 36.5866 245.775C36.51 245.086 36.4335 244.397 36.3569 243.861C36.2038 241.871 33.9076 238.35 33.2953 241.029C32.7595 243.708 31.7644 254.73 31.7644 254.73C31.6879 263.685 37.4285 267.359 41.1025 264.451C44.7764 261.542 53.196 246.31 52.201 242.177Z" fill="#FFB27D"/>
</svg>
