<svg width="268" height="95" viewBox="0 0 268 95" fill="none" xmlns="http://www.w3.org/2000/svg">
<path d="M164.615 76.1683C164.165 75.2194 163.535 74.5868 162.725 74.165C161.915 73.7433 160.835 73.5324 159.665 73.5324H152.555C152.375 73.5324 152.285 73.5324 152.105 73.6378C152.015 73.7433 151.835 73.8487 151.835 73.9542C151.745 74.0596 151.745 74.2705 151.745 74.4813V88.0824C151.745 88.2933 151.745 88.3987 151.835 88.6096C151.925 88.715 152.015 88.9259 152.195 89.0313C152.285 89.1368 152.465 89.1368 152.645 89.1368H154.445C154.625 89.1368 154.715 89.1368 154.895 89.0313C154.985 88.9259 155.165 88.8205 155.165 88.6096C155.255 88.5042 155.255 88.2933 155.255 88.0824V85.6574H159.755C160.925 85.6574 161.915 85.4466 162.815 85.0248C163.625 84.6031 164.255 83.9705 164.705 83.0215C165.155 82.0726 165.335 81.0183 165.335 79.5422C165.335 78.1715 165.065 77.0118 164.615 76.1683ZM161.555 81.1237C161.375 81.5455 161.195 81.8618 160.925 82.0726C160.655 82.2835 160.295 82.3889 159.935 82.4944C159.575 82.5998 159.125 82.5998 158.675 82.5998H155.255V76.59H158.675C159.125 76.59 159.575 76.59 159.935 76.6955C160.295 76.8009 160.655 76.9063 160.925 77.1172C161.195 77.3281 161.465 77.6444 161.555 78.0661C161.735 78.4878 161.825 79.015 161.825 79.6476C161.735 80.1748 161.735 80.702 161.555 81.1237Z" fill="#8FD6C2"/>
<path d="M137.434 73.5324C137.254 73.5324 137.074 73.5324 136.984 73.6378C136.894 73.7433 136.714 73.8487 136.714 73.9542C136.624 74.0596 136.624 74.2705 136.624 74.4813V75.5357C136.624 75.7465 136.624 75.9574 136.714 76.0628C136.804 76.1683 136.894 76.3791 136.984 76.3791C137.074 76.4846 137.254 76.4846 137.434 76.4846H141.574V88.0824C141.574 88.2933 141.574 88.3987 141.664 88.6096C141.754 88.715 141.844 88.9259 142.024 88.9259C142.114 89.0313 142.294 89.0313 142.474 89.0313H144.274C144.454 89.0313 144.544 89.0313 144.724 88.9259C144.814 88.8205 144.994 88.715 145.084 88.6096C145.174 88.5041 145.174 88.2933 145.174 88.0824V76.4846H149.314C149.494 76.4846 149.674 76.4846 149.764 76.3791C149.854 76.2737 150.034 76.1683 150.034 76.0628C150.124 75.9574 150.124 75.7465 150.124 75.5357V74.4813C150.124 74.2705 150.124 74.0596 150.034 73.9542C149.944 73.8487 149.854 73.6378 149.764 73.6378C149.674 73.5324 149.494 73.5324 149.314 73.5324H137.434Z" fill="#8FD6C2"/>
<path d="M131.494 88.1883C131.494 88.3991 131.494 88.5046 131.584 88.7154C131.674 88.8209 131.764 89.0317 131.944 89.0317C132.034 89.1372 132.214 89.1372 132.394 89.1372H134.104C134.284 89.1372 134.464 89.1372 134.554 89.0317C134.644 88.9263 134.824 88.8209 134.914 88.61C135.004 88.5046 135.004 88.2937 135.004 88.0828V74.4817C135.004 74.2708 135.004 74.06 134.914 73.9545C134.824 73.8491 134.734 73.6382 134.554 73.5328C134.374 73.4274 134.284 73.4274 134.104 73.4274H132.394C132.214 73.4274 132.124 73.4274 131.944 73.5328C131.854 73.6382 131.674 73.7437 131.584 73.9545C131.494 74.06 131.494 74.2708 131.494 74.4817V79.4372H125.104V74.4817C125.104 74.2708 125.104 74.06 125.014 73.9545C124.924 73.8491 124.834 73.6382 124.654 73.5328C124.564 73.4274 124.384 73.4274 124.204 73.4274H122.494C122.314 73.4274 122.134 73.4274 122.044 73.5328C121.864 73.6382 121.774 73.7437 121.684 73.9545C121.594 74.06 121.594 74.2708 121.594 74.4817V88.0828C121.594 88.2937 121.594 88.3991 121.684 88.61C121.774 88.7154 121.864 88.9263 122.044 89.0317C122.134 89.1372 122.314 89.1372 122.494 89.1372H124.204C124.384 89.1372 124.474 89.1372 124.654 89.0317C124.744 88.9263 124.924 88.8209 125.014 88.7154C125.104 88.61 125.104 88.3991 125.104 88.1883V82.6002H131.494V88.1883Z" fill="#8FD6C2"/>
<path d="M118.984 73.5324H108.184C108.004 73.5324 107.914 73.5324 107.734 73.6378C107.644 73.7433 107.464 73.8487 107.374 73.9542C107.284 74.0596 107.284 74.2705 107.284 74.4813V88.0824C107.284 88.2933 107.284 88.5042 107.374 88.6096C107.464 88.8205 107.554 88.9259 107.644 89.0313C107.734 89.1368 107.914 89.1368 108.094 89.1368H118.804C118.984 89.1368 119.164 89.1368 119.254 89.0313C119.344 88.9259 119.524 88.8205 119.524 88.6096C119.614 88.5042 119.614 88.2933 119.614 88.0824V87.0281C119.614 86.8172 119.614 86.7118 119.524 86.5009C119.434 86.3955 119.344 86.1846 119.254 86.1846C119.164 86.0792 118.984 86.0792 118.804 86.0792H110.704V82.8107H117.724C117.904 82.8107 117.994 82.8107 118.174 82.7052C118.264 82.5998 118.444 82.4944 118.534 82.2835C118.624 82.1781 118.624 81.9672 118.624 81.7563V80.702C118.624 80.4911 118.624 80.3857 118.534 80.1748C118.444 80.0694 118.354 79.8585 118.174 79.7531C118.084 79.6476 117.904 79.6476 117.724 79.6476H110.704V76.4846H118.804C118.984 76.4846 119.074 76.4846 119.254 76.3791C119.344 76.2737 119.524 76.1683 119.614 76.0628C119.704 75.9574 119.704 75.7465 119.704 75.5357V74.4813C119.704 74.2705 119.704 74.0596 119.614 73.9542C119.524 73.8487 119.434 73.6378 119.254 73.6378C119.254 73.5324 119.164 73.5324 118.984 73.5324Z" fill="#8FD6C2"/>
<path d="M105.123 89.1359C105.303 89.1359 105.393 89.1359 105.573 89.0305C105.663 88.925 105.843 88.8196 105.933 88.6087C106.023 88.5033 106.023 88.2924 106.023 88.0816V87.0272C106.023 86.8163 106.023 86.6055 105.933 86.5C105.843 86.3946 105.753 86.1837 105.573 86.1837C105.483 86.0783 105.303 86.0783 105.123 86.0783H104.133V74.4805C104.133 74.2696 104.133 74.0587 104.043 73.9533C103.953 73.8479 103.863 73.637 103.683 73.637C103.593 73.5316 103.413 73.5316 103.233 73.5316H101.433C101.253 73.5316 101.163 73.5316 100.983 73.637C100.893 73.7424 100.713 73.8479 100.623 73.9533C100.533 74.0587 100.533 74.2696 100.533 74.4805V86.0783H94.2329V74.4805C94.2329 74.2696 94.2329 74.0587 94.1429 73.9533C94.0529 73.8479 93.9629 73.637 93.7829 73.637C93.6929 73.5316 93.5129 73.5316 93.3329 73.5316H91.5328C91.3528 73.5316 91.2628 73.5316 91.0828 73.637C90.9928 73.7424 90.8128 73.8479 90.7228 73.9533C90.6328 74.0587 90.6328 74.2696 90.6328 74.4805V88.0816C90.6328 88.2924 90.6328 88.3979 90.7228 88.6087C90.8128 88.7142 90.9028 88.925 91.0828 89.0305C91.1728 89.1359 91.3528 89.1359 91.5328 89.1359H105.123Z" fill="#8FD6C2"/>
<path d="M266.498 67.3127C266.678 67.3127 266.768 67.3127 266.948 67.2073C267.038 67.1018 267.218 66.9964 267.308 66.7855C267.398 66.6801 267.398 66.4692 267.398 66.2584V52.6573C267.398 52.4464 267.398 52.3409 267.308 52.1301C267.218 52.0246 267.128 51.8138 267.038 51.7083C266.948 51.6029 266.768 51.6029 266.588 51.6029H263.708C263.528 51.6029 263.438 51.6029 263.258 51.7083C263.078 51.8138 262.898 51.9192 262.808 52.1301C262.628 52.2355 262.538 52.4464 262.448 52.6573L257.138 63.6225V52.6573C257.138 52.4464 257.138 52.3409 257.048 52.1301C256.958 52.0246 256.868 51.8138 256.688 51.8138C256.598 51.7083 256.418 51.7083 256.238 51.7083H254.618C254.438 51.7083 254.258 51.7083 254.168 51.8138C254.078 51.9192 253.898 52.0246 253.898 52.1301C253.808 52.2355 253.808 52.4464 253.808 52.6573V66.2584C253.808 66.4692 253.808 66.5747 253.898 66.7855C253.988 66.891 254.078 67.1018 254.168 67.2073C254.258 67.3127 254.438 67.3127 254.618 67.3127H257.678C257.858 67.3127 258.038 67.3127 258.218 67.2073C258.398 67.1018 258.578 66.9964 258.668 66.7855C258.848 66.6801 258.938 66.4692 259.028 66.2584L263.888 56.1366V66.2584C263.888 66.4692 263.888 66.5747 263.978 66.7855C264.068 66.891 264.158 67.1018 264.338 67.2073C264.428 67.3127 264.608 67.3127 264.788 67.3127H266.498Z" fill="#8FD6C2"/>
<path d="M260.558 48.0177C260.198 48.0177 260.018 47.9123 259.748 47.8068C259.568 47.7014 259.388 47.4905 259.298 47.2796C259.208 47.0687 259.118 46.9633 259.028 46.8578C258.938 46.7524 258.758 46.7524 258.668 46.7524H257.948C257.768 46.7524 257.678 46.7524 257.588 46.8578C257.498 46.9633 257.408 47.0687 257.408 47.2796C257.408 47.9123 257.588 48.545 257.768 48.9667C258.038 49.494 258.398 49.8103 258.848 50.1266C259.298 50.3375 259.838 50.5484 260.468 50.5484C261.098 50.5484 261.638 50.443 262.088 50.1266C262.538 49.9158 262.898 49.494 263.168 48.9667C263.438 48.4395 263.528 47.9123 263.528 47.2796C263.528 47.0687 263.528 46.9633 263.348 46.8578C263.258 46.7524 263.168 46.7524 262.988 46.7524H262.268C262.088 46.7524 261.998 46.7524 261.908 46.8578C261.818 46.9633 261.728 47.0687 261.638 47.2796C261.548 47.4905 261.368 47.7014 261.188 47.8068C261.098 47.9123 260.828 48.0177 260.558 48.0177Z" fill="#8FD6C2"/>
<path d="M250.207 67.3127C250.387 67.3127 250.477 67.3127 250.657 67.2073C250.747 67.1018 250.927 66.9964 251.017 66.7855C251.107 66.6801 251.107 66.4692 251.107 66.2584V52.6573C251.107 52.4464 251.107 52.3409 251.017 52.1301C250.927 52.0246 250.837 51.8138 250.747 51.7083C250.657 51.6029 250.477 51.6029 250.297 51.6029H247.507C247.327 51.6029 247.237 51.6029 247.057 51.7083C246.877 51.8138 246.697 51.9192 246.607 52.1301C246.427 52.2355 246.337 52.4464 246.247 52.6573L240.937 63.6225V52.6573C240.937 52.4464 240.937 52.3409 240.847 52.1301C240.757 52.0246 240.667 51.8138 240.487 51.8138C240.397 51.7083 240.217 51.7083 240.037 51.7083H238.417C238.237 51.7083 238.057 51.7083 237.967 51.8138C237.877 51.9192 237.697 52.0246 237.697 52.1301C237.607 52.2355 237.607 52.4464 237.607 52.6573V66.2584C237.607 66.4692 237.607 66.5747 237.697 66.7855C237.787 66.891 237.877 67.1018 237.967 67.2073C238.057 67.3127 238.237 67.3127 238.417 67.3127H241.477C241.657 67.3127 241.837 67.3127 242.017 67.2073C242.197 67.1018 242.377 66.9964 242.467 66.7855C242.647 66.6801 242.737 66.4692 242.827 66.2584L247.687 56.1366V66.2584C247.687 66.4692 247.687 66.5747 247.777 66.7855C247.867 66.891 247.957 67.1018 248.137 67.2073C248.227 67.3127 248.407 67.3127 248.587 67.3127H250.207Z" fill="#8FD6C2"/>
<path d="M224.917 67.3127C225.097 67.3127 225.187 67.3127 225.367 67.2073C225.457 67.1018 225.637 66.9964 225.727 66.891C225.817 66.7855 225.817 66.5747 225.817 66.3638V61.0921H227.797C228.157 61.0921 228.517 61.1975 228.877 61.4084C229.147 61.6192 229.417 61.8301 229.687 62.1464C229.957 62.4627 230.137 62.8844 230.407 63.3062L232.027 66.3638C232.117 66.5747 232.297 66.7855 232.387 66.891C232.567 66.9964 232.747 67.2073 232.927 67.2073C233.107 67.3127 233.287 67.3127 233.467 67.3127H235.627C235.807 67.3127 235.897 67.3127 235.987 67.2073C236.077 67.1018 236.077 66.9964 236.077 66.891C236.077 66.7855 235.987 66.5747 235.897 66.3638L233.557 62.041C233.467 61.8301 233.287 61.5138 233.107 61.3029C232.927 60.9866 232.747 60.7757 232.477 60.5649C232.297 60.354 232.027 60.1431 231.847 59.9323C231.577 59.7214 231.397 59.616 231.127 59.616C231.577 59.5105 231.937 59.2997 232.207 59.0888C232.477 58.8779 232.747 58.5616 232.927 58.2453C233.107 57.929 233.287 57.6127 233.467 57.2964L235.537 52.9736C235.717 52.6573 235.717 52.4464 235.717 52.2355C235.627 52.0246 235.537 51.9192 235.267 51.9192H233.107C232.837 51.9192 232.657 52.0246 232.387 52.1301C232.117 52.3409 231.937 52.5518 231.757 52.9736L230.407 55.7149C230.137 56.242 229.867 56.6638 229.597 56.9801C229.327 57.2964 229.057 57.5073 228.787 57.7181C228.517 57.8236 228.157 57.929 227.797 57.929H225.817V52.6573C225.817 52.4464 225.817 52.2355 225.727 52.1301C225.637 52.0246 225.547 51.8138 225.367 51.7083C225.277 51.6029 225.097 51.6029 224.917 51.6029H223.117C222.937 51.6029 222.847 51.6029 222.667 51.7083C222.577 51.8138 222.397 51.9192 222.307 52.1301C222.217 52.3409 222.217 52.4464 222.217 52.6573V66.2584C222.217 66.4692 222.217 66.6801 222.307 66.7855C222.397 66.9964 222.487 67.1018 222.667 67.2073C222.757 67.3127 222.937 67.3127 223.117 67.3127H224.917Z" fill="#8FD6C2"/>
<path d="M205.926 59.5105C205.926 61.3029 206.196 62.779 206.736 63.9387C207.276 65.0985 207.996 65.942 209.076 66.5746C210.066 67.1018 211.416 67.4181 212.856 67.4181H215.107C215.647 67.4181 216.187 67.3127 216.637 67.2072C217.177 67.1018 217.627 66.8909 218.077 66.5746C218.527 66.3637 218.977 66.0474 219.337 65.6257C219.697 65.204 219.967 64.7822 220.147 64.255C220.327 63.7279 220.417 63.2007 220.417 62.5681C220.417 62.3572 220.417 62.1464 220.327 61.9355C220.237 61.83 220.147 61.6192 220.057 61.6192C219.967 61.5137 219.877 61.5137 219.697 61.4083C219.607 61.4083 219.517 61.4083 219.427 61.4083H218.347C218.167 61.4083 217.987 61.4083 217.807 61.5137C217.627 61.6192 217.537 61.7246 217.357 61.9355C217.177 62.1464 217.087 62.3572 216.997 62.6735C216.817 63.2007 216.457 63.6224 216.097 63.9387C215.737 64.255 215.287 64.3605 214.657 64.3605H212.766C212.046 64.3605 211.506 64.255 211.056 64.1496C210.606 63.9387 210.246 63.7279 209.976 63.3061C209.706 62.8844 209.526 62.4627 209.436 61.83C209.346 61.1974 209.256 60.4594 209.256 59.5105C209.256 58.5616 209.346 57.8235 209.436 57.1909C209.526 56.5583 209.706 56.0311 209.976 55.7148C210.246 55.2931 210.606 55.0822 211.056 54.8714C211.506 54.6605 212.046 54.6605 212.766 54.6605H214.386C214.927 54.6605 215.467 54.8714 215.827 55.0822C216.187 55.3985 216.457 55.8203 216.727 56.3474C216.817 56.6637 216.997 56.8746 217.087 57.0855C217.267 57.2964 217.357 57.4018 217.537 57.5072C217.717 57.6127 217.897 57.6127 218.077 57.6127H219.157C219.247 57.6127 219.337 57.6127 219.427 57.6127C219.517 57.6127 219.607 57.5072 219.787 57.4018C219.877 57.2963 219.967 57.1909 220.057 56.98C220.147 56.8746 220.147 56.6637 220.147 56.3474C220.147 55.7148 220.057 55.1877 219.877 54.6605C219.697 54.1333 219.427 53.7116 219.067 53.2898C218.707 52.8681 218.347 52.5518 217.807 52.3409C217.357 52.13 216.907 51.9192 216.367 51.7083C215.827 51.6029 215.377 51.4974 214.837 51.4974H212.766C211.236 51.4974 209.976 51.8137 208.986 52.3409C207.996 52.8681 207.186 53.817 206.646 54.9768C206.196 56.242 205.926 57.7181 205.926 59.5105Z" fill="#8FD6C2"/>
<path d="M200.436 66.3638C200.436 66.5747 200.436 66.6801 200.526 66.891C200.616 66.9964 200.706 67.2073 200.886 67.2073C200.976 67.3127 201.156 67.3127 201.336 67.3127H203.046C203.226 67.3127 203.406 67.3127 203.496 67.2073C203.586 67.1018 203.766 66.9964 203.856 66.7855C203.946 66.6801 203.946 66.4692 203.946 66.2584V52.6573C203.946 52.4464 203.946 52.2355 203.856 52.1301C203.766 52.0246 203.676 51.8138 203.496 51.7083C203.316 51.6029 203.226 51.6029 203.046 51.6029H201.336C201.156 51.6029 201.066 51.6029 200.886 51.7083C200.796 51.8138 200.616 51.9192 200.526 52.1301C200.436 52.2355 200.436 52.4464 200.436 52.6573V57.6127H194.046V52.6573C194.046 52.4464 194.046 52.2355 193.956 52.1301C193.866 52.0246 193.776 51.8138 193.596 51.7083C193.506 51.6029 193.326 51.6029 193.146 51.6029H191.436C191.256 51.6029 191.076 51.6029 190.986 51.7083C190.806 51.8138 190.716 51.9192 190.626 52.1301C190.536 52.2355 190.536 52.4464 190.536 52.6573V66.2584C190.536 66.4692 190.536 66.5747 190.626 66.7855C190.716 66.891 190.806 67.1018 190.986 67.2073C191.076 67.3127 191.256 67.3127 191.436 67.3127H193.146C193.326 67.3127 193.416 67.3127 193.596 67.2073C193.686 67.1018 193.866 66.9964 193.956 66.891C194.046 66.7855 194.046 66.5747 194.046 66.3638V60.7757H200.436V66.3638Z" fill="#8FD6C2"/>
<path d="M187.026 67.3127C187.206 67.3127 187.296 67.3127 187.476 67.2073C187.566 67.1018 187.746 66.9964 187.836 66.7855C187.926 66.6801 187.926 66.4692 187.926 66.2584V52.6573C187.926 52.4464 187.926 52.3409 187.836 52.1301C187.746 52.0246 187.656 51.8138 187.566 51.7083C187.476 51.6029 187.296 51.6029 187.116 51.6029H184.326C184.146 51.6029 184.056 51.6029 183.876 51.7083C183.696 51.8138 183.516 51.9192 183.426 52.1301C183.246 52.2355 183.156 52.4464 183.066 52.6573L177.756 63.6225V52.6573C177.756 52.4464 177.756 52.3409 177.666 52.1301C177.576 52.0246 177.486 51.8138 177.306 51.8138C177.216 51.7083 177.036 51.7083 176.856 51.7083H175.236C175.056 51.7083 174.876 51.7083 174.786 51.8138C174.696 51.9192 174.516 52.0246 174.516 52.1301C174.426 52.2355 174.426 52.4464 174.426 52.6573V66.2584C174.426 66.4692 174.426 66.5747 174.516 66.7855C174.606 66.891 174.696 67.1018 174.786 67.2073C174.876 67.3127 175.056 67.3127 175.236 67.3127H178.296C178.476 67.3127 178.656 67.3127 178.836 67.2073C179.016 67.1018 179.196 66.9964 179.286 66.7855C179.466 66.6801 179.556 66.4692 179.646 66.2584L184.506 56.1366V66.2584C184.506 66.4692 184.506 66.5747 184.596 66.7855C184.686 66.891 184.776 67.1018 184.956 67.2073C185.046 67.3127 185.226 67.3127 185.406 67.3127H187.026Z" fill="#8FD6C2"/>
<path d="M172.085 67.3127C172.265 67.3127 172.355 67.3127 172.535 67.2072C172.625 67.1018 172.805 66.9964 172.895 66.7855C172.985 66.6801 172.985 66.4692 172.985 66.2583V65.204C172.985 64.9931 172.985 64.7822 172.895 64.6768C172.805 64.5714 172.715 64.3605 172.535 64.3605C172.445 64.2551 172.265 64.2551 172.085 64.2551H171.005V52.6572C171.005 52.4464 171.005 52.2355 170.915 52.13C170.825 52.0246 170.735 51.8137 170.555 51.8137C170.465 51.7083 170.285 51.7083 170.105 51.7083H168.305C168.125 51.7083 168.035 51.7083 167.855 51.8137C167.765 51.9192 167.585 52.0246 167.495 52.13C167.405 52.2355 167.405 52.4464 167.405 52.6572V64.2551H161.105V52.6572C161.105 52.4464 161.105 52.2355 161.015 52.13C160.925 52.0246 160.835 51.8137 160.655 51.8137C160.565 51.7083 160.385 51.7083 160.205 51.7083H158.405C158.225 51.7083 158.135 51.7083 157.955 51.8137C157.865 51.9192 157.685 52.0246 157.595 52.13C157.505 52.2355 157.505 52.4464 157.505 52.6572V66.2583C157.505 66.4692 157.505 66.5746 157.595 66.7855C157.685 66.8909 157.775 67.1018 157.955 67.2072C158.045 67.3127 158.225 67.3127 158.405 67.3127H172.085Z" fill="#8FD6C2"/>
<path d="M154.175 67.3127C154.355 67.3127 154.445 67.3127 154.625 67.2073C154.715 67.1018 154.895 66.9964 154.985 66.7855C155.075 66.6801 155.075 66.4692 155.075 66.2584V52.6573C155.075 52.4464 155.075 52.3409 154.985 52.1301C154.895 52.0246 154.805 51.8138 154.715 51.7083C154.625 51.6029 154.445 51.6029 154.265 51.6029H151.475C151.295 51.6029 151.205 51.6029 151.025 51.7083C150.845 51.8138 150.665 51.9192 150.575 52.1301C150.395 52.2355 150.305 52.4464 150.215 52.6573L144.905 63.6225V52.6573C144.905 52.4464 144.905 52.3409 144.815 52.1301C144.725 52.0246 144.635 51.8138 144.455 51.8138C144.365 51.7083 144.185 51.7083 144.005 51.7083H142.385C142.205 51.7083 142.025 51.7083 141.935 51.8138C141.845 51.9192 141.665 52.0246 141.665 52.1301C141.575 52.2355 141.575 52.4464 141.575 52.6573V66.2584C141.575 66.4692 141.575 66.5747 141.665 66.7855C141.755 66.891 141.845 67.1018 141.935 67.2073C142.025 67.3127 142.205 67.3127 142.385 67.3127H145.445C145.625 67.3127 145.805 67.3127 145.985 67.2073C146.165 67.1018 146.345 66.9964 146.435 66.7855C146.615 66.6801 146.705 66.4692 146.795 66.2584L151.655 56.1366V66.2584C151.655 66.4692 151.655 66.5747 151.745 66.7855C151.835 66.891 151.925 67.1018 152.105 67.2073C152.195 67.3127 152.375 67.3127 152.555 67.3127H154.175Z" fill="#8FD6C2"/>
<path d="M138.694 52.13C138.604 52.0246 138.514 51.8137 138.334 51.8137C138.244 51.7083 138.064 51.7083 137.884 51.7083H132.844C132.124 51.7083 131.494 51.8137 130.864 51.9192C130.234 52.0246 129.604 52.2355 129.064 52.5518C128.524 52.8681 128.074 53.2898 127.624 53.817C127.264 54.3442 126.904 55.0822 126.724 55.9257L125.014 64.2551H124.294C124.114 64.2551 124.024 64.2551 123.844 64.3605C123.754 64.4659 123.574 64.5714 123.484 64.6768C123.394 64.7822 123.394 64.9931 123.394 65.204V66.2583C123.394 66.4692 123.394 66.5746 123.484 66.7855C123.574 66.8909 123.664 67.1018 123.844 67.2072C123.934 67.3127 124.114 67.3127 124.294 67.3127H137.884C138.064 67.3127 138.154 67.3127 138.334 67.2072C138.424 67.1018 138.604 66.9964 138.694 66.8909C138.784 66.7855 138.784 66.5746 138.784 66.3638V52.6572C138.784 52.4464 138.694 52.3409 138.694 52.13ZM135.274 64.2551H128.704L130.234 56.8746C130.324 56.4529 130.504 56.0311 130.684 55.7148C130.864 55.3985 131.134 55.1877 131.404 54.9768C131.674 54.7659 132.034 54.6605 132.484 54.6605H135.274V64.2551Z" fill="#8FD6C2"/>
<path d="M122.224 51.6029H111.423C111.243 51.6029 111.153 51.6029 110.973 51.7083C110.883 51.8138 110.703 51.9192 110.613 52.0246C110.523 52.1301 110.523 52.341 110.523 52.5518V66.2584C110.523 66.4692 110.523 66.6801 110.613 66.7855C110.703 66.9964 110.793 67.1018 110.883 67.2073C110.973 67.3127 111.153 67.3127 111.333 67.3127H122.044C122.224 67.3127 122.404 67.3127 122.494 67.2073C122.584 67.1018 122.764 66.9964 122.764 66.7855C122.854 66.6801 122.854 66.4692 122.854 66.2584V65.204C122.854 64.9931 122.854 64.8877 122.764 64.6768C122.674 64.5714 122.584 64.3605 122.494 64.3605C122.404 64.2551 122.224 64.2551 122.044 64.2551H113.944V60.9866H120.964C121.144 60.9866 121.234 60.9866 121.414 60.8812C121.504 60.7757 121.684 60.6703 121.774 60.4594C121.864 60.354 121.864 60.1431 121.864 59.9323V58.8779C121.864 58.667 121.864 58.5616 121.774 58.3507C121.684 58.2453 121.594 58.0344 121.414 57.929C121.324 57.8236 121.144 57.8236 120.964 57.8236H113.944V54.6605H122.044C122.224 54.6605 122.314 54.6605 122.494 54.5551C122.584 54.4497 122.764 54.3442 122.854 54.2388C122.944 54.1333 122.944 53.9225 122.944 53.7116V52.6573C122.944 52.4464 122.944 52.2355 122.854 52.1301C122.764 52.0246 122.674 51.8138 122.494 51.8138C122.494 51.7083 122.314 51.6029 122.224 51.6029Z" fill="#8FD6C2"/>
<path d="M99.9931 67.3127C100.173 67.3127 100.353 67.3127 100.443 67.2073C100.623 67.1018 100.713 66.9964 100.893 66.891C100.983 66.7855 101.073 66.5747 101.163 66.3638L104.493 55.6094V66.2584C104.493 66.4692 104.493 66.6801 104.583 66.7855C104.673 66.9964 104.763 67.1018 104.853 67.2073C104.943 67.3127 105.123 67.3127 105.303 67.3127H107.013C107.193 67.3127 107.373 67.3127 107.463 67.2073C107.553 67.1018 107.733 66.9964 107.733 66.7855C107.823 66.6801 107.823 66.4692 107.823 66.2584V52.6573C107.823 52.4464 107.823 52.2355 107.733 52.1301C107.643 51.9192 107.553 51.8138 107.463 51.7083C107.373 51.6029 107.193 51.6029 107.013 51.6029H103.233C103.053 51.6029 102.873 51.6029 102.783 51.7083C102.603 51.8138 102.513 51.9192 102.423 52.1301C102.333 52.2355 102.243 52.4464 102.153 52.6573L99.3631 62.041L96.573 52.6573C96.483 52.4464 96.393 52.3409 96.303 52.1301C96.213 52.0246 96.033 51.8138 95.943 51.7083C95.763 51.6029 95.673 51.6029 95.493 51.6029H91.7129C91.5329 51.6029 91.4428 51.6029 91.2628 51.7083C91.1728 51.8138 90.9928 51.9192 90.9928 52.1301C90.9028 52.2355 90.9028 52.4464 90.9028 52.6573V66.2584C90.9028 66.4692 90.9028 66.6801 90.9928 66.7855C91.0828 66.9964 91.1728 67.1018 91.2628 67.2073C91.3528 67.3127 91.5329 67.3127 91.7129 67.3127H93.4229C93.6029 67.3127 93.7829 67.3127 93.8729 67.2073C93.9629 67.1018 94.1429 66.9964 94.1429 66.7855C94.2329 66.6801 94.2329 66.4692 94.2329 66.2584V55.6094L97.563 66.3638C97.653 66.5747 97.743 66.6801 97.833 66.891C97.923 66.9964 98.103 67.2073 98.283 67.2073C98.463 67.3127 98.553 67.3127 98.733 67.3127H99.9931Z" fill="#8FD6C2"/>
<path d="M265.957 43.484C266.137 43.484 266.227 43.484 266.407 43.3785C266.497 43.2731 266.677 43.1677 266.767 42.9568C266.857 42.8514 266.857 42.6405 266.857 42.4296V28.8285C266.857 28.6177 266.857 28.5122 266.767 28.3014C266.677 28.1959 266.587 27.9851 266.497 27.8796C266.407 27.7742 266.227 27.7742 266.047 27.7742H263.257C263.077 27.7742 262.987 27.7742 262.807 27.8796C262.627 27.9851 262.537 28.0905 262.357 28.3014C262.177 28.4068 262.087 28.6177 261.997 28.8285L256.687 39.6883V28.8285C256.687 28.6177 256.687 28.5122 256.597 28.3014C256.507 28.1959 256.417 27.9851 256.237 27.9851C256.147 27.8796 255.967 27.8796 255.787 27.8796H254.167C253.987 27.8796 253.897 27.8796 253.717 27.9851C253.627 28.0905 253.447 28.1959 253.447 28.3014C253.357 28.4068 253.357 28.6177 253.357 28.8285V42.4296C253.357 42.6405 253.357 42.7459 253.447 42.9568C253.537 43.0622 253.627 43.2731 253.717 43.3785C253.807 43.484 253.987 43.484 254.167 43.484H257.227C257.407 43.484 257.587 43.484 257.767 43.3785C257.947 43.2731 258.127 43.1677 258.217 42.9568C258.397 42.8514 258.487 42.6405 258.577 42.4296L263.437 32.3079V42.4296C263.437 42.6405 263.437 42.7459 263.527 42.9568C263.617 43.0622 263.707 43.2731 263.887 43.3785C263.977 43.484 264.157 43.484 264.337 43.484H265.957ZM260.107 24.1894C259.747 24.1894 259.567 24.084 259.297 23.9785C259.117 23.8731 258.937 23.6622 258.847 23.4514C258.757 23.2405 258.667 23.1351 258.577 23.0296C258.487 22.9242 258.307 22.9242 258.217 22.9242H257.497C257.317 22.9242 257.227 22.9242 257.137 23.0296C257.047 23.1351 256.957 23.2405 256.957 23.4514C256.957 24.084 257.137 24.7166 257.317 25.1383C257.587 25.6655 257.947 25.9818 258.397 26.2981C258.847 26.509 259.387 26.7198 260.017 26.7198C260.647 26.7198 261.187 26.6144 261.637 26.2981C262.087 26.0872 262.447 25.6655 262.717 25.1383C262.987 24.6112 263.077 24.084 263.077 23.4514C263.077 23.2405 263.077 23.1351 262.897 23.0296C262.807 22.9242 262.717 22.9242 262.537 22.9242H261.907C261.727 22.9242 261.637 22.9242 261.547 23.0296C261.457 23.1351 261.367 23.2405 261.277 23.4514C261.187 23.6622 261.007 23.8731 260.827 23.9785C260.647 24.084 260.377 24.1894 260.107 24.1894ZM249.036 43.484C249.216 43.484 249.306 43.484 249.486 43.3785C249.576 43.2731 249.756 43.1677 249.846 42.9568C249.936 42.8514 249.936 42.6405 249.936 42.4296V28.8285C249.936 28.6177 249.936 28.5122 249.846 28.3014C249.756 28.1959 249.666 27.9851 249.576 27.8796C249.486 27.7742 249.306 27.7742 249.126 27.7742H246.336C246.156 27.7742 246.066 27.7742 245.886 27.8796C245.706 27.9851 245.616 28.0905 245.436 28.3014C245.256 28.4068 245.166 28.6177 245.076 28.8285L239.766 39.7938V28.8285C239.766 28.6177 239.766 28.5122 239.676 28.3014C239.586 28.1959 239.496 27.9851 239.316 27.9851C239.226 27.8796 239.046 27.8796 238.866 27.8796H237.246C237.066 27.8796 236.976 27.8796 236.796 27.9851C236.706 28.0905 236.526 28.1959 236.526 28.3014C236.436 28.4068 236.436 28.6177 236.436 28.8285V42.4296C236.436 42.6405 236.436 42.7459 236.526 42.9568C236.616 43.0622 236.706 43.2731 236.796 43.3785C236.886 43.484 237.066 43.484 237.246 43.484H240.306C240.486 43.484 240.666 43.484 240.846 43.3785C241.026 43.2731 241.206 43.1677 241.296 42.9568C241.476 42.8514 241.566 42.6405 241.656 42.4296L246.516 32.3079V42.4296C246.516 42.6405 246.516 42.7459 246.606 42.9568C246.696 43.0622 246.786 43.2731 246.966 43.3785C247.056 43.484 247.236 43.484 247.416 43.484H249.036ZM223.116 43.484C223.296 43.484 223.386 43.484 223.566 43.3785C223.656 43.2731 223.836 43.1677 223.926 43.0622C224.016 42.9568 224.016 42.7459 224.016 42.5351V37.2633H225.996C226.356 37.2633 226.716 37.3688 227.076 37.5796C227.346 37.7905 227.616 38.0014 227.886 38.3177C228.156 38.634 228.336 39.0557 228.606 39.4775L230.226 42.5351C230.316 42.7459 230.496 42.8514 230.586 43.0622C230.766 43.1677 230.946 43.3785 231.126 43.3785C231.306 43.484 231.486 43.484 231.666 43.484H233.826C234.006 43.484 234.096 43.484 234.186 43.3785C234.276 43.2731 234.276 43.1677 234.276 43.0622C234.276 42.9568 234.186 42.7459 234.096 42.5351L231.756 38.2122C231.666 38.0014 231.486 37.6851 231.306 37.4742C231.126 37.1579 230.946 36.947 230.676 36.7362C230.496 36.5253 230.226 36.3144 230.046 36.1035C229.776 35.8927 229.596 35.7872 229.326 35.7872C229.776 35.6818 230.136 35.4709 230.406 35.2601C230.676 35.0492 230.946 34.7329 231.126 34.4166C231.306 34.1003 231.486 33.784 231.666 33.4677L233.646 29.1448C233.826 28.8285 233.826 28.6177 233.826 28.4068C233.736 28.1959 233.646 28.0905 233.376 28.0905H231.216C230.946 28.0905 230.766 28.1959 230.496 28.3014C230.226 28.5122 230.046 28.7231 229.866 29.1448L228.426 32.2025C228.156 32.7296 227.886 33.1514 227.616 33.4677C227.346 33.784 227.076 33.9948 226.806 34.2057C226.536 34.3112 226.176 34.4166 225.816 34.4166H223.836V29.1448C223.836 28.934 223.836 28.7231 223.746 28.6177C223.656 28.5122 223.566 28.3014 223.386 28.1959C223.296 28.0905 223.116 28.0905 222.936 28.0905H221.226C221.046 28.0905 220.956 28.0905 220.776 28.1959C220.686 28.3014 220.506 28.4068 220.416 28.6177C220.326 28.8285 220.326 28.934 220.326 29.1448V42.7459C220.326 42.9568 220.326 43.1677 220.416 43.2731C220.506 43.484 220.596 43.5894 220.776 43.6948C220.866 43.8003 221.046 43.8003 221.226 43.8003H223.116V43.484ZM203.405 35.6818C203.405 37.4742 203.675 38.9503 204.215 40.1101C204.755 41.2698 205.475 42.1133 206.555 42.7459C207.545 43.2731 208.895 43.5894 210.335 43.5894H212.585C213.125 43.5894 213.665 43.484 214.115 43.3785C214.655 43.2731 215.105 43.0622 215.556 42.7459C216.006 42.5351 216.456 42.2188 216.726 41.797C217.086 41.3753 217.356 40.9535 217.536 40.4264C217.716 39.8992 217.806 39.372 217.806 38.7394C217.806 38.5285 217.806 38.3177 217.716 38.1068C217.626 38.0014 217.536 37.7905 217.446 37.7905C217.356 37.6851 217.266 37.6851 217.176 37.5796C217.086 37.5796 216.996 37.5796 216.906 37.5796H215.826C215.646 37.5796 215.465 37.5796 215.285 37.6851C215.105 37.7905 215.015 37.8959 214.835 38.1068C214.655 38.3177 214.565 38.5285 214.475 38.8448C214.295 39.372 213.935 39.7938 213.575 40.1101C213.215 40.4264 212.765 40.5318 212.135 40.5318H210.245C209.525 40.5318 208.985 40.4264 208.535 40.3209C208.085 40.1101 207.725 39.8992 207.455 39.4775C207.185 39.0557 207.005 38.634 206.915 38.0014C206.825 37.3688 206.735 36.6307 206.735 35.6818C206.735 34.7329 206.825 33.9948 206.915 33.3622C207.005 32.7296 207.185 32.2025 207.455 31.8862C207.725 31.4644 208.085 31.2535 208.535 31.0427C208.985 30.8318 209.525 30.8318 210.245 30.8318H211.865C212.405 30.8318 212.945 31.0427 213.305 31.2535C213.665 31.5698 213.935 31.9916 214.205 32.5188C214.295 32.8351 214.475 33.0459 214.565 33.2568C214.745 33.4677 214.835 33.5731 215.015 33.6785C215.195 33.784 215.375 33.784 215.556 33.784H216.636C216.726 33.784 216.816 33.784 216.906 33.784C216.996 33.784 217.086 33.6785 217.176 33.5731C217.266 33.4677 217.356 33.3622 217.446 33.2568C217.536 33.1514 217.536 32.9405 217.536 32.6242C217.536 31.9916 217.446 31.4644 217.266 30.9372C217.086 30.4101 216.816 29.9883 216.456 29.5666C216.096 29.1448 215.736 28.8285 215.285 28.6177C214.835 28.4068 214.385 28.1959 213.845 27.9851C213.305 27.8796 212.855 27.7742 212.315 27.7742H210.245C208.715 27.7742 207.455 28.0905 206.465 28.6177C205.475 29.1448 204.665 30.0938 204.125 31.2535C203.675 32.4133 203.405 33.8894 203.405 35.6818ZM200.885 27.7742H190.175C189.995 27.7742 189.905 27.7742 189.725 27.8796C189.635 27.9851 189.455 28.0905 189.365 28.1959C189.275 28.3014 189.275 28.5122 189.275 28.7231V42.3242C189.275 42.5351 189.275 42.7459 189.365 42.8514C189.455 43.0622 189.545 43.1677 189.635 43.2731C189.725 43.3785 189.905 43.3785 190.085 43.3785H200.795C200.975 43.3785 201.065 43.3785 201.245 43.2731C201.335 43.1677 201.515 43.0622 201.515 42.8514C201.605 42.7459 201.605 42.5351 201.605 42.3242V41.2698C201.605 41.059 201.605 40.9535 201.515 40.7427C201.425 40.6372 201.335 40.4264 201.245 40.4264C201.155 40.3209 200.975 40.3209 200.795 40.3209H192.695V37.0525H199.715C199.895 37.0525 199.985 37.0525 200.165 36.947C200.255 36.8416 200.435 36.7362 200.525 36.5253C200.615 36.4198 200.615 36.209 200.615 35.9981V34.9438C200.615 34.7329 200.615 34.6275 200.525 34.4166C200.435 34.3112 200.345 34.1003 200.165 33.9948C200.075 33.8894 199.895 33.8894 199.715 33.8894H192.695V30.7264H200.795C200.975 30.7264 201.065 30.7264 201.245 30.6209C201.335 30.5155 201.515 30.4101 201.605 30.3046C201.695 30.1992 201.695 29.9883 201.695 29.7775V28.7231C201.695 28.5122 201.695 28.3014 201.605 28.1959C201.515 28.0905 201.425 27.8796 201.245 27.8796C201.245 27.8796 201.065 27.7742 200.885 27.7742ZM173.074 32.5188C173.074 33.4677 173.254 34.4166 173.524 35.1546C173.794 35.8927 174.244 36.5253 174.694 36.947C175.234 37.3688 175.774 37.7905 176.494 38.0014C177.214 38.2122 177.934 38.3177 178.835 38.3177H182.435V42.5351C182.435 42.7459 182.435 42.8514 182.525 43.0622C182.615 43.1677 182.705 43.3785 182.885 43.3785C182.975 43.484 183.155 43.484 183.335 43.484H185.045C185.225 43.484 185.405 43.484 185.495 43.3785C185.585 43.2731 185.765 43.1677 185.855 42.9568C185.945 42.8514 185.945 42.6405 185.945 42.4296V28.8285C185.945 28.6177 185.945 28.4068 185.855 28.3014C185.765 28.1959 185.675 27.9851 185.495 27.9851C185.315 27.8796 185.225 27.8796 185.045 27.8796H183.335C183.155 27.8796 183.065 27.8796 182.885 27.9851C182.795 28.0905 182.615 28.1959 182.525 28.3014C182.435 28.4068 182.435 28.6177 182.435 28.8285V35.1546H178.835C178.115 35.1546 177.574 34.9438 177.124 34.522C176.764 34.1003 176.584 33.4677 176.584 32.5188V28.8285C176.584 28.6177 176.584 28.4068 176.494 28.3014C176.404 28.1959 176.314 27.9851 176.134 27.9851C176.044 27.8796 175.864 27.8796 175.684 27.8796H173.974C173.794 27.8796 173.614 27.8796 173.524 27.9851C173.344 28.0905 173.254 28.1959 173.164 28.4068C173.074 28.5122 173.074 28.7231 173.074 28.934V32.5188ZM169.384 43.484C169.564 43.484 169.654 43.484 169.834 43.3785C169.924 43.2731 170.104 43.1677 170.194 42.9568C170.284 42.8514 170.284 42.6405 170.284 42.4296V28.8285C170.284 28.6177 170.284 28.5122 170.194 28.3014C170.104 28.1959 170.014 27.9851 169.924 27.8796C169.834 27.7742 169.654 27.7742 169.474 27.7742H166.684C166.504 27.7742 166.414 27.7742 166.234 27.8796C166.054 27.9851 165.964 28.0905 165.784 28.3014C165.604 28.4068 165.514 28.6177 165.424 28.8285L160.114 39.7938V28.8285C160.114 28.6177 160.114 28.5122 160.024 28.3014C159.934 28.1959 159.844 27.9851 159.664 27.9851C159.574 27.8796 159.394 27.8796 159.214 27.8796H157.504C157.324 27.8796 157.234 27.8796 157.054 27.9851C156.964 28.0905 156.784 28.1959 156.784 28.3014C156.694 28.4068 156.694 28.6177 156.694 28.8285V42.4296C156.694 42.6405 156.694 42.7459 156.784 42.9568C156.874 43.0622 156.964 43.2731 157.054 43.3785C157.144 43.484 157.324 43.484 157.504 43.484H160.564C160.744 43.484 160.924 43.484 161.104 43.3785C161.284 43.2731 161.464 43.1677 161.554 42.9568C161.734 42.8514 161.824 42.6405 161.914 42.4296L166.774 32.3079V42.4296C166.774 42.6405 166.774 42.7459 166.864 42.9568C166.954 43.0622 167.044 43.2731 167.224 43.3785C167.314 43.484 167.494 43.484 167.674 43.484H169.384ZM149.764 42.5351C149.764 42.7459 149.764 42.8514 149.854 43.0622C149.944 43.1677 150.034 43.3785 150.214 43.3785C150.304 43.484 150.484 43.484 150.664 43.484H152.374C152.554 43.484 152.734 43.484 152.824 43.3785C152.914 43.2731 153.094 43.1677 153.184 42.9568C153.274 42.8514 153.274 42.6405 153.274 42.4296V28.8285C153.274 28.6177 153.274 28.4068 153.184 28.3014C153.094 28.1959 153.004 27.9851 152.824 27.9851C152.644 27.8796 152.554 27.8796 152.374 27.8796H150.664C150.484 27.8796 150.394 27.8796 150.214 27.9851C150.124 28.0905 149.944 28.1959 149.854 28.3014C149.764 28.4068 149.764 28.6177 149.764 28.8285V33.784H143.374V28.8285C143.374 28.6177 143.374 28.4068 143.284 28.3014C143.194 28.1959 143.104 27.9851 142.924 27.9851C142.834 27.8796 142.654 27.8796 142.474 27.8796H140.763C140.583 27.8796 140.403 27.8796 140.313 27.9851C140.133 28.0905 140.043 28.1959 139.953 28.3014C139.863 28.4068 139.863 28.6177 139.863 28.8285V42.4296C139.863 42.6405 139.863 42.7459 139.953 42.9568C140.043 43.0622 140.133 43.2731 140.313 43.3785C140.403 43.484 140.583 43.484 140.763 43.484H142.474C142.654 43.484 142.744 43.484 142.924 43.3785C143.014 43.2731 143.194 43.1677 143.284 43.0622C143.374 42.9568 143.374 42.7459 143.374 42.5351V36.947H149.764V42.5351ZM135.633 43.484C135.813 43.484 135.903 43.484 136.083 43.3785C136.173 43.2731 136.353 43.1677 136.443 42.9568C136.533 42.8514 136.533 42.6405 136.533 42.4296V28.8285C136.533 28.6177 136.533 28.5122 136.443 28.3014C136.353 28.1959 136.263 27.9851 136.173 27.8796C136.083 27.7742 135.903 27.7742 135.723 27.7742H132.933C132.753 27.7742 132.663 27.7742 132.483 27.8796C132.303 27.9851 132.213 28.0905 132.033 28.3014C131.853 28.4068 131.763 28.6177 131.673 28.8285L126.363 39.7938V28.8285C126.363 28.6177 126.363 28.5122 126.273 28.3014C126.183 28.1959 126.093 27.9851 125.913 27.9851C125.823 27.8796 125.643 27.8796 125.463 27.8796H123.843C123.663 27.8796 123.573 27.8796 123.393 27.9851C123.303 28.0905 123.123 28.1959 123.123 28.3014C123.033 28.4068 123.033 28.6177 123.033 28.8285V42.4296C123.033 42.6405 123.033 42.7459 123.123 42.9568C123.213 43.0622 123.303 43.2731 123.393 43.3785C123.483 43.484 123.663 43.484 123.843 43.484H126.903C127.083 43.484 127.263 43.484 127.443 43.3785C127.623 43.2731 127.803 43.1677 127.893 42.9568C128.073 42.8514 128.163 42.6405 128.253 42.4296L133.113 32.3079V42.4296C133.113 42.6405 133.113 42.7459 133.203 42.9568C133.293 43.0622 133.383 43.2731 133.563 43.3785C133.653 43.484 133.833 43.484 134.013 43.484H135.633ZM119.523 42.4296V28.8285C119.523 28.6177 119.523 28.5122 119.433 28.3014C119.343 28.1959 119.253 27.9851 119.163 27.8796C119.073 27.7742 118.893 27.7742 118.803 27.7742H114.123C113.403 27.7742 112.773 27.7742 112.143 27.9851C111.513 28.0905 110.883 28.3014 110.343 28.6177C109.803 28.934 109.263 29.3557 108.903 29.8829C108.453 30.4101 108.183 31.1481 108.003 31.9916L105.663 42.5351C105.663 42.7459 105.663 42.8514 105.663 42.9568C105.663 43.0622 105.753 43.1677 105.933 43.2731C106.023 43.3785 106.203 43.3785 106.293 43.3785H108.183C108.363 43.3785 108.543 43.3785 108.633 43.2731C108.813 43.1677 108.903 43.0622 108.993 42.9568C109.083 42.8514 109.173 42.6405 109.263 42.4296L111.423 33.0459C111.513 32.6242 111.693 32.2025 111.963 31.8862C112.233 31.5698 112.503 31.2535 112.773 31.1481C113.133 30.9372 113.493 30.8318 113.853 30.8318H116.103V42.4296C116.103 42.6405 116.103 42.8514 116.193 42.9568C116.283 43.0622 116.373 43.2731 116.553 43.2731C116.643 43.3785 116.823 43.3785 117.003 43.3785H118.803C118.983 43.3785 119.073 43.3785 119.253 43.2731C119.343 43.1677 119.523 43.0622 119.523 42.9568C119.523 42.8514 119.523 42.6405 119.523 42.4296ZM93.4222 43.484C93.6022 43.484 93.6922 43.484 93.8723 43.3785C93.9623 43.2731 94.1423 43.1677 94.2323 43.0622C94.3223 42.9568 94.3223 42.7459 94.3223 42.5351V37.2633H96.3023C96.6623 37.2633 97.0223 37.3688 97.3823 37.5796C97.6523 37.7905 97.9224 38.0014 98.1924 38.3177C98.4624 38.634 98.6424 39.0557 98.9124 39.4775L100.532 42.5351C100.622 42.7459 100.802 42.8514 100.892 43.0622C101.072 43.1677 101.252 43.3785 101.432 43.3785C101.612 43.484 101.792 43.484 101.972 43.484H104.133C104.313 43.484 104.403 43.484 104.493 43.3785C104.583 43.2731 104.583 43.1677 104.583 43.0622C104.583 42.9568 104.493 42.7459 104.403 42.5351L102.062 38.2122C101.972 38.0014 101.792 37.6851 101.612 37.4742C101.432 37.1579 101.252 36.947 100.982 36.7362C100.802 36.5253 100.532 36.3144 100.352 36.1035C100.082 35.8927 99.9024 35.7872 99.6324 35.7872C100.082 35.6818 100.442 35.4709 100.712 35.2601C100.982 35.0492 101.252 34.7329 101.432 34.4166C101.612 34.1003 101.792 33.784 101.972 33.4677L103.953 29.1448C104.133 28.8285 104.133 28.6177 104.133 28.4068C104.043 28.1959 103.953 28.0905 103.683 28.0905H101.702C101.432 28.0905 101.252 28.1959 100.982 28.3014C100.712 28.5122 100.532 28.7231 100.352 29.1448L98.9124 32.2025C98.6424 32.7296 98.3724 33.1514 98.1024 33.4677C97.8324 33.784 97.5623 33.9948 97.2923 34.2057C97.0223 34.3112 96.6623 34.4166 96.3023 34.4166H94.3223V29.1448C94.3223 28.934 94.3223 28.7231 94.2323 28.6177C94.1423 28.5122 94.0523 28.3014 93.8723 28.1959C93.7822 28.0905 93.6022 28.0905 93.4222 28.0905H91.6222C91.4422 28.0905 91.3522 28.0905 91.1722 28.1959C91.0822 28.3014 90.9022 28.4068 90.8122 28.6177C90.7222 28.8285 90.7222 28.934 90.7222 29.1448V42.7459C90.7222 42.9568 90.7222 43.1677 90.8122 43.2731C90.9022 43.484 90.9922 43.5894 91.1722 43.6948C91.2622 43.8003 91.4422 43.8003 91.6222 43.8003H93.4222V43.484Z" fill="#477A6A"/>
<path d="M185.945 21.5535C186.125 21.5535 186.215 21.5535 186.395 21.4481C186.485 21.3426 186.665 21.2372 186.755 21.0263C186.845 20.9209 186.845 20.71 186.845 20.4992V7.00352C186.845 6.79265 186.845 6.68722 186.755 6.47635C186.665 6.37091 186.575 6.16004 186.485 6.05461C186.395 5.94917 186.215 5.94917 186.035 5.94917H183.245C183.065 5.94917 182.975 5.94917 182.795 6.05461C182.615 6.16004 182.435 6.26548 182.345 6.47635C182.165 6.58178 182.075 6.79265 181.985 7.00352L176.675 17.9687V6.89809C176.675 6.68722 176.675 6.58178 176.585 6.37091C176.495 6.26548 176.405 6.05461 176.225 6.05461C176.135 5.94917 175.955 5.94917 175.775 5.94917H174.155C173.975 5.94917 173.795 5.94917 173.705 6.05461C173.615 6.16004 173.435 6.26548 173.435 6.37091C173.345 6.47635 173.345 6.68722 173.345 6.89809V20.4992C173.345 20.71 173.345 20.8155 173.435 21.0263C173.525 21.1318 173.615 21.3426 173.705 21.4481C173.795 21.5535 173.975 21.5535 174.155 21.5535H177.215C177.395 21.5535 177.575 21.5535 177.755 21.4481C177.935 21.3426 178.115 21.2372 178.205 21.0263C178.385 20.9209 178.475 20.71 178.565 20.4992L183.425 10.3774V20.4992C183.425 20.71 183.425 20.8155 183.515 21.0263C183.605 21.1318 183.695 21.3426 183.875 21.4481C183.965 21.5535 184.145 21.5535 184.325 21.5535H185.945ZM180.005 2.25896C179.645 2.25896 179.465 2.15352 179.195 2.04809C179.015 1.94265 178.835 1.73178 178.745 1.52091C178.655 1.31004 178.565 1.20461 178.475 1.09918C178.475 0.888306 178.295 0.888306 178.115 0.888306H177.395C177.215 0.888306 177.125 0.888306 177.035 0.99374C176.945 1.09918 176.855 1.20461 176.855 1.41548C176.855 2.04809 177.035 2.6807 177.215 3.10244C177.485 3.62961 177.845 3.94591 178.295 4.26222C178.745 4.47309 179.285 4.68396 179.915 4.68396C180.545 4.68396 181.085 4.57852 181.535 4.26222C181.985 4.05135 182.345 3.62961 182.615 3.10244C182.885 2.57526 182.975 2.04809 182.975 1.41548C182.975 1.20461 182.975 1.09918 182.795 0.99374C182.885 0.888306 182.795 0.888306 182.615 0.888306H181.895C181.715 0.888306 181.625 0.888306 181.535 0.99374C181.445 1.09918 181.355 1.20461 181.265 1.41548C181.175 1.62635 180.995 1.83722 180.815 1.94265C180.635 2.15352 180.365 2.25896 180.005 2.25896ZM166.955 20.6046C166.955 20.8155 166.955 20.9209 167.045 21.1318C167.135 21.2372 167.225 21.4481 167.405 21.4481C167.495 21.5535 167.675 21.5535 167.855 21.5535H169.655C169.835 21.5535 170.015 21.5535 170.105 21.4481C170.195 21.3426 170.375 21.2372 170.465 21.0263C170.555 20.9209 170.555 20.71 170.555 20.4992V6.89809C170.555 6.68722 170.555 6.47635 170.465 6.37091C170.375 6.26548 170.285 6.05461 170.105 5.94917C169.925 5.84374 169.835 5.84374 169.655 5.84374H167.855C167.675 5.84374 167.585 5.84374 167.405 5.94917C167.315 6.05461 167.135 6.16004 167.045 6.37091C166.955 6.47635 166.955 6.68722 166.955 6.89809V20.6046ZM156.154 11.2209V6.89809C156.154 6.68722 156.154 6.47635 156.064 6.37091C155.974 6.26548 155.884 6.05461 155.704 5.94917C155.614 5.84374 155.434 5.84374 155.254 5.84374H153.454C153.274 5.84374 153.094 5.84374 153.004 5.94917C152.914 6.05461 152.734 6.16004 152.734 6.37091C152.644 6.47635 152.644 6.68722 152.644 6.89809V20.4992C152.644 20.71 152.644 20.8155 152.734 21.0263C152.824 21.1318 152.914 21.3426 153.004 21.4481C153.094 21.5535 153.274 21.5535 153.454 21.5535H159.934C160.654 21.5535 161.284 21.4481 161.914 21.2372C162.544 21.0263 163.084 20.71 163.534 20.2883C163.984 19.8666 164.344 19.3394 164.614 18.7068C164.884 18.0742 164.974 17.3361 164.974 16.4926C164.974 15.6492 164.794 14.9111 164.614 14.2785C164.344 13.6459 163.984 13.1187 163.534 12.697C163.084 12.2753 162.544 11.959 161.914 11.7481C161.284 11.5372 160.654 11.4318 159.934 11.4318H156.154V11.2209ZM160.024 14.384C160.564 14.384 160.924 14.5948 161.194 14.9111C161.464 15.2274 161.554 15.7546 161.554 16.4926C161.554 17.1253 161.464 17.6524 161.194 18.0742C160.924 18.3905 160.564 18.6013 160.024 18.6013H156.154V14.4894H160.024V14.384ZM145.714 14.9111C146.074 14.9111 146.344 15.0166 146.524 15.122C146.704 15.2274 146.884 15.5437 147.064 15.7546C147.154 16.0709 147.244 16.3872 147.244 16.7035C147.244 17.0198 147.154 17.4416 147.064 17.6524C146.974 17.9687 146.794 18.1796 146.524 18.285C146.344 18.3905 145.984 18.4959 145.714 18.4959H140.404V14.7003H145.714V14.9111ZM145.444 8.90135C145.804 8.90135 146.164 9.00678 146.344 9.32308C146.614 9.63939 146.704 9.95569 146.704 10.4829C146.704 11.01 146.614 11.4318 146.344 11.6426C146.074 11.959 145.804 12.0644 145.444 12.0644H140.404V8.90135H145.444ZM136.894 20.6046C136.894 20.8155 136.894 20.9209 136.984 21.1318C137.074 21.2372 137.164 21.4481 137.254 21.5535C137.344 21.6589 137.524 21.659 137.704 21.659H145.714C146.254 21.659 146.704 21.5535 147.244 21.4481C147.694 21.3426 148.144 21.1318 148.594 20.9209C149.044 20.71 149.404 20.3937 149.674 19.972C149.944 19.5503 150.214 19.1285 150.394 18.7068C150.574 18.1796 150.664 17.6524 150.664 17.0198C150.664 16.4926 150.574 16.0709 150.484 15.6492C150.394 15.2274 150.124 14.8057 149.854 14.384C149.584 13.9622 149.224 13.6459 148.864 13.435C149.134 13.1187 149.404 12.8024 149.584 12.4861C149.764 12.1698 149.944 11.8535 149.944 11.5372C150.034 11.2209 150.034 10.9046 150.034 10.4829C150.034 9.85026 149.944 9.21765 149.764 8.79591C149.584 8.26874 149.314 7.847 149.044 7.53069C148.684 7.21439 148.324 6.89809 147.964 6.68722C147.514 6.47635 147.154 6.26548 146.614 6.16004C146.164 6.05461 145.714 6.05461 145.174 6.05461H137.614C137.434 6.05461 137.254 6.05461 137.164 6.16004C137.074 6.26548 136.894 6.37091 136.894 6.58178C136.804 6.68722 136.804 6.89809 136.804 7.10896V20.6046H136.894ZM122.403 5.94917C122.223 5.94917 122.133 5.94917 121.953 6.05461C121.863 6.16004 121.683 6.26548 121.683 6.37091C121.593 6.47635 121.593 6.68722 121.593 6.89809V20.4992C121.593 20.71 121.593 20.8155 121.683 21.0263C121.773 21.1318 121.863 21.3426 122.043 21.4481C122.133 21.5535 122.313 21.5535 122.493 21.5535H124.293C124.473 21.5535 124.563 21.5535 124.743 21.4481C124.833 21.3426 125.013 21.2372 125.013 21.0263C125.103 20.9209 125.103 20.71 125.103 20.4992V18.0742H129.604C130.774 18.0742 131.764 17.8633 132.664 17.4416C133.474 17.0198 134.104 16.3872 134.554 15.4383C135.004 14.4894 135.184 13.435 135.184 11.959C135.184 10.5883 134.914 9.42852 134.554 8.47961C134.104 7.53069 133.474 6.89809 132.664 6.47635C131.854 6.05461 130.774 5.84374 129.604 5.84374H122.403V5.94917ZM128.434 9.00678C128.884 9.00678 129.334 9.00678 129.694 9.11222C130.054 9.21765 130.414 9.32308 130.684 9.53395C130.954 9.74482 131.224 10.0611 131.314 10.4829C131.494 10.9046 131.584 11.4318 131.584 12.0644C131.584 12.697 131.494 13.2242 131.314 13.6459C131.134 14.0676 130.954 14.384 130.684 14.5948C130.414 14.8057 130.054 14.9111 129.694 15.0166C129.334 15.122 128.884 15.122 128.434 15.122H125.103V9.00678H128.434ZM118.983 5.94917H108.183C108.003 5.94917 107.913 5.94917 107.733 6.05461C107.643 6.16004 107.463 6.26548 107.373 6.37091C107.283 6.47635 107.283 6.68722 107.283 6.89809V20.4992C107.283 20.71 107.283 20.9209 107.373 21.0263C107.463 21.2372 107.553 21.3426 107.643 21.4481C107.733 21.5535 107.913 21.5535 108.093 21.5535H118.803C118.983 21.5535 119.163 21.5535 119.253 21.4481C119.343 21.3426 119.523 21.2372 119.523 21.0263C119.613 20.9209 119.613 20.71 119.613 20.4992V19.4448C119.613 19.234 119.613 19.1285 119.523 18.9176C119.433 18.8122 119.343 18.6013 119.253 18.6013C119.163 18.4959 118.983 18.4959 118.803 18.4959H110.703V15.2274H117.723C117.903 15.2274 117.993 15.2274 118.173 15.122C118.263 15.0166 118.443 14.9111 118.533 14.7003C118.623 14.5948 118.623 14.384 118.623 14.1731V13.1187C118.623 12.9079 118.623 12.8024 118.533 12.5916C118.443 12.4861 118.353 12.2753 118.173 12.1698C118.083 12.0644 117.903 12.0644 117.723 12.0644H110.703V8.90135H118.803C118.983 8.90135 119.073 8.90135 119.253 8.79591C119.343 8.69048 119.523 8.58504 119.613 8.47961C119.703 8.37417 119.703 8.1633 119.703 7.95243V6.89809C119.703 6.68722 119.703 6.47635 119.613 6.37091C119.523 6.26548 119.433 6.05461 119.253 6.05461C119.253 5.94917 119.163 5.94917 118.983 5.94917ZM103.773 21.5535C103.953 21.5535 104.133 21.5535 104.223 21.4481C104.313 21.3426 104.493 21.2372 104.583 21.0263C104.673 20.9209 104.673 20.71 104.673 20.4992V6.89809C104.673 6.68722 104.673 6.47635 104.583 6.37091C104.493 6.26548 104.403 6.05461 104.223 6.05461C104.133 5.94917 103.953 5.94917 103.773 5.94917H91.6225C91.4425 5.94917 91.3525 5.94917 91.1725 6.05461C91.0825 6.16004 90.9025 6.26548 90.9025 6.37091C90.8125 6.47635 90.8125 6.68722 90.8125 6.89809V20.4992C90.8125 20.71 90.8125 20.8155 90.9025 21.0263C90.9925 21.1318 91.0825 21.3426 91.1725 21.4481C91.2625 21.5535 91.4425 21.5535 91.6225 21.5535H93.4226C93.6026 21.5535 93.6926 21.5535 93.8726 21.4481C93.9626 21.3426 94.1426 21.2372 94.2326 21.0263C94.3226 20.9209 94.3226 20.71 94.3226 20.4992V8.90135H101.163V20.4992C101.163 20.71 101.163 20.8155 101.253 21.0263C101.343 21.1318 101.433 21.3426 101.613 21.4481C101.703 21.5535 101.883 21.5535 102.063 21.5535H103.773Z" fill="#477A6A"/>
<path fill-rule="evenodd" clip-rule="evenodd" d="M38.431 61.5133C29.9708 47.9122 16.2904 39.1611 0.900024 39.1611C0.270007 42.2187 0 45.3818 0 48.5448C0 51.7079 0.270007 54.8709 0.810022 57.9285H0.900024C15.0304 57.9285 27.0007 69.2101 30.4208 84.4981C31.5908 76.1688 34.3809 68.2611 38.431 61.5133Z" fill="#BCE3D7"/>
<path fill-rule="evenodd" clip-rule="evenodd" d="M31.4111 93.8819C31.4111 75.7471 38.8813 59.721 50.4916 49.8101C56.3418 54.5547 63.092 57.8232 70.2922 59.1938C57.1518 63.2003 47.5216 77.2232 47.5216 93.8819C44.9115 94.5145 42.3014 94.8308 39.5114 94.8308C36.7213 94.8308 34.0212 94.5145 31.4111 93.8819Z" fill="#8FD6C2"/>
<path fill-rule="evenodd" clip-rule="evenodd" d="M40.4111 35.683C48.8714 49.1787 62.5517 57.9297 78.0321 57.9297C78.5722 54.8721 78.8422 51.7091 78.8422 48.546C78.8422 45.383 78.5722 42.22 78.0321 39.1623H77.9421C63.8118 39.1623 51.8414 27.8808 48.4213 12.5928C47.2513 21.0276 44.5512 28.8297 40.4111 35.683Z" fill="#69AF96"/>
<path fill-rule="evenodd" clip-rule="evenodd" d="M47.5215 3.31354C47.5215 21.4483 40.0513 37.4744 28.441 47.3853C22.6808 42.6407 15.9307 39.3722 8.73047 38.0016C21.7808 33.9951 31.5011 19.9722 31.5011 3.31354C34.1112 2.68093 36.7212 2.36462 39.5113 2.36462C42.2114 2.36462 44.9114 2.68093 47.5215 3.31354Z" fill="#477A6A"/>
</svg>
