<svg width="135" height="47" viewBox="0 0 135 47" fill="none" xmlns="http://www.w3.org/2000/svg">
<path d="M82.644 37.4183C82.4181 36.9466 82.1018 36.6322 81.6951 36.4226C81.2885 36.213 80.7462 36.1082 80.1589 36.1082H76.5893C76.4989 36.1082 76.4537 36.1082 76.3634 36.1606C76.3182 36.213 76.2278 36.2654 76.2278 36.3178C76.1826 36.3702 76.1826 36.475 76.1826 36.5798V43.3402C76.1826 43.445 76.1826 43.4974 76.2278 43.6022C76.273 43.6546 76.3182 43.7594 76.4085 43.8118C76.4537 43.8642 76.5441 43.8642 76.6345 43.8642H77.5382C77.6285 43.8642 77.6737 43.8642 77.7641 43.8118C77.8093 43.7594 77.8996 43.707 77.8996 43.6022C77.9448 43.5498 77.9448 43.445 77.9448 43.3402V42.1348H80.204C80.7914 42.1348 81.2885 42.03 81.7403 41.8204C82.147 41.6108 82.4633 41.2963 82.6892 40.8247C82.9151 40.353 83.0055 39.829 83.0055 39.0953C83.0055 38.414 82.8699 37.8375 82.644 37.4183ZM81.1077 39.8814C81.0174 40.091 80.927 40.2482 80.7914 40.353C80.6559 40.4578 80.4751 40.5102 80.2944 40.5626C80.1137 40.6151 79.8877 40.6151 79.6618 40.6151H77.9448V37.6279H79.6618C79.8877 37.6279 80.1137 37.6279 80.2944 37.6803C80.4751 37.7327 80.6559 37.7851 80.7914 37.89C80.927 37.9948 81.0625 38.152 81.1077 38.3616C81.1981 38.5712 81.2433 38.8333 81.2433 39.1477C81.1981 39.4097 81.1981 39.6717 81.1077 39.8814Z" fill="#8FD6C2"/>
<path d="M68.9985 36.1082C68.9081 36.1082 68.8177 36.1082 68.7725 36.1606C68.7273 36.213 68.637 36.2654 68.637 36.3178C68.5918 36.3702 68.5918 36.475 68.5918 36.5798V37.1039C68.5918 37.2087 68.5918 37.3135 68.637 37.3659C68.6822 37.4183 68.7273 37.5231 68.7725 37.5231C68.8177 37.5755 68.9081 37.5755 68.9985 37.5755H71.0769V43.3401C71.0769 43.445 71.0769 43.4974 71.1221 43.6022C71.1673 43.6546 71.2125 43.7594 71.3029 43.7594C71.3481 43.8118 71.4384 43.8118 71.5288 43.8118H72.4325C72.5229 43.8118 72.568 43.8118 72.6584 43.7594C72.7036 43.707 72.794 43.6546 72.8391 43.6022C72.8843 43.5498 72.8843 43.445 72.8843 43.3401V37.5755H74.9628C75.0532 37.5755 75.1435 37.5755 75.1887 37.5231C75.2339 37.4707 75.3243 37.4183 75.3243 37.3659C75.3695 37.3135 75.3695 37.2087 75.3695 37.1039V36.5798C75.3695 36.475 75.3695 36.3702 75.3243 36.3178C75.2791 36.2654 75.2339 36.1606 75.1887 36.1606C75.1435 36.1082 75.0532 36.1082 74.9628 36.1082H68.9985Z" fill="#8FD6C2"/>
<path d="M66.0162 43.3919C66.0162 43.4967 66.0162 43.5491 66.0614 43.6539C66.1066 43.7063 66.1517 43.8111 66.2421 43.8111C66.2873 43.8635 66.3777 43.8635 66.468 43.8635H67.3265C67.4169 43.8635 67.5073 43.8635 67.5525 43.8111C67.5976 43.7587 67.688 43.7063 67.7332 43.6015C67.7784 43.5491 67.7784 43.4443 67.7784 43.3395V36.5791C67.7784 36.4743 67.7784 36.3695 67.7332 36.3171C67.688 36.2647 67.6428 36.1599 67.5525 36.1075C67.4621 36.0551 67.4169 36.0551 67.3265 36.0551H66.468C66.3777 36.0551 66.3325 36.0551 66.2421 36.1075C66.1969 36.1599 66.1066 36.2123 66.0614 36.3171C66.0162 36.3695 66.0162 36.4743 66.0162 36.5791V39.0422H62.8081V36.5791C62.8081 36.4743 62.8081 36.3695 62.7629 36.3171C62.7177 36.2647 62.6725 36.1599 62.5822 36.1075C62.537 36.0551 62.4466 36.0551 62.3562 36.0551H61.4977C61.4074 36.0551 61.317 36.0551 61.2718 36.1075C61.1815 36.1599 61.1363 36.2123 61.0911 36.3171C61.0459 36.3695 61.0459 36.4743 61.0459 36.5791V43.3395C61.0459 43.4443 61.0459 43.4967 61.0911 43.6015C61.1363 43.6539 61.1815 43.7587 61.2718 43.8111C61.317 43.8635 61.4074 43.8635 61.4977 43.8635H62.3562C62.4466 43.8635 62.4918 43.8635 62.5822 43.8111C62.6274 43.7587 62.7177 43.7063 62.7629 43.6539C62.8081 43.6015 62.8081 43.4967 62.8081 43.3919V40.6144H66.0162V43.3919Z" fill="#8FD6C2"/>
<path d="M59.7363 36.1082H54.3141C54.2238 36.1082 54.1786 36.1082 54.0882 36.1606C54.043 36.213 53.9527 36.2654 53.9075 36.3178C53.8623 36.3702 53.8623 36.475 53.8623 36.5798V43.3402C53.8623 43.445 53.8623 43.5498 53.9075 43.6022C53.9527 43.707 53.9979 43.7594 54.043 43.8118C54.0882 43.8642 54.1786 43.8642 54.269 43.8642H59.6459C59.7363 43.8642 59.8267 43.8642 59.8718 43.8118C59.917 43.7594 60.0074 43.707 60.0074 43.6022C60.0526 43.5498 60.0526 43.445 60.0526 43.3402V42.8161C60.0526 42.7113 60.0526 42.6589 60.0074 42.5541C59.9622 42.5017 59.917 42.3969 59.8718 42.3969C59.8267 42.3444 59.7363 42.3444 59.6459 42.3444H55.5793V40.7199H59.1037C59.1941 40.7199 59.2393 40.7199 59.3296 40.6675C59.3748 40.6151 59.4652 40.5626 59.5104 40.4578C59.5555 40.4054 59.5555 40.3006 59.5555 40.1958V39.6717C59.5555 39.5669 59.5555 39.5145 59.5104 39.4097C59.4652 39.3573 59.42 39.2525 59.3296 39.2001C59.2844 39.1477 59.1941 39.1477 59.1037 39.1477H55.5793V37.5755H59.6459C59.7363 37.5755 59.7815 37.5755 59.8718 37.5231C59.917 37.4707 60.0074 37.4183 60.0526 37.3659C60.0978 37.3135 60.0978 37.2087 60.0978 37.1039V36.5798C60.0978 36.475 60.0978 36.3702 60.0526 36.3178C60.0074 36.2654 59.9622 36.1606 59.8718 36.1606C59.8718 36.1082 59.8267 36.1082 59.7363 36.1082Z" fill="#8FD6C2"/>
<path d="M52.7767 43.8637C52.867 43.8637 52.9122 43.8637 53.0026 43.8113C53.0478 43.7589 53.1381 43.7065 53.1833 43.6017C53.2285 43.5493 53.2285 43.4445 53.2285 43.3397V42.8156C53.2285 42.7108 53.2285 42.606 53.1833 42.5536C53.1381 42.5012 53.0929 42.3964 53.0026 42.3964C52.9574 42.344 52.867 42.344 52.7767 42.344H52.2796V36.5793C52.2796 36.4745 52.2796 36.3697 52.2344 36.3173C52.1893 36.2649 52.1441 36.1601 52.0537 36.1601C52.0085 36.1077 51.9182 36.1077 51.8278 36.1077H50.9241C50.8337 36.1077 50.7885 36.1077 50.6982 36.1601C50.653 36.2125 50.5626 36.2649 50.5174 36.3173C50.4722 36.3697 50.4722 36.4745 50.4722 36.5793V42.344H47.3093V36.5793C47.3093 36.4745 47.3093 36.3697 47.2641 36.3173C47.219 36.2649 47.1738 36.1601 47.0834 36.1601C47.0382 36.1077 46.9479 36.1077 46.8575 36.1077H45.9538C45.8634 36.1077 45.8182 36.1077 45.7279 36.1601C45.6827 36.2125 45.5923 36.2649 45.5471 36.3173C45.502 36.3697 45.502 36.4745 45.502 36.5793V43.3397C45.502 43.4445 45.502 43.4969 45.5471 43.6017C45.5923 43.6541 45.6375 43.7589 45.7279 43.8113C45.7731 43.8637 45.8634 43.8637 45.9538 43.8637H52.7767Z" fill="#8FD6C2"/>
<path d="M133.792 33.0159C133.882 33.0159 133.927 33.0159 134.018 32.9635C134.063 32.9111 134.153 32.8587 134.199 32.7539C134.244 32.7015 134.244 32.5967 134.244 32.4919V25.7315C134.244 25.6267 134.244 25.5743 134.199 25.4695C134.153 25.4171 134.108 25.3123 134.063 25.2599C134.018 25.2075 133.927 25.2075 133.837 25.2075H132.391C132.301 25.2075 132.256 25.2075 132.165 25.2599C132.075 25.3123 131.985 25.3647 131.939 25.4695C131.849 25.5219 131.804 25.6267 131.759 25.7315L129.093 31.1817V25.7315C129.093 25.6267 129.093 25.5743 129.048 25.4695C129.002 25.4171 128.957 25.3123 128.867 25.3123C128.822 25.2599 128.731 25.2599 128.641 25.2599H127.828C127.737 25.2599 127.647 25.2599 127.602 25.3123C127.556 25.3647 127.466 25.4171 127.466 25.4695C127.421 25.5219 127.421 25.6267 127.421 25.7315V32.4919C127.421 32.5967 127.421 32.6491 127.466 32.7539C127.511 32.8063 127.556 32.9111 127.602 32.9635C127.647 33.0159 127.737 33.0159 127.828 33.0159H129.364C129.454 33.0159 129.545 33.0159 129.635 32.9635C129.725 32.9111 129.816 32.8587 129.861 32.7539C129.951 32.7015 129.996 32.5967 130.042 32.4919L132.482 27.4609V32.4919C132.482 32.5967 132.482 32.6491 132.527 32.7539C132.572 32.8063 132.617 32.9111 132.708 32.9635C132.753 33.0159 132.843 33.0159 132.933 33.0159H133.792Z" fill="#8FD6C2"/>
<path d="M130.81 23.4254C130.629 23.4254 130.539 23.373 130.403 23.3206C130.313 23.2682 130.223 23.1634 130.177 23.0586C130.132 22.9537 130.087 22.9013 130.042 22.8489C129.997 22.7965 129.906 22.7965 129.861 22.7965H129.5C129.409 22.7965 129.364 22.7965 129.319 22.8489C129.274 22.9013 129.229 22.9537 129.229 23.0586C129.229 23.373 129.319 23.6875 129.409 23.8971C129.545 24.1592 129.726 24.3164 129.951 24.4737C130.177 24.5785 130.449 24.6833 130.765 24.6833C131.081 24.6833 131.352 24.6309 131.578 24.4737C131.804 24.3688 131.985 24.1592 132.12 23.8971C132.256 23.6351 132.301 23.373 132.301 23.0586C132.301 22.9537 132.301 22.9013 132.211 22.8489C132.166 22.7965 132.12 22.7965 132.03 22.7965H131.669C131.578 22.7965 131.533 22.7965 131.488 22.8489C131.443 22.9013 131.397 22.9537 131.352 23.0586C131.307 23.1634 131.217 23.2682 131.126 23.3206C131.081 23.373 130.946 23.4254 130.81 23.4254Z" fill="#8FD6C2"/>
<path d="M125.613 33.0159C125.703 33.0159 125.748 33.0159 125.839 32.9635C125.884 32.9111 125.974 32.8587 126.02 32.7539C126.065 32.7015 126.065 32.5967 126.065 32.4919V25.7315C126.065 25.6267 126.065 25.5743 126.02 25.4695C125.974 25.4171 125.929 25.3123 125.884 25.2599C125.839 25.2075 125.748 25.2075 125.658 25.2075H124.257C124.167 25.2075 124.122 25.2075 124.031 25.2599C123.941 25.3123 123.851 25.3647 123.806 25.4695C123.715 25.5219 123.67 25.6267 123.625 25.7315L120.959 31.1817V25.7315C120.959 25.6267 120.959 25.5743 120.914 25.4695C120.869 25.4171 120.823 25.3123 120.733 25.3123C120.688 25.2599 120.597 25.2599 120.507 25.2599H119.694C119.603 25.2599 119.513 25.2599 119.468 25.3123C119.423 25.3647 119.332 25.4171 119.332 25.4695C119.287 25.5219 119.287 25.6267 119.287 25.7315V32.4919C119.287 32.5967 119.287 32.6491 119.332 32.7539C119.377 32.8063 119.423 32.9111 119.468 32.9635C119.513 33.0159 119.603 33.0159 119.694 33.0159H121.23C121.32 33.0159 121.411 33.0159 121.501 32.9635C121.592 32.9111 121.682 32.8587 121.727 32.7539C121.817 32.7015 121.863 32.5967 121.908 32.4919L124.348 27.4609V32.4919C124.348 32.5967 124.348 32.6491 124.393 32.7539C124.438 32.8063 124.483 32.9111 124.574 32.9635C124.619 33.0159 124.709 33.0159 124.8 33.0159H125.613Z" fill="#8FD6C2"/>
<path d="M112.917 33.0159C113.007 33.0159 113.053 33.0159 113.143 32.9635C113.188 32.9111 113.279 32.8587 113.324 32.8063C113.369 32.7539 113.369 32.6491 113.369 32.5443V29.924H114.363C114.544 29.924 114.724 29.9764 114.905 30.0812C115.041 30.186 115.176 30.2908 115.312 30.448C115.447 30.6053 115.538 30.8149 115.673 31.0245L116.487 32.5443C116.532 32.6491 116.622 32.7539 116.667 32.8063C116.758 32.8587 116.848 32.9635 116.938 32.9635C117.029 33.0159 117.119 33.0159 117.21 33.0159H118.294C118.384 33.0159 118.43 33.0159 118.475 32.9635C118.52 32.9111 118.52 32.8587 118.52 32.8063C118.52 32.7539 118.475 32.6491 118.43 32.5443L117.255 30.3956C117.21 30.2908 117.119 30.1336 117.029 30.0288C116.938 29.8716 116.848 29.7668 116.713 29.662C116.622 29.5571 116.487 29.4523 116.396 29.3475C116.261 29.2427 116.17 29.1903 116.035 29.1903C116.261 29.1379 116.441 29.0331 116.577 28.9283C116.713 28.8235 116.848 28.6662 116.938 28.509C117.029 28.3518 117.119 28.1946 117.21 28.0374L118.249 25.8887C118.339 25.7315 118.339 25.6267 118.339 25.5219C118.294 25.4171 118.249 25.3647 118.113 25.3647H117.029C116.893 25.3647 116.803 25.4171 116.667 25.4695C116.532 25.5743 116.441 25.6791 116.351 25.8887L115.673 27.2513C115.538 27.5133 115.402 27.7229 115.267 27.8802C115.131 28.0374 114.996 28.1422 114.86 28.247C114.724 28.2994 114.544 28.3518 114.363 28.3518H113.369V25.7315C113.369 25.6267 113.369 25.5219 113.324 25.4695C113.279 25.4171 113.233 25.3123 113.143 25.2599C113.098 25.2075 113.007 25.2075 112.917 25.2075H112.013C111.923 25.2075 111.878 25.2075 111.787 25.2599C111.742 25.3123 111.652 25.3647 111.607 25.4695C111.562 25.5743 111.562 25.6267 111.562 25.7315V32.4919C111.562 32.5967 111.562 32.7015 111.607 32.7539C111.652 32.8587 111.697 32.9111 111.787 32.9635C111.833 33.0159 111.923 33.0159 112.013 33.0159H112.917Z" fill="#8FD6C2"/>
<path d="M103.382 29.1378C103.382 30.0287 103.517 30.7624 103.788 31.3388C104.06 31.9153 104.421 32.3346 104.963 32.649C105.46 32.911 106.138 33.0682 106.861 33.0682H107.991C108.262 33.0682 108.533 33.0158 108.759 32.9634C109.03 32.911 109.256 32.8062 109.482 32.649C109.708 32.5442 109.934 32.387 110.114 32.1773C110.295 31.9677 110.431 31.7581 110.521 31.4961C110.611 31.234 110.657 30.972 110.657 30.6576C110.657 30.5528 110.657 30.448 110.611 30.3431C110.566 30.2907 110.521 30.1859 110.476 30.1859C110.431 30.1335 110.385 30.1335 110.295 30.0811C110.25 30.0811 110.205 30.0811 110.16 30.0811H109.617C109.527 30.0811 109.437 30.0811 109.346 30.1335C109.256 30.1859 109.211 30.2383 109.12 30.3431C109.03 30.448 108.985 30.5528 108.94 30.71C108.849 30.972 108.668 31.1816 108.488 31.3388C108.307 31.4961 108.081 31.5485 107.765 31.5485H106.816C106.454 31.5485 106.183 31.4961 105.957 31.4437C105.731 31.3388 105.551 31.234 105.415 31.0244C105.28 30.8148 105.189 30.6052 105.144 30.2907C105.099 29.9763 105.054 29.6095 105.054 29.1378C105.054 28.6662 105.099 28.2993 105.144 27.9849C105.189 27.6704 105.28 27.4084 105.415 27.2512C105.551 27.0416 105.731 26.9368 105.957 26.832C106.183 26.7271 106.454 26.7271 106.816 26.7271H107.629C107.9 26.7271 108.171 26.832 108.352 26.9368C108.533 27.094 108.668 27.3036 108.804 27.5656C108.849 27.7229 108.94 27.8277 108.985 27.9325C109.075 28.0373 109.12 28.0897 109.211 28.1421C109.301 28.1945 109.391 28.1945 109.482 28.1945H110.024C110.069 28.1945 110.114 28.1945 110.16 28.1945C110.205 28.1945 110.25 28.1421 110.34 28.0897C110.385 28.0373 110.431 27.9849 110.476 27.8801C110.521 27.8277 110.521 27.7229 110.521 27.5656C110.521 27.2512 110.476 26.9892 110.385 26.7271C110.295 26.4651 110.16 26.2555 109.979 26.0459C109.798 25.8362 109.617 25.679 109.346 25.5742C109.12 25.4694 108.894 25.3646 108.623 25.2598C108.352 25.2074 108.126 25.155 107.855 25.155H106.816C106.048 25.155 105.415 25.3122 104.918 25.5742C104.421 25.8362 104.014 26.3079 103.743 26.8844C103.517 27.5132 103.382 28.2469 103.382 29.1378Z" fill="#8FD6C2"/>
<path d="M100.628 32.5443C100.628 32.6491 100.628 32.7015 100.673 32.8063C100.718 32.8587 100.763 32.9635 100.853 32.9635C100.899 33.0159 100.989 33.0159 101.079 33.0159H101.938C102.028 33.0159 102.119 33.0159 102.164 32.9635C102.209 32.9111 102.299 32.8587 102.345 32.7539C102.39 32.7015 102.39 32.5967 102.39 32.4919V25.7315C102.39 25.6267 102.39 25.5219 102.345 25.4695C102.299 25.4171 102.254 25.3123 102.164 25.2599C102.073 25.2075 102.028 25.2075 101.938 25.2075H101.079C100.989 25.2075 100.944 25.2075 100.853 25.2599C100.808 25.3123 100.718 25.3647 100.673 25.4695C100.628 25.5219 100.628 25.6267 100.628 25.7315V28.1946H97.4194V25.7315C97.4194 25.6267 97.4194 25.5219 97.3742 25.4695C97.3291 25.4171 97.2839 25.3123 97.1935 25.2599C97.1483 25.2075 97.058 25.2075 96.9676 25.2075H96.1091C96.0187 25.2075 95.9283 25.2075 95.8831 25.2599C95.7928 25.3123 95.7476 25.3647 95.7024 25.4695C95.6572 25.5219 95.6572 25.6267 95.6572 25.7315V32.4919C95.6572 32.5967 95.6572 32.6491 95.7024 32.7539C95.7476 32.8063 95.7928 32.9111 95.8831 32.9635C95.9283 33.0159 96.0187 33.0159 96.1091 33.0159H96.9676C97.058 33.0159 97.1031 33.0159 97.1935 32.9635C97.2387 32.9111 97.3291 32.8587 97.3742 32.8063C97.4194 32.7539 97.4194 32.6491 97.4194 32.5443V29.7668H100.628V32.5443Z" fill="#8FD6C2"/>
<path d="M93.8952 33.0159C93.9855 33.0159 94.0307 33.0159 94.1211 32.9635C94.1663 32.9111 94.2566 32.8587 94.3018 32.7539C94.347 32.7015 94.347 32.5967 94.347 32.4919V25.7315C94.347 25.6267 94.347 25.5743 94.3018 25.4695C94.2566 25.4171 94.2115 25.3123 94.1663 25.2599C94.1211 25.2075 94.0307 25.2075 93.9403 25.2075H92.5396C92.4493 25.2075 92.4041 25.2075 92.3137 25.2599C92.2233 25.3123 92.133 25.3647 92.0878 25.4695C91.9974 25.5219 91.9522 25.6267 91.907 25.7315L89.2412 31.1817V25.7315C89.2412 25.6267 89.2412 25.5743 89.196 25.4695C89.1508 25.4171 89.1056 25.3123 89.0152 25.3123C88.9701 25.2599 88.8797 25.2599 88.7893 25.2599H87.976C87.8856 25.2599 87.7953 25.2599 87.7501 25.3123C87.7049 25.3647 87.6145 25.4171 87.6145 25.4695C87.5693 25.5219 87.5693 25.6267 87.5693 25.7315V32.4919C87.5693 32.5967 87.5693 32.6491 87.6145 32.7539C87.6597 32.8063 87.7049 32.9111 87.7501 32.9635C87.7953 33.0159 87.8856 33.0159 87.976 33.0159H89.5123C89.6026 33.0159 89.693 33.0159 89.7834 32.9635C89.8737 32.9111 89.9641 32.8587 90.0093 32.7539C90.0997 32.7015 90.1449 32.5967 90.19 32.4919L92.63 27.4609V32.4919C92.63 32.5967 92.63 32.6491 92.6752 32.7539C92.7204 32.8063 92.7656 32.9111 92.8559 32.9635C92.9011 33.0159 92.9915 33.0159 93.0818 33.0159H93.8952Z" fill="#8FD6C2"/>
<path d="M86.3931 33.0159C86.4835 33.0159 86.5287 33.0159 86.6191 32.9635C86.6642 32.9111 86.7546 32.8587 86.7998 32.7539C86.845 32.7014 86.845 32.5966 86.845 32.4918V31.9678C86.845 31.863 86.845 31.7581 86.7998 31.7057C86.7546 31.6533 86.7094 31.5485 86.6191 31.5485C86.5739 31.4961 86.4835 31.4961 86.3931 31.4961H85.8509V25.7315C85.8509 25.6267 85.8509 25.5219 85.8057 25.4694C85.7605 25.417 85.7154 25.3122 85.625 25.3122C85.5798 25.2598 85.4894 25.2598 85.3991 25.2598H84.4954C84.405 25.2598 84.3598 25.2598 84.2695 25.3122C84.2243 25.3646 84.1339 25.417 84.0887 25.4694C84.0435 25.5219 84.0435 25.6267 84.0435 25.7315V31.4961H80.8806V25.7315C80.8806 25.6267 80.8806 25.5219 80.8354 25.4694C80.7903 25.417 80.7451 25.3122 80.6547 25.3122C80.6095 25.2598 80.5191 25.2598 80.4288 25.2598H79.5251C79.4347 25.2598 79.3895 25.2598 79.2992 25.3122C79.254 25.3646 79.1636 25.417 79.1184 25.4694C79.0732 25.5219 79.0732 25.6267 79.0732 25.7315V32.4918C79.0732 32.5966 79.0732 32.649 79.1184 32.7539C79.1636 32.8063 79.2088 32.9111 79.2992 32.9635C79.3443 33.0159 79.4347 33.0159 79.5251 33.0159H86.3931Z" fill="#8FD6C2"/>
<path d="M77.402 33.0159C77.4924 33.0159 77.5376 33.0159 77.6279 32.9635C77.6731 32.9111 77.7635 32.8587 77.8087 32.7539C77.8538 32.7015 77.8538 32.5967 77.8538 32.4919V25.7315C77.8538 25.6267 77.8538 25.5743 77.8087 25.4695C77.7635 25.4171 77.7183 25.3123 77.6731 25.2599C77.6279 25.2075 77.5376 25.2075 77.4472 25.2075H76.0465C75.9561 25.2075 75.9109 25.2075 75.8205 25.2599C75.7302 25.3123 75.6398 25.3647 75.5946 25.4695C75.5043 25.5219 75.4591 25.6267 75.4139 25.7315L72.748 31.1817V25.7315C72.748 25.6267 72.748 25.5743 72.7028 25.4695C72.6576 25.4171 72.6124 25.3123 72.5221 25.3123C72.4769 25.2599 72.3865 25.2599 72.2962 25.2599H71.4828C71.3925 25.2599 71.3021 25.2599 71.2569 25.3123C71.2117 25.3647 71.1214 25.4171 71.1214 25.4695C71.0762 25.5219 71.0762 25.6267 71.0762 25.7315V32.4919C71.0762 32.5967 71.0762 32.6491 71.1214 32.7539C71.1665 32.8063 71.2117 32.9111 71.2569 32.9635C71.3021 33.0159 71.3925 33.0159 71.4828 33.0159H73.0191C73.1095 33.0159 73.1998 33.0159 73.2902 32.9635C73.3806 32.9111 73.4709 32.8587 73.5161 32.7539C73.6065 32.7015 73.6517 32.5967 73.6969 32.4919L76.1368 27.4609V32.4919C76.1368 32.5967 76.1368 32.6491 76.182 32.7539C76.2272 32.8063 76.2724 32.9111 76.3628 32.9635C76.4079 33.0159 76.4983 33.0159 76.5887 33.0159H77.402Z" fill="#8FD6C2"/>
<path d="M69.6296 25.4694C69.5844 25.417 69.5392 25.3122 69.4489 25.3122C69.4037 25.2598 69.3133 25.2598 69.2229 25.2598H66.6926C66.3311 25.2598 66.0148 25.3122 65.6986 25.3646C65.3823 25.417 65.066 25.5219 64.7949 25.6791C64.5238 25.8363 64.2978 26.0459 64.0719 26.3079C63.8912 26.57 63.7104 26.9368 63.6201 27.3561L62.7616 31.4961H62.4001C62.3097 31.4961 62.2645 31.4961 62.1742 31.5485C62.129 31.6009 62.0386 31.6533 61.9934 31.7057C61.9482 31.7581 61.9482 31.863 61.9482 31.9678V32.4918C61.9482 32.5966 61.9482 32.649 61.9934 32.7539C62.0386 32.8063 62.0838 32.9111 62.1742 32.9635C62.2193 33.0159 62.3097 33.0159 62.4001 33.0159H69.2229C69.3133 33.0159 69.3585 33.0159 69.4489 32.9635C69.4941 32.9111 69.5844 32.8587 69.6296 32.8063C69.6748 32.7539 69.6748 32.649 69.6748 32.5442V25.7315C69.6748 25.6267 69.6296 25.5743 69.6296 25.4694ZM67.9126 31.4961H64.6141L65.3823 27.8277C65.4274 27.6181 65.5178 27.4085 65.6082 27.2512C65.6986 27.094 65.8341 26.9892 65.9697 26.8844C66.1052 26.7796 66.286 26.7272 66.5119 26.7272H67.9126V31.4961Z" fill="#8FD6C2"/>
<path d="M61.3613 25.2075H55.9392C55.8488 25.2075 55.8036 25.2075 55.7132 25.2599C55.668 25.3123 55.5777 25.3647 55.5325 25.4171C55.4873 25.4695 55.4873 25.5743 55.4873 25.6791V32.4919C55.4873 32.5967 55.4873 32.7015 55.5325 32.7539C55.5777 32.8587 55.6229 32.9111 55.668 32.9635C55.7132 33.0159 55.8036 33.0159 55.894 33.0159H61.2709C61.3613 33.0159 61.4517 33.0159 61.4969 32.9635C61.542 32.9111 61.6324 32.8587 61.6324 32.7539C61.6776 32.7015 61.6776 32.5967 61.6776 32.4919V31.9678C61.6776 31.863 61.6776 31.8106 61.6324 31.7058C61.5872 31.6534 61.542 31.5486 61.4969 31.5486C61.4517 31.4962 61.3613 31.4962 61.2709 31.4962H57.2043V29.8716H60.7287C60.8191 29.8716 60.8643 29.8716 60.9546 29.8192C60.9998 29.7668 61.0902 29.7144 61.1354 29.6095C61.1806 29.5571 61.1806 29.4523 61.1806 29.3475V28.8235C61.1806 28.7187 61.1806 28.6662 61.1354 28.5614C61.0902 28.509 61.045 28.4042 60.9546 28.3518C60.9094 28.2994 60.8191 28.2994 60.7287 28.2994H57.2043V26.7272H61.2709C61.3613 26.7272 61.4065 26.7272 61.4969 26.6748C61.542 26.6224 61.6324 26.57 61.6776 26.5176C61.7228 26.4652 61.7228 26.3604 61.7228 26.2556V25.7315C61.7228 25.6267 61.7228 25.5219 61.6776 25.4695C61.6324 25.4171 61.5872 25.3123 61.4969 25.3123C61.4969 25.2599 61.4065 25.2075 61.3613 25.2075Z" fill="#8FD6C2"/>
<path d="M50.2013 33.0159C50.2917 33.0159 50.3821 33.0159 50.4273 32.9635C50.5176 32.9111 50.5628 32.8587 50.6532 32.8063C50.6984 32.7539 50.7436 32.6491 50.7887 32.5443L52.4606 27.1989V32.4919C52.4606 32.5967 52.4606 32.7015 52.5057 32.7539C52.5509 32.8587 52.5961 32.9111 52.6413 32.9635C52.6865 33.0159 52.7769 33.0159 52.8672 33.0159H53.7257C53.8161 33.0159 53.9065 33.0159 53.9517 32.9635C53.9968 32.9111 54.0872 32.8587 54.0872 32.7539C54.1324 32.7015 54.1324 32.5967 54.1324 32.4919V25.7315C54.1324 25.6267 54.1324 25.5219 54.0872 25.4695C54.042 25.3647 53.9968 25.3123 53.9517 25.2599C53.9065 25.2075 53.8161 25.2075 53.7257 25.2075H51.828C51.7376 25.2075 51.6472 25.2075 51.6021 25.2599C51.5117 25.3123 51.4665 25.3647 51.4213 25.4695C51.3761 25.5219 51.3309 25.6267 51.2858 25.7315L49.885 30.3956L48.4843 25.7315C48.4391 25.6267 48.394 25.5743 48.3488 25.4695C48.3036 25.4171 48.2132 25.3123 48.168 25.2599C48.0777 25.2075 48.0325 25.2075 47.9421 25.2075H46.0444C45.954 25.2075 45.9088 25.2075 45.8184 25.2599C45.7732 25.3123 45.6829 25.3647 45.6829 25.4695C45.6377 25.5219 45.6377 25.6267 45.6377 25.7315V32.4919C45.6377 32.5967 45.6377 32.7015 45.6829 32.7539C45.7281 32.8587 45.7732 32.9111 45.8184 32.9635C45.8636 33.0159 45.954 33.0159 46.0444 33.0159H46.9029C46.9932 33.0159 47.0836 33.0159 47.1288 32.9635C47.174 32.9111 47.2643 32.8587 47.2643 32.7539C47.3095 32.7015 47.3095 32.5967 47.3095 32.4919V27.1989L48.9814 32.5443C49.0265 32.6491 49.0717 32.7015 49.1169 32.8063C49.1621 32.8587 49.2525 32.9635 49.3428 32.9635C49.4332 33.0159 49.4784 33.0159 49.5687 33.0159H50.2013Z" fill="#8FD6C2"/>
<path d="M133.521 21.1719C133.611 21.1719 133.657 21.1719 133.747 21.1195C133.792 21.0671 133.883 21.0147 133.928 20.9099C133.973 20.8575 133.973 20.7527 133.973 20.6479V13.8875C133.973 13.7827 133.973 13.7303 133.928 13.6255C133.883 13.5731 133.837 13.4683 133.792 13.4159C133.747 13.3635 133.657 13.3635 133.566 13.3635H132.166C132.075 13.3635 132.03 13.3635 131.94 13.4159C131.849 13.4683 131.804 13.5207 131.714 13.6255C131.623 13.6779 131.578 13.7827 131.533 13.8875L128.867 19.2853V13.8875C128.867 13.7827 128.867 13.7303 128.822 13.6255C128.777 13.5731 128.732 13.4683 128.641 13.4683C128.596 13.4159 128.506 13.4159 128.415 13.4159H127.602C127.512 13.4159 127.466 13.4159 127.376 13.4683C127.331 13.5207 127.24 13.5731 127.24 13.6255C127.195 13.6779 127.195 13.7827 127.195 13.8875V20.6479C127.195 20.7527 127.195 20.8051 127.24 20.9099C127.286 20.9623 127.331 21.0671 127.376 21.1195C127.421 21.1719 127.512 21.1719 127.602 21.1719H129.138C129.229 21.1719 129.319 21.1719 129.409 21.1195C129.5 21.0671 129.59 21.0147 129.635 20.9099C129.726 20.8575 129.771 20.7527 129.816 20.6479L132.256 15.6169V20.6479C132.256 20.7527 132.256 20.8051 132.301 20.9099C132.346 20.9623 132.391 21.0671 132.482 21.1195C132.527 21.1719 132.617 21.1719 132.708 21.1719H133.521ZM130.584 11.5817C130.403 11.5817 130.313 11.5293 130.177 11.4769C130.087 11.4245 129.997 11.3197 129.952 11.2148C129.906 11.11 129.861 11.0576 129.816 11.0052C129.771 10.9528 129.68 10.9528 129.635 10.9528H129.274C129.183 10.9528 129.138 10.9528 129.093 11.0052C129.048 11.0576 129.003 11.11 129.003 11.2148C129.003 11.5293 129.093 11.8437 129.183 12.0533C129.319 12.3154 129.5 12.4726 129.726 12.6298C129.952 12.7346 130.223 12.8394 130.539 12.8394C130.855 12.8394 131.126 12.787 131.352 12.6298C131.578 12.525 131.759 12.3154 131.894 12.0533C132.03 11.7913 132.075 11.5293 132.075 11.2148C132.075 11.11 132.075 11.0576 131.985 11.0052C131.94 10.9528 131.894 10.9528 131.804 10.9528H131.488C131.397 10.9528 131.352 10.9528 131.307 11.0052C131.262 11.0576 131.217 11.11 131.172 11.2148C131.126 11.3197 131.036 11.4245 130.946 11.4769C130.855 11.5293 130.72 11.5817 130.584 11.5817ZM125.026 21.1719C125.117 21.1719 125.162 21.1719 125.252 21.1195C125.298 21.0671 125.388 21.0147 125.433 20.9099C125.478 20.8575 125.478 20.7527 125.478 20.6479V13.8875C125.478 13.7827 125.478 13.7303 125.433 13.6255C125.388 13.5731 125.343 13.4683 125.298 13.4159C125.252 13.3635 125.162 13.3635 125.072 13.3635H123.671C123.581 13.3635 123.535 13.3635 123.445 13.4159C123.355 13.4683 123.309 13.5207 123.219 13.6255C123.129 13.6779 123.083 13.7827 123.038 13.8875L120.372 19.3377V13.8875C120.372 13.7827 120.372 13.7303 120.327 13.6255C120.282 13.5731 120.237 13.4683 120.146 13.4683C120.101 13.4159 120.011 13.4159 119.921 13.4159H119.107C119.017 13.4159 118.972 13.4159 118.881 13.4683C118.836 13.5207 118.746 13.5731 118.746 13.6255C118.701 13.6779 118.701 13.7827 118.701 13.8875V20.6479C118.701 20.7527 118.701 20.8051 118.746 20.9099C118.791 20.9623 118.836 21.0671 118.881 21.1195C118.927 21.1719 119.017 21.1719 119.107 21.1719H120.644C120.734 21.1719 120.824 21.1719 120.915 21.1195C121.005 21.0671 121.095 21.0147 121.141 20.9099C121.231 20.8575 121.276 20.7527 121.321 20.6479L123.761 15.6169V20.6479C123.761 20.7527 123.761 20.8051 123.806 20.9099C123.852 20.9623 123.897 21.0671 123.987 21.1195C124.032 21.1719 124.123 21.1719 124.213 21.1719H125.026ZM112.013 21.1719C112.104 21.1719 112.149 21.1719 112.239 21.1195C112.284 21.0671 112.375 21.0147 112.42 20.9623C112.465 20.9099 112.465 20.8051 112.465 20.7003V18.08H113.459C113.64 18.08 113.821 18.1324 114.001 18.2372C114.137 18.342 114.272 18.4468 114.408 18.6041C114.544 18.7613 114.634 18.9709 114.77 19.1805L115.583 20.7003C115.628 20.8051 115.718 20.8575 115.764 20.9623C115.854 21.0147 115.944 21.1195 116.035 21.1195C116.125 21.1719 116.215 21.1719 116.306 21.1719H117.39C117.481 21.1719 117.526 21.1719 117.571 21.1195C117.616 21.0671 117.616 21.0147 117.616 20.9623C117.616 20.9099 117.571 20.8051 117.526 20.7003L116.351 18.5517C116.306 18.4468 116.215 18.2896 116.125 18.1848C116.035 18.0276 115.944 17.9228 115.809 17.818C115.718 17.7132 115.583 17.6084 115.492 17.5035C115.357 17.3987 115.267 17.3463 115.131 17.3463C115.357 17.2939 115.538 17.1891 115.673 17.0843C115.809 16.9795 115.944 16.8223 116.035 16.665C116.125 16.5078 116.215 16.3506 116.306 16.1934L117.3 14.0448C117.39 13.8875 117.39 13.7827 117.39 13.6779C117.345 13.5731 117.3 13.5207 117.164 13.5207H116.08C115.944 13.5207 115.854 13.5731 115.718 13.6255C115.583 13.7303 115.492 13.8351 115.402 14.0448L114.679 15.5645C114.544 15.8266 114.408 16.0362 114.272 16.1934C114.137 16.3506 114.001 16.4554 113.866 16.5602C113.73 16.6126 113.55 16.665 113.369 16.665H112.375V14.0448C112.375 13.9399 112.375 13.8351 112.33 13.7827C112.284 13.7303 112.239 13.6255 112.149 13.5731C112.104 13.5207 112.013 13.5207 111.923 13.5207H111.064C110.974 13.5207 110.929 13.5207 110.838 13.5731C110.793 13.6255 110.703 13.6779 110.658 13.7827C110.613 13.8875 110.613 13.9399 110.613 14.0448V20.8051C110.613 20.9099 110.613 21.0147 110.658 21.0671C110.703 21.1719 110.748 21.2243 110.838 21.2768C110.884 21.3292 110.974 21.3292 111.064 21.3292H112.013V21.1719ZM102.118 17.2939C102.118 18.1848 102.253 18.9185 102.525 19.495C102.796 20.0714 103.157 20.4907 103.699 20.8051C104.196 21.0671 104.874 21.2244 105.597 21.2244H106.727C106.998 21.2244 107.269 21.1719 107.495 21.1195C107.766 21.0671 107.992 20.9623 108.218 20.8051C108.444 20.7003 108.67 20.5431 108.805 20.3335C108.986 20.1238 109.121 19.9142 109.212 19.6522C109.302 19.3901 109.347 19.1281 109.347 18.8137C109.347 18.7089 109.347 18.6041 109.302 18.4993C109.257 18.4468 109.212 18.342 109.167 18.342C109.121 18.2896 109.076 18.2896 109.031 18.2372C108.986 18.2372 108.941 18.2372 108.896 18.2372H108.353C108.263 18.2372 108.173 18.2372 108.082 18.2896C107.992 18.342 107.947 18.3944 107.856 18.4993C107.766 18.6041 107.721 18.7089 107.676 18.8661C107.585 19.1281 107.404 19.3377 107.224 19.495C107.043 19.6522 106.817 19.7046 106.501 19.7046H105.552C105.19 19.7046 104.919 19.6522 104.693 19.5998C104.467 19.495 104.287 19.3901 104.151 19.1805C104.016 18.9709 103.925 18.7613 103.88 18.4468C103.835 18.1324 103.79 17.7656 103.79 17.2939C103.79 16.8223 103.835 16.4554 103.88 16.141C103.925 15.8266 104.016 15.5645 104.151 15.4073C104.287 15.1977 104.467 15.0929 104.693 14.9881C104.919 14.8833 105.19 14.8833 105.552 14.8833H106.365C106.636 14.8833 106.907 14.9881 107.088 15.0929C107.269 15.2501 107.404 15.4597 107.54 15.7217C107.585 15.879 107.676 15.9838 107.721 16.0886C107.811 16.1934 107.856 16.2458 107.947 16.2982C108.037 16.3506 108.127 16.3506 108.218 16.3506H108.76C108.805 16.3506 108.85 16.3506 108.896 16.3506C108.941 16.3506 108.986 16.2982 109.031 16.2458C109.076 16.1934 109.121 16.141 109.167 16.0886C109.212 16.0362 109.212 15.9314 109.212 15.7742C109.212 15.4597 109.167 15.1977 109.076 14.9357C108.986 14.6736 108.85 14.464 108.67 14.2544C108.489 14.0448 108.308 13.8875 108.082 13.7827C107.856 13.6779 107.63 13.5731 107.359 13.4683C107.088 13.4159 106.862 13.3635 106.591 13.3635H105.552C104.784 13.3635 104.151 13.5207 103.654 13.7827C103.157 14.0448 102.75 14.5164 102.479 15.0929C102.253 15.6693 102.118 16.403 102.118 17.2939ZM100.853 13.3635H95.4757C95.3854 13.3635 95.3402 13.3635 95.2498 13.4159C95.2046 13.4683 95.1143 13.5207 95.0691 13.5731C95.0239 13.6255 95.0239 13.7303 95.0239 13.8351V20.5955C95.0239 20.7003 95.0239 20.8051 95.0691 20.8575C95.1143 20.9623 95.1595 21.0147 95.2046 21.0671C95.2498 21.1195 95.3402 21.1195 95.4306 21.1195H100.808C100.898 21.1195 100.943 21.1195 101.033 21.0671C101.079 21.0147 101.169 20.9623 101.169 20.8575C101.214 20.8051 101.214 20.7003 101.214 20.5955V20.0714C101.214 19.9666 101.214 19.9142 101.169 19.8094C101.124 19.757 101.079 19.6522 101.033 19.6522C100.988 19.5998 100.898 19.5998 100.808 19.5998H96.7409V17.9752H100.265C100.356 17.9752 100.401 17.9752 100.491 17.9228C100.536 17.8704 100.627 17.818 100.672 17.7132C100.717 17.6608 100.717 17.5559 100.717 17.4511V16.9271C100.717 16.8223 100.717 16.7699 100.672 16.665C100.627 16.6126 100.582 16.5078 100.491 16.4554C100.446 16.403 100.356 16.403 100.265 16.403H96.7409V14.8308H100.808C100.898 14.8308 100.943 14.8308 101.033 14.7784C101.079 14.726 101.169 14.6736 101.214 14.6212C101.259 14.5688 101.259 14.464 101.259 14.3592V13.8351C101.259 13.7303 101.259 13.6255 101.214 13.5731C101.169 13.5207 101.124 13.4159 101.033 13.4159C101.033 13.4159 100.943 13.3635 100.853 13.3635ZM86.8907 15.7217C86.8907 16.1934 86.9811 16.665 87.1166 17.0319C87.2522 17.3987 87.4781 17.7132 87.704 17.9228C87.9751 18.1324 88.2462 18.342 88.6077 18.4468C88.9692 18.5517 89.3307 18.6041 89.7825 18.6041H91.5899V20.7003C91.5899 20.8051 91.5899 20.8575 91.6351 20.9623C91.6803 21.0147 91.7254 21.1195 91.8158 21.1195C91.861 21.1719 91.9514 21.1719 92.0417 21.1719H92.9002C92.9906 21.1719 93.081 21.1719 93.1262 21.1195C93.1713 21.0671 93.2617 21.0147 93.3069 20.9099C93.3521 20.8575 93.3521 20.7527 93.3521 20.6479V13.8875C93.3521 13.7827 93.3521 13.6779 93.3069 13.6255C93.2617 13.5731 93.2165 13.4683 93.1262 13.4683C93.0358 13.4159 92.9906 13.4159 92.9002 13.4159H92.0417C91.9514 13.4159 91.9062 13.4159 91.8158 13.4683C91.7706 13.5207 91.6803 13.5731 91.6351 13.6255C91.5899 13.6779 91.5899 13.7827 91.5899 13.8875V17.0319H89.7825C89.421 17.0319 89.1499 16.9271 88.924 16.7175C88.7433 16.5078 88.6529 16.1934 88.6529 15.7217V13.8875C88.6529 13.7827 88.6529 13.6779 88.6077 13.6255C88.5625 13.5731 88.5173 13.4683 88.427 13.4683C88.3818 13.4159 88.2914 13.4159 88.201 13.4159H87.3425C87.2522 13.4159 87.1618 13.4159 87.1166 13.4683C87.0262 13.5207 86.9811 13.5731 86.9359 13.6779C86.8907 13.7303 86.8907 13.8351 86.8907 13.9399V15.7217ZM85.0381 21.1719C85.1285 21.1719 85.1737 21.1719 85.264 21.1195C85.3092 21.0671 85.3996 21.0147 85.4448 20.9099C85.49 20.8575 85.49 20.7527 85.49 20.6479V13.8875C85.49 13.7827 85.49 13.7303 85.4448 13.6255C85.3996 13.5731 85.3544 13.4683 85.3092 13.4159C85.2641 13.3635 85.1737 13.3635 85.0833 13.3635H83.6826C83.5922 13.3635 83.547 13.3635 83.4567 13.4159C83.3663 13.4683 83.3211 13.5207 83.2307 13.6255C83.1404 13.6779 83.0952 13.7827 83.05 13.8875L80.3841 19.3377V13.8875C80.3841 13.7827 80.3841 13.7303 80.3389 13.6255C80.2938 13.5731 80.2486 13.4683 80.1582 13.4683C80.113 13.4159 80.0226 13.4159 79.9323 13.4159H79.0738C78.9834 13.4159 78.9382 13.4159 78.8479 13.4683C78.8027 13.5207 78.7123 13.5731 78.7123 13.6255C78.6671 13.6779 78.6671 13.7827 78.6671 13.8875V20.6479C78.6671 20.7527 78.6671 20.8051 78.7123 20.9099C78.7575 20.9623 78.8027 21.0671 78.8479 21.1195C78.893 21.1719 78.9834 21.1719 79.0738 21.1719H80.61C80.7004 21.1719 80.7908 21.1719 80.8812 21.1195C80.9715 21.0671 81.0619 21.0147 81.1071 20.9099C81.1974 20.8575 81.2426 20.7527 81.2878 20.6479L83.7278 15.6169V20.6479C83.7278 20.7527 83.7278 20.8051 83.773 20.9099C83.8181 20.9623 83.8633 21.0671 83.9537 21.1195C83.9989 21.1719 84.0893 21.1719 84.1796 21.1719H85.0381ZM75.1879 20.7003C75.1879 20.8051 75.1879 20.8575 75.2331 20.9623C75.2783 21.0147 75.3235 21.1195 75.4138 21.1195C75.459 21.1719 75.5494 21.1719 75.6397 21.1719H76.4983C76.5886 21.1719 76.679 21.1719 76.7242 21.1195C76.7694 21.0671 76.8597 21.0147 76.9049 20.9099C76.9501 20.8575 76.9501 20.7527 76.9501 20.6479V13.8875C76.9501 13.7827 76.9501 13.6779 76.9049 13.6255C76.8597 13.5731 76.8146 13.4683 76.7242 13.4683C76.6338 13.4159 76.5886 13.4159 76.4983 13.4159H75.6397C75.5494 13.4159 75.5042 13.4159 75.4138 13.4683C75.3686 13.5207 75.2783 13.5731 75.2331 13.6255C75.1879 13.6779 75.1879 13.7827 75.1879 13.8875V16.3506H71.9798V13.8875C71.9798 13.7827 71.9798 13.6779 71.9346 13.6255C71.8894 13.5731 71.8443 13.4683 71.7539 13.4683C71.7087 13.4159 71.6183 13.4159 71.528 13.4159H70.6695C70.5791 13.4159 70.4887 13.4159 70.4435 13.4683C70.3532 13.5207 70.308 13.5731 70.2628 13.6255C70.2176 13.6779 70.2176 13.7827 70.2176 13.8875V20.6479C70.2176 20.7527 70.2176 20.8051 70.2628 20.9099C70.308 20.9623 70.3532 21.0671 70.4435 21.1195C70.4887 21.1719 70.5791 21.1719 70.6695 21.1719H71.528C71.6183 21.1719 71.6635 21.1719 71.7539 21.1195C71.7991 21.0671 71.8894 21.0147 71.9346 20.9623C71.9798 20.9099 71.9798 20.8051 71.9798 20.7003V17.9228H75.1879V20.7003ZM68.0939 21.1719C68.1843 21.1719 68.2295 21.1719 68.3199 21.1195C68.365 21.0671 68.4554 21.0147 68.5006 20.9099C68.5458 20.8575 68.5458 20.7527 68.5458 20.6479V13.8875C68.5458 13.7827 68.5458 13.7303 68.5006 13.6255C68.4554 13.5731 68.4102 13.4683 68.365 13.4159C68.3199 13.3635 68.2295 13.3635 68.1391 13.3635H66.7384C66.648 13.3635 66.6028 13.3635 66.5125 13.4159C66.4221 13.4683 66.3769 13.5207 66.2866 13.6255C66.1962 13.6779 66.151 13.7827 66.1058 13.8875L63.4399 19.3377V13.8875C63.4399 13.7827 63.4399 13.7303 63.3948 13.6255C63.3496 13.5731 63.3044 13.4683 63.214 13.4683C63.1688 13.4159 63.0785 13.4159 62.9881 13.4159H62.1748C62.0844 13.4159 62.0392 13.4159 61.9489 13.4683C61.9037 13.5207 61.8133 13.5731 61.8133 13.6255C61.7681 13.6779 61.7681 13.7827 61.7681 13.8875V20.6479C61.7681 20.7527 61.7681 20.8051 61.8133 20.9099C61.8585 20.9623 61.9037 21.0671 61.9489 21.1195C61.994 21.1719 62.0844 21.1719 62.1748 21.1719H63.711C63.8014 21.1719 63.8918 21.1719 63.9822 21.1195C64.0725 21.0671 64.1629 21.0147 64.2081 20.9099C64.2984 20.8575 64.3436 20.7527 64.3888 20.6479L66.8288 15.6169V20.6479C66.8288 20.7527 66.8288 20.8051 66.874 20.9099C66.9191 20.9623 66.9643 21.0671 67.0547 21.1195C67.0999 21.1719 67.1902 21.1719 67.2806 21.1719H68.0939ZM60.0059 20.6479V13.8875C60.0059 13.7827 60.0059 13.7303 59.9607 13.6255C59.9155 13.5731 59.8704 13.4683 59.8252 13.4159C59.78 13.3635 59.6896 13.3635 59.6444 13.3635H57.2948C56.9334 13.3635 56.6171 13.3635 56.3008 13.4683C55.9845 13.5207 55.6682 13.6255 55.3971 13.7827C55.126 13.9399 54.8549 14.1496 54.6741 14.4116C54.4482 14.6736 54.3127 15.0405 54.2223 15.4597L53.0475 20.7003C53.0475 20.8051 53.0475 20.8575 53.0475 20.9099C53.0475 20.9623 53.0927 21.0147 53.1831 21.0671C53.2282 21.1195 53.3186 21.1195 53.3638 21.1195H54.3127C54.403 21.1195 54.4934 21.1195 54.5386 21.0671C54.629 21.0147 54.6741 20.9623 54.7193 20.9099C54.7645 20.8575 54.8097 20.7527 54.8549 20.6479L55.9393 15.9838C55.9845 15.7742 56.0749 15.5645 56.2104 15.4073C56.346 15.2501 56.4815 15.0929 56.6171 15.0405C56.7978 14.9357 56.9786 14.8833 57.1593 14.8833H58.2889V20.6479C58.2889 20.7527 58.2889 20.8575 58.3341 20.9099C58.3793 20.9623 58.4245 21.0671 58.5148 21.0671C58.56 21.1195 58.6504 21.1195 58.7407 21.1195H59.6444C59.7348 21.1195 59.78 21.1195 59.8704 21.0671C59.9155 21.0147 60.0059 20.9623 60.0059 20.9099C60.0059 20.8575 60.0059 20.7527 60.0059 20.6479ZM46.9024 21.1719C46.9928 21.1719 47.038 21.1719 47.1283 21.1195C47.1735 21.0671 47.2639 21.0147 47.3091 20.9623C47.3543 20.9099 47.3543 20.8051 47.3543 20.7003V18.08H48.3483C48.5291 18.08 48.7098 18.1324 48.8905 18.2372C49.0261 18.342 49.1616 18.4468 49.2972 18.6041C49.4327 18.7613 49.5231 18.9709 49.6587 19.1805L50.472 20.7003C50.5172 20.8051 50.6075 20.8575 50.6527 20.9623C50.7431 21.0147 50.8335 21.1195 50.9238 21.1195C51.0142 21.1719 51.1046 21.1719 51.1949 21.1719H52.2794C52.3697 21.1719 52.4149 21.1719 52.4601 21.1195C52.5053 21.0671 52.5053 21.0147 52.5053 20.9623C52.5053 20.9099 52.4601 20.8051 52.4149 20.7003L51.2401 18.5517C51.1949 18.4468 51.1046 18.2896 51.0142 18.1848C50.9238 18.0276 50.8335 17.9228 50.6979 17.818C50.6075 17.7132 50.472 17.6084 50.3816 17.5035C50.2461 17.3987 50.1557 17.3463 50.0201 17.3463C50.2461 17.2939 50.4268 17.1891 50.5624 17.0843C50.6979 16.9795 50.8335 16.8223 50.9238 16.665C51.0142 16.5078 51.1046 16.3506 51.1949 16.1934L52.189 14.0448C52.2794 13.8875 52.2794 13.7827 52.2794 13.6779C52.2342 13.5731 52.189 13.5207 52.0534 13.5207H51.0594C50.9238 13.5207 50.8335 13.5731 50.6979 13.6255C50.5624 13.7303 50.472 13.8351 50.3816 14.0448L49.6587 15.5645C49.5231 15.8266 49.3876 16.0362 49.252 16.1934C49.1164 16.3506 48.9809 16.4554 48.8453 16.5602C48.7098 16.6126 48.5291 16.665 48.3483 16.665H47.3543V14.0448C47.3543 13.9399 47.3543 13.8351 47.3091 13.7827C47.2639 13.7303 47.2187 13.6255 47.1283 13.5731C47.0831 13.5207 46.9928 13.5207 46.9024 13.5207H45.9987C45.9084 13.5207 45.8632 13.5207 45.7728 13.5731C45.7276 13.6255 45.6372 13.6779 45.5921 13.7827C45.5469 13.8875 45.5469 13.9399 45.5469 14.0448V20.8051C45.5469 20.9099 45.5469 21.0147 45.5921 21.0671C45.6372 21.1719 45.6824 21.2243 45.7728 21.2768C45.818 21.3292 45.9084 21.3292 45.9987 21.3292H46.9024V21.1719Z" fill="#477A6A"/>
<path d="M93.3518 10.2715C93.4422 10.2715 93.4874 10.2715 93.5778 10.2191C93.6229 10.1667 93.7133 10.1143 93.7585 10.0095C93.8037 9.95709 93.8037 9.85228 93.8037 9.74747V3.03953C93.8037 2.93472 93.8037 2.88232 93.7585 2.7775C93.7133 2.7251 93.6681 2.62029 93.6229 2.56788C93.5777 2.51548 93.4874 2.51548 93.397 2.51548H91.9963C91.9059 2.51548 91.8607 2.51548 91.7704 2.56788C91.68 2.62029 91.5896 2.67269 91.5444 2.7775C91.4541 2.82991 91.4089 2.93472 91.3637 3.03953L88.6978 8.48973V2.98713C88.6978 2.88232 88.6978 2.82991 88.6526 2.7251C88.6075 2.67269 88.5623 2.56788 88.4719 2.56788C88.4267 2.51548 88.3363 2.51548 88.246 2.51548H87.4327C87.3423 2.51548 87.2519 2.51548 87.2067 2.56788C87.1615 2.62029 87.0712 2.67269 87.0712 2.7251C87.026 2.7775 87.026 2.88232 87.026 2.98713V9.74747C87.026 9.85228 87.026 9.90469 87.0712 10.0095C87.1164 10.0619 87.1615 10.1667 87.2067 10.2191C87.2519 10.2715 87.3423 10.2715 87.4327 10.2715H88.9689C89.0593 10.2715 89.1497 10.2715 89.24 10.2191C89.3304 10.1667 89.4208 10.1143 89.466 10.0095C89.5563 9.95709 89.6015 9.85228 89.6467 9.74747L92.0867 4.71652V9.74747C92.0867 9.85228 92.0867 9.90469 92.1318 10.0095C92.177 10.0619 92.2222 10.1667 92.3126 10.2191C92.3578 10.2715 92.4481 10.2715 92.5385 10.2715H93.3518ZM90.3696 0.681275C90.1889 0.681275 90.0985 0.628869 89.963 0.576463C89.8726 0.524057 89.7823 0.419246 89.7371 0.314434C89.6919 0.209623 89.6467 0.157217 89.6015 0.104811C89.6015 0 89.5111 0 89.4208 0H89.0593C88.9689 0 88.9237 0 88.8786 0.0524057C88.8334 0.104811 88.7882 0.157217 88.7882 0.262029C88.7882 0.576463 88.8786 0.890898 88.9689 1.10052C89.1045 1.36255 89.2852 1.51977 89.5111 1.67698C89.7371 1.7818 90.0082 1.88661 90.3245 1.88661C90.6408 1.88661 90.9119 1.8342 91.1378 1.67698C91.3637 1.57217 91.5444 1.36255 91.68 1.10052C91.8156 0.838492 91.8607 0.576463 91.8607 0.262029C91.8607 0.157217 91.8607 0.104811 91.7704 0.0524057C91.8156 0 91.7704 0 91.68 0H91.3185C91.2282 0 91.183 0 91.1378 0.0524057C91.0926 0.104811 91.0474 0.157217 91.0022 0.262029C90.957 0.36684 90.8667 0.471652 90.7763 0.524057C90.6859 0.628869 90.5504 0.681275 90.3696 0.681275ZM83.8179 9.79987C83.8179 9.90469 83.8179 9.95709 83.8631 10.0619C83.9083 10.1143 83.9534 10.2191 84.0438 10.2191C84.089 10.2715 84.1794 10.2715 84.2697 10.2715H85.1734C85.2638 10.2715 85.3542 10.2715 85.3994 10.2191C85.4445 10.1667 85.5349 10.1143 85.5801 10.0095C85.6253 9.95709 85.6253 9.85228 85.6253 9.74747V2.98713C85.6253 2.88232 85.6253 2.7775 85.5801 2.7251C85.5349 2.67269 85.4897 2.56788 85.3994 2.51548C85.309 2.46307 85.2638 2.46307 85.1734 2.46307H84.2697C84.1794 2.46307 84.1342 2.46307 84.0438 2.51548C83.9986 2.56788 83.9083 2.62029 83.8631 2.7251C83.8179 2.7775 83.8179 2.88232 83.8179 2.98713V9.79987ZM78.3958 5.13576V2.98713C78.3958 2.88232 78.3958 2.7775 78.3506 2.7251C78.3054 2.67269 78.2602 2.56788 78.1698 2.51548C78.1246 2.46307 78.0343 2.46307 77.9439 2.46307H77.0402C76.9498 2.46307 76.8595 2.46307 76.8143 2.51548C76.7691 2.56788 76.6787 2.62029 76.6787 2.7251C76.6336 2.7775 76.6336 2.88232 76.6336 2.98713V9.74747C76.6336 9.85228 76.6336 9.90469 76.6787 10.0095C76.7239 10.0619 76.7691 10.1667 76.8143 10.2191C76.8595 10.2715 76.9498 10.2715 77.0402 10.2715H80.2935C80.655 10.2715 80.9713 10.2191 81.2876 10.1143C81.6039 10.0095 81.875 9.85228 82.1009 9.64266C82.3268 9.43303 82.5075 9.171 82.6431 8.85657C82.7786 8.54214 82.8238 8.1753 82.8238 7.75605C82.8238 7.3368 82.7335 6.96996 82.6431 6.65553C82.5075 6.34109 82.3268 6.07907 82.1009 5.86944C81.875 5.65982 81.6039 5.5026 81.2876 5.39779C80.9713 5.29298 80.655 5.24057 80.2935 5.24057H78.3958V5.13576ZM80.3387 6.70793C80.6098 6.70793 80.7905 6.81275 80.9261 6.96996C81.0616 7.12718 81.1068 7.38921 81.1068 7.75605C81.1068 8.07048 81.0616 8.33251 80.9261 8.54214C80.7905 8.69935 80.6098 8.80416 80.3387 8.80416H78.3958V6.76034H80.3387V6.70793ZM73.1543 6.96996C73.3351 6.96996 73.4706 7.02237 73.561 7.07477C73.6514 7.12718 73.7417 7.2844 73.8321 7.38921C73.8773 7.54643 73.9225 7.70364 73.9225 7.86086C73.9225 8.01808 73.8773 8.2277 73.8321 8.33251C73.7869 8.48973 73.6966 8.59454 73.561 8.64695C73.4706 8.69935 73.2899 8.75176 73.1543 8.75176H70.4885V6.86515H73.1543V6.96996ZM73.0188 3.98284C73.1995 3.98284 73.3803 4.03524 73.4706 4.19246C73.6062 4.34968 73.6514 4.50689 73.6514 4.76892C73.6514 5.03095 73.6062 5.24057 73.4706 5.34539C73.3351 5.5026 73.1995 5.55501 73.0188 5.55501H70.4885V3.98284H73.0188ZM68.7263 9.79987C68.7263 9.90469 68.7263 9.95709 68.7715 10.0619C68.8166 10.1143 68.8618 10.2191 68.907 10.2715C68.9522 10.3239 69.0426 10.3239 69.1329 10.3239H73.1543C73.4255 10.3239 73.6514 10.2715 73.9225 10.2191C74.1484 10.1667 74.3743 10.0619 74.6003 9.95709C74.8262 9.85228 75.0069 9.69506 75.1425 9.48544C75.278 9.27582 75.4136 9.06619 75.5039 8.85657C75.5943 8.59454 75.6395 8.33251 75.6395 8.01808C75.6395 7.75605 75.5943 7.54643 75.5491 7.3368C75.5039 7.12718 75.3684 6.91756 75.2328 6.70793C75.0973 6.49831 74.9165 6.34109 74.7358 6.23628C74.8714 6.07907 75.0069 5.92185 75.0973 5.76463C75.1877 5.60741 75.278 5.4502 75.278 5.29298C75.3232 5.13576 75.3232 4.97855 75.3232 4.76892C75.3232 4.45449 75.278 4.14005 75.1877 3.93043C75.0973 3.6684 74.9617 3.45878 74.8262 3.30156C74.6454 3.14434 74.4647 2.98713 74.284 2.88232C74.058 2.7775 73.8773 2.67269 73.6062 2.62029C73.3803 2.56788 73.1544 2.56788 72.8832 2.56788H69.0877C68.9974 2.56788 68.907 2.56788 68.8618 2.62029C68.8166 2.67269 68.7263 2.7251 68.7263 2.82991C68.6811 2.88232 68.6811 2.98713 68.6811 3.09194V9.79987H68.7263ZM61.4516 2.51548C61.3612 2.51548 61.316 2.51548 61.2256 2.56788C61.1805 2.62029 61.0901 2.67269 61.0901 2.7251C61.0449 2.7775 61.0449 2.88232 61.0449 2.98713V9.74747C61.0449 9.85228 61.0449 9.90469 61.0901 10.0095C61.1353 10.0619 61.1805 10.1667 61.2708 10.2191C61.316 10.2715 61.4064 10.2715 61.4967 10.2715H62.4004C62.4908 10.2715 62.536 10.2715 62.6264 10.2191C62.6715 10.1667 62.7619 10.1143 62.7619 10.0095C62.8071 9.95709 62.8071 9.85228 62.8071 9.74747V8.54214H65.0663C65.6537 8.54214 66.1507 8.43732 66.6026 8.2277C67.0093 8.01808 67.3255 7.70364 67.5515 7.23199C67.7774 6.76034 67.8678 6.23628 67.8678 5.5026C67.8678 4.82133 67.7322 4.24486 67.5515 3.77321C67.3255 3.30156 67.0093 2.98713 66.6026 2.7775C66.1959 2.56788 65.6537 2.46307 65.0663 2.46307H61.4516V2.51548ZM64.4789 4.03524C64.7048 4.03524 64.9308 4.03524 65.1115 4.08765C65.2922 4.14005 65.473 4.19246 65.6085 4.29727C65.7441 4.40208 65.8796 4.5593 65.9248 4.76892C66.0152 4.97855 66.0604 5.24057 66.0604 5.55501C66.0604 5.86944 66.0152 6.13147 65.9248 6.34109C65.8345 6.55072 65.7441 6.70793 65.6085 6.81275C65.473 6.91756 65.2922 6.96996 65.1115 7.02237C64.9308 7.07477 64.7048 7.07477 64.4789 7.07477H62.8071V4.03524H64.4789ZM59.7345 2.51548H54.3124C54.222 2.51548 54.1769 2.51548 54.0865 2.56788C54.0413 2.62029 53.9509 2.67269 53.9057 2.7251C53.8606 2.7775 53.8606 2.88232 53.8606 2.98713V9.74747C53.8606 9.85228 53.8606 9.95709 53.9057 10.0095C53.9509 10.1143 53.9961 10.1667 54.0413 10.2191C54.0865 10.2715 54.1769 10.2715 54.2672 10.2715H59.6442C59.7345 10.2715 59.8249 10.2715 59.8701 10.2191C59.9153 10.1667 60.0057 10.1143 60.0057 10.0095C60.0508 9.95709 60.0508 9.85228 60.0508 9.74747V9.22341C60.0508 9.1186 60.0508 9.06619 60.0057 8.96138C59.9605 8.90898 59.9153 8.80416 59.8701 8.80416C59.8249 8.75176 59.7345 8.75176 59.6442 8.75176H55.5776V7.12718H59.102C59.1923 7.12718 59.2375 7.12718 59.3279 7.07477C59.3731 7.02237 59.4634 6.96996 59.5086 6.86515C59.5538 6.81275 59.5538 6.70793 59.5538 6.60312V6.07907C59.5538 5.97425 59.5538 5.92185 59.5086 5.81704C59.4634 5.76463 59.4183 5.65982 59.3279 5.60741C59.2827 5.55501 59.1923 5.55501 59.102 5.55501H55.5776V3.98284H59.6442C59.7345 3.98284 59.7797 3.98284 59.8701 3.93043C59.9153 3.87802 60.0057 3.82562 60.0508 3.77321C60.096 3.72081 60.096 3.616 60.096 3.51118V2.98713C60.096 2.88232 60.096 2.7775 60.0508 2.7251C60.0057 2.67269 59.9605 2.56788 59.8701 2.56788C59.8701 2.51548 59.8249 2.51548 59.7345 2.51548ZM52.0984 10.2715C52.1887 10.2715 52.2791 10.2715 52.3243 10.2191C52.3695 10.1667 52.4598 10.1143 52.505 10.0095C52.5502 9.95709 52.5502 9.85228 52.5502 9.74747V2.98713C52.5502 2.88232 52.5502 2.7775 52.505 2.7251C52.4598 2.67269 52.4147 2.56788 52.3243 2.56788C52.2791 2.51548 52.1887 2.51548 52.0984 2.51548H45.9985C45.9081 2.51548 45.8629 2.51548 45.7725 2.56788C45.7274 2.62029 45.637 2.67269 45.637 2.7251C45.5918 2.7775 45.5918 2.88232 45.5918 2.98713V9.74747C45.5918 9.85228 45.5918 9.90469 45.637 10.0095C45.6822 10.0619 45.7274 10.1667 45.7725 10.2191C45.8177 10.2715 45.9081 10.2715 45.9985 10.2715H46.9021C46.9925 10.2715 47.0377 10.2715 47.1281 10.2191C47.1733 10.1667 47.2636 10.1143 47.3088 10.0095C47.354 9.95709 47.354 9.85228 47.354 9.74747V3.98284H50.788V9.74747C50.788 9.85228 50.788 9.90469 50.8332 10.0095C50.8784 10.0619 50.9236 10.1667 51.0139 10.2191C51.0591 10.2715 51.1495 10.2715 51.2399 10.2715H52.0984Z" fill="#477A6A"/>
<path fill-rule="evenodd" clip-rule="evenodd" d="M19.2938 30.1333C15.0464 23.373 8.1784 19.0233 0.451845 19.0233C0.135554 20.5431 0 22.1153 0 23.6874C0 25.2596 0.135554 26.8318 0.406661 28.3515H0.451845C7.54581 28.3515 13.5554 33.959 15.2724 41.5578C15.8598 37.4177 17.2605 33.4873 19.2938 30.1333Z" fill="#BCE3D7"/>
<path fill-rule="evenodd" clip-rule="evenodd" d="M15.7705 46.222C15.7705 37.2082 19.5208 29.2425 25.3496 24.3163C28.2866 26.6746 31.6755 28.2992 35.2902 28.9805C28.6933 30.9719 23.8585 37.9418 23.8585 46.222C22.5482 46.5364 21.2378 46.6936 19.8371 46.6936C18.4364 46.6936 17.0809 46.5364 15.7705 46.222Z" fill="#8FD6C2"/>
<path fill-rule="evenodd" clip-rule="evenodd" d="M20.2871 17.2945C24.5345 24.0024 31.4025 28.3521 39.1742 28.3521C39.4453 26.8323 39.5809 25.2602 39.5809 23.688C39.5809 22.1158 39.4453 20.5436 39.1742 19.0239H39.129C32.0351 19.0239 26.0255 13.4165 24.3085 5.81763C23.7211 10.0101 22.3656 13.8881 20.2871 17.2945Z" fill="#69AF96"/>
<path fill-rule="evenodd" clip-rule="evenodd" d="M23.8573 1.20548C23.8573 10.2193 20.107 18.1849 14.2782 23.1111C11.3864 20.7528 7.99757 19.1282 4.38281 18.447C10.9346 16.4556 15.8145 9.48559 15.8145 1.20548C17.1248 0.891043 18.4352 0.733826 19.8359 0.733826C21.1915 0.733826 22.547 0.891043 23.8573 1.20548Z" fill="#477A6A"/>
</svg>
