<svg width="28" height="28" viewBox="0 0 28 28" fill="none" xmlns="http://www.w3.org/2000/svg">
<path d="M23.8995 4.10162C18.4284 -1.3668 9.57317 -1.36762 4.10129 4.10162C-0.298283 8.49898 -1.12965 15.0375 1.47139 20.2447L0.0293802 26.5845C-0.158051 27.4085 0.580833 28.1473 1.40558 27.96L7.74852 26.5187C16.9711 31.121 28 24.458 28 13.9959C28 10.2584 26.5437 6.74457 23.8995 4.10162ZM16.9207 17.4803H8.15968C7.52462 17.4803 7.0098 16.9658 7.0098 16.331C7.0098 15.6962 7.52462 15.1817 8.15968 15.1817H16.9207C17.5558 15.1817 18.0706 15.6962 18.0706 16.331C18.0706 16.9658 17.5558 17.4803 16.9207 17.4803ZM19.8411 12.8101H8.15968C7.52462 12.8101 7.0098 12.2955 7.0098 11.6608C7.0098 11.026 7.52462 10.5114 8.15968 10.5114H19.8411C20.4762 10.5114 20.991 11.026 20.991 11.6608C20.991 12.2955 20.4761 12.8101 19.8411 12.8101Z" fill="#00CEA9"/>
</svg>
